<?xml version="1.0" encoding="utf-8"?>
<!-- Generator: Adobe Illustrator 25.0.0, SVG Export Plug-In . SVG Version: 6.00 Build 0)  -->
<svg version="1.1" id="Layer_1" xmlns="http://www.w3.org/2000/svg" xmlns:xlink="http://www.w3.org/1999/xlink" x="0px" y="0px"
	 viewBox="0 0 1920 756" style="enable-background:new 0 0 1920 756;" xml:space="preserve">
<style type="text/css">
	.st0{display:none;}
	.st1{display:inline;fill:none;stroke:#3366FF;stroke-width:2;stroke-miterlimit:10;}
	.st2{display:inline;fill:none;stroke:#3366FF;stroke-width:1.5;stroke-miterlimit:10;}
	.st3{display:inline;fill:none;stroke:#3366FF;stroke-width:1.5;stroke-miterlimit:9.9998;}
	.st4{display:inline;fill:none;stroke:#3366FF;stroke-miterlimit:10;}
	.st5{display:inline;fill:none;stroke:#3366FF;stroke-width:2;stroke-miterlimit:9.9998;}
	.st6{display:inline;fill:#3366FF;stroke:#3366FF;stroke-width:2;stroke-miterlimit:10;}
	.st7{opacity:0.4;}
	.st8{opacity:0.5;fill:#333333;enable-background:new    ;}
	.st9{fill:none;stroke:#3366FF;stroke-width:2;stroke-miterlimit:10;}
	.st10{fill:none;stroke:#3366FF;stroke-width:1.5;stroke-miterlimit:10;}
	.st11{fill:none;stroke:#3366FF;stroke-width:1.4998;stroke-miterlimit:9.999;}
	.st12{fill:none;stroke:#3366FF;stroke-miterlimit:10;}
	.st13{fill:none;stroke:#3366FF;stroke-width:1.9998;stroke-miterlimit:9.999;}
	.st14{fill:#3366FF;stroke:#3366FF;stroke-width:2;stroke-miterlimit:10;}
</style>
<g id="Layer_1_1_" class="st0">
	<polygon class="st1" points="82.2,257.9 67.2,272.2 66.3,309.5 84.6,328.7 83.6,368.5 69.8,368.1 70.4,342.1 46.6,317.2 
		48.2,250.6 64,235.5 49,219.7 51,133.6 141.7,47.2 144.4,-65.7 117.8,-93.6 22.4,-95.9 73.3,-144.4 134,-143 179.5,-186.3 
		245.6,-184.7 292.1,-135.9 380.9,-133.8 401,-112.7 471.4,-111 481.4,-100.5 513.4,-99.7 536.4,-121.7 552.9,-121.3 577.7,-144.9 
		589.2,-144.6 588.9,-133.1 564,-109.3 563.6,-94.7 594.5,-94 594.2,-81 539,-82.3 452.5,0.2 451.8,29.4 477.1,56 519.4,57 
		520.4,14.8 543.1,15.3 543.8,-10.7 568.7,-34.5 606.1,-33.6 616.4,-22.7 616,-8.9 605.7,1 605.3,13.6 621.2,13.9 642.8,-6.7 
		657.4,-6.3 656.2,47.3 676.8,68.9 640.2,103.8 560.6,101.9 559.4,149 542.8,164.9 510.3,164.1 393.9,275.1 371.1,274.6 352.8,292 
		351.5,348.9 339.6,336.4 340.5,299.8 318.5,299.3 304.2,284.3 286.4,283.9 268.9,300.6 240.5,299.9 186.8,351 185.7,396.9 
		214.5,427.1 237.4,427.6 265.8,400.6 296.6,401.3 296.4,409.3 263.1,441 262.7,457.3 298.5,458.1 297.1,513.4 317.8,535 
		342.1,535.6 360.4,554.7 361,527.9 391.4,499 430.8,499.9 457.9,528.4 488.6,529.1 533.9,576.6 578.5,577.7 599.5,599.8 
		598.3,650.6 619,651.1 645.9,679.4 696.3,680.6 716.1,701.4 731.5,701.7 730.6,741.5 685.7,784.4 683.5,873.7 627.8,926.8 
		626.8,969.9 569,1025 568.2,1056.3 542.7,1080.7 542,1110.9 517.5,1134.2 517.2,1146.1 535.6,1146.5 533.3,1244 467.1,1154.6 
		468.5,1099.4 439.2,1098.7 445.8,822.5 331.6,702.8 334.8,572.8 309.4,546.2 286.6,545.6 118.5,369.3 121.2,258.8 	"/>
	<path class="st2" d="M303.9,367.2l35.7,0.9l30.1,31.6l-5,4.8l-9.8-0.2l-28.5-29.9l-22.7-0.5C303.7,373.7,303.9,366.4,303.9,367.2z"
		/>
	<polygon class="st2" points="390.7,408.3 379.6,396.7 400.7,397.2 400.4,408.6 	"/>
	
		<rect x="338.5" y="407.2" transform="matrix(2.390034e-02 -0.9997 0.9997 2.390034e-02 -80.1552 751.875)" class="st3" width="13" height="19.5"/>
	<polygon class="st1" points="504.9,-151.4 518.2,-164.1 518.4,-173.8 508.6,-174.1 492,-158.2 482.3,-158.4 472.5,-158.7 
		458.2,-173.6 440.4,-174.1 440.1,-162.7 448,-154.4 423.7,-155 423.2,-133.8 434.8,-144.9 468.9,-144.1 480.8,-131.6 510.9,-130.9 
		511.1,-141.5 	"/>
	<polygon class="st1" points="625,-145.3 624.5,-125.8 634.3,-125.5 659.2,-149.3 670.6,-149.1 701.5,-116.6 701.3,-107.7 
		711.2,-97.3 710.7,-75 692.6,-57.7 692.9,-72.1 672,-72.6 671.6,-56.4 656.7,-42.1 656.4,-30.7 641.8,-31.1 643.6,-105.8 
		617.6,-106.4 603.3,-121.4 603.9,-145.8 	"/>
	<polygon class="st1" points="806.2,-108.4 783.4,-109 773.5,-99.5 771.7,-28 781.3,-18 810.5,-17.3 843.8,-49 889.3,-47.9 
		945.8,-101.8 978.3,-101.1 985,-107.4 985.4,-126.9 972.4,-127.2 972.7,-137 982.7,-146.5 992.4,-146.2 992.1,-133.2 1001.8,-133 
		1011.8,-142.5 1012.6,-175 1022.3,-174.8 1023,-204 1015.1,-212.4 977.7,-213.2 988.5,-223.6 1023.5,-222.7 1012,-234.8 
		952.3,-236.2 943.3,-227.7 919.6,-228.2 919.1,-206.5 912.6,-206.7 899.9,-220 877.1,-220.5 864.4,-233.8 806,-235.2 792.7,-222.5 
		792.3,-206.3 756.5,-207.2 743.2,-194.5 743,-184.7 791.7,-183.6 807.6,-166.9 	"/>
	<polygon class="st1" points="953.9,-33.4 954.2,-43.1 962.5,-51.1 962.8,-62.4 974.1,-62.2 983.6,-52.2 1003.1,-51.7 1013.1,-61.2 
		1026.1,-60.9 1025.6,-38.2 1005.6,-19.1 979.6,-19.8 966.9,-33.1 	"/>
	<polygon class="st4" points="968.8,298.6 962.3,298.4 957.3,303.2 968.6,303.5 	"/>
	<polygon class="st4" points="962,308.2 952.3,307.9 952,317.7 947.1,322.5 946.9,327.3 955.1,327.5 955.1,324.3 961.8,317.9 	"/>
	<polygon class="st4" points="935.8,317.3 929.3,317.2 926,320.3 929.2,323.7 935.7,323.8 939,320.6 	"/>
	<polygon class="st4" points="926.2,310.6 926.1,313.8 919.5,320.2 919.4,323.4 916.2,323.3 912.8,326.5 909.6,326.4 906.4,323.1 
		909.7,319.9 916.4,313.6 916.4,313.6 923,310.5 	"/>
	<polygon class="st4" points="904.1,284 907.3,284.1 910.5,287.4 910.3,293.9 907.1,293.9 903.9,290.5 	"/>
	<polygon class="st4" points="906.7,310.1 906.6,316.6 903.2,319.8 900.1,316.5 903.4,313.3 903.5,310 	"/>
	<polygon class="st1" points="1040.7,280.8 1032.8,272.5 1021.4,272.2 992.3,300 991.5,331.6 939.6,381.2 939.2,395.4 928.2,405.9 
		925.8,505.6 942.8,523.4 941.8,564.5 953.4,576.8 978.3,577.3 999.5,599.5 1065.6,601.1 1082.8,584.7 1117.9,585.5 1132,600.2 
		1146.8,600.6 1153.9,607.9 1151.9,689.8 1180.1,719.4 1177.4,833.5 1215.3,873.2 1212.9,970.9 1236.7,995.8 1293.4,997.1 
		1384.1,910.7 1385.4,854.7 1434.9,807.5 1436.1,758.4 1421.6,743.2 1422.5,706.1 1529.7,603.9 1531.2,539.6 1473.4,538.2 
		1429.1,491.6 1419.3,491.4 1367,436.5 1368.2,382.9 1368.6,366.7 1329.8,325.9 1290,325 1269.8,303.8 1251.5,303.3 1251,324.8 
		1221.7,324.1 1207.5,309.2 1179.8,308.5 1164.8,292.7 1172.3,285.6 1172.8,264.5 1093.2,262.5 1073.2,281.6 	"/>
	<path class="st1" d="M1481.6,743.2l13,0.3l7.9,8.3l-2.2,92.6l-12.5,11.9l-15.4-0.4l-4.4-4.6l1-43.5l-15.3-16l0.6-26.6l26.6,0.6
		C1481,766,1480.9,743.2,1481.6,743.2z"/>
	<polygon class="st1" points="1521.9,685.7 1528.4,685.8 1534.8,692.5 1534.6,699 1528.1,698.8 1518.6,688.8 	"/>
	
		<rect x="1509" y="679" transform="matrix(2.390034e-02 -0.9997 0.9997 2.390034e-02 794.0798 2177.7805)" class="st5" width="6.5" height="6.5"/>
	<polygon class="st1" points="1538.5,673.1 1543.5,668.3 1548.2,673.3 1548.2,676.5 1554.7,676.7 1554.5,683.2 1544.8,683 
		1536.8,674.7 	"/>
	<polygon class="st1" points="2261.1,1181.2 2222.1,1180.3 2221.7,1196.6 2245.5,1221.5 2260.5,1207.2 	"/>
	<polygon class="st1" points="2490.3,1115.2 2496.8,1115.4 2496.2,1138.1 2516.8,1159.7 2516.7,1164.6 2472.6,1206.6 2460.7,1194.2 
		2472.4,1183.1 2467.6,1178.1 2489.2,1157.4 	"/>
	<polygon class="st1" points="2439.5,1198.5 2455.4,1215.2 2438.7,1231 2419.2,1230.6 2374.3,1273.4 2353.2,1272.9 2353.5,1261.5 
		2376.8,1239.3 2396.3,1239.8 	"/>
	<polygon class="st1" points="2373.1,849.1 2371,936.8 2390,956.8 2389.1,995.8 2401.8,1009 2401.2,1031.8 2274.8,1152.3 
		2239.1,1151.5 2213.7,1124.8 2214.1,1108.6 2232.4,1091.2 2222.9,1081.2 2211.5,1080.9 2199,1092.8 2188.4,1092.6 2189.2,1059.2 
		2173,1058.9 2163.5,1048.9 2131,1048.1 2102.7,1075.1 2039.4,1073.5 2030.6,1064.4 2031.3,1036 2045.9,1022.1 2047.6,951.8 
		2088.1,913.2 2124.4,914 2154.1,885.8 2180.4,886.4 2203.5,864.4 2226.4,864.9 2262.9,830.1 2295.5,830.9 2295,850.5 2280.1,864.7 
		2316.5,903 2331.5,888.7 2332.1,864.3 2349.5,847.7 2350.1,822.5 	"/>
	<polygon class="st1" points="2552.3,967.1 2562.1,967.4 2561.8,977.1 2556.9,981.9 2552,981.8 	"/>
	<polygon class="st1" points="2569.2,941.5 2578.9,941.8 2585.3,948.4 2585.1,954.9 2578.5,961.3 2568.7,961 	"/>
	<polygon class="st1" points="2282.8,681.1 2295.5,694.4 2294.9,720.4 2304.4,730.4 2310.9,730.5 2327.5,714.7 2350.3,715.2 
		2418.5,786.8 2418,807.9 2431.4,822 2423.9,829.2 2412.6,828.9 2413,811 2381.3,777.7 2368,790.4 2367.8,800.2 2345,799.6 
		2322.8,776.3 2335.8,776.7 2336.2,760.4 2320.3,743.8 2297.6,743.2 2267.4,711.6 2267.9,693.8 	"/>
	<polygon class="st1" points="2030.6,759.6 2053.4,760.2 2062.9,770.1 2098.6,771 2108.1,781 2107.8,794 2075.3,793.2 2059.5,776.5 
		2040,776.1 2030.4,766.1 	"/>
	<polygon class="st1" points="2027.6,749.8 2028.2,723.8 2018.7,713.8 2019.2,694.3 2006.5,681 2006.6,674.5 1955.9,621.3 
		1933.1,620.7 1932.9,630.5 1963,662.1 1962.6,680 1979.3,697.4 1978.8,716.1 2010.9,749.8 	"/>
	<path class="st1" d="M2048.6,685.3l19.5,0.5l-0.5,19.5l9.5,10l13,0.3l4.8,5l17.9,0.4c0,0,8.3-6.3,7.5-7.1s0.2-10.6,0.2-10.6
		l11.2-10.7l0.3-11.8l20.7,0.5l0.2-9.8l-25.4-26.6l13.3-12.7l9.8,0.2l0.2-9.8l-12.7-13.3l-13-0.3l-0.5,19.5l-13-0.3l-18.3,17.4
		l-0.4,14.6l-27.6-0.7l-16.6,15.9L2048.6,685.3z"/>
	<polygon class="st1" points="2177.5,597.3 2184.2,591 2200.4,591.3 2212.1,580.2 2223.4,580.5 2227.4,584.7 2226.7,614.7 
		2221.3,619.9 2209.8,607.8 2200,607.6 2195.3,602.6 2187.2,602.4 2184.7,604.8 2177.4,604.6 	"/>
	<polygon class="st1" points="2151.1,479.6 2164.1,480 2172,488.3 2171.8,496.4 2167.6,500.4 2167.4,512.5 2174.9,520.4 
		2192.4,520.9 2192.2,529.4 2188.8,532.6 2162.8,531.9 2163.1,518.9 2150.5,505.6 	"/>
	<polygon class="st2" points="1056.2,40.6 1067.8,29.5 1079.2,29.8 1075.1,33.7 1075,37.8 1080.1,43.2 1080,47.7 1074.4,53 
		1096,75.7 1095.7,87.1 1101.3,92.9 1100.9,106.7 1077.4,106.1 1065.8,117.2 1047.9,116.8 1043.9,112.6 1049.7,107.1 1064.4,107.4 
		1068.5,103.5 1068.6,99.4 1058.1,99.2 1058.4,82.9 1068.2,83.1 1068.3,76.6 1060.4,68.3 1060.7,57 1055.1,51.1 1055.4,40.6 	"/>
	<polygon class="st2" points="1036.2,62.9 1026.2,72.4 1025.8,88.6 1022.5,91.8 1022.3,98.3 1032.1,98.5 1035.4,95.4 1048.4,95.7 
		1048.8,79.4 1053.8,74.7 1054,63.3 	"/>
	<path class="st1" d="M1500.9,470.4l11.6-11.1l11.8-11.3l22.3,0.5l32.8-31.3l0.6-23.6l14.1-13.5l43.9,1l15.9,16.6l14.3,15l26,0.6
		l-0.8,35.7l12.7,13.3l-0.5,22.7l25.4,26.6l-0.3,13l33.3,34.9l21.1,0.5l4.2-4l10-9.5l2.5-104.8l22.9-21.8l0.6-23.1l38.6,0.9
		c0,0.8-0.8,35.7-0.8,35.7l25.4,26.6l17.5,0.4l-0.4,15l27.3,28.7l18.7,0.5l18.2,19.1l-1.2,50.4l7.9,8.3l-0.9,39l38.1,39.9l13,0.3
		l0.6-26l-38-39.9l0.9-39l41.2,43.2l-0.3,13.4l23.1,0.5l10.4-9.9l0.7-30.1l-34.1-35.8l1-40.6l-30.1-31.6l0.8-32.5l136.5,3.3
		l1.6-68.2l-34.9-36.6l1.5-61.7l-42.2-1l0.4-16.3l29.9-28.5l15.9,16.6l22.7,0.5l-0.7,27.6l17.9,0.4l23.8,25l37.4,0.9l0.7-30.9
		l15-14.3l30.9,0.7l0.7-30.9l-23.8-24.9l1.2-50.4l-30.9-0.7l-58.7-61.6l-16.2-0.4l2.1-87.7l53.6,1.3l-0.8,34.1l17.4,18.3l13,0.3
		l13.3-12.7l0.6-26l44.8-42.7L2258-50.8l-91.2-2.2l-12.5-13.1L2115-67l-15.5-16.2l-52.8-1.3l-43.6-45.7l-151.1-3.6L1807.1-91
		l-52-1.2L1733.9-72l10.7,11.2l-28.4-0.7l-19.8-20.8l-21.1-0.5L1650.3-59l-0.4,15.7l7.1,0.2l12.1,12.7l-18.4-0.4l-10.6-11.1
		l-112.7-2.7l-21,20l-39-0.9l-31.3-0.8l-55.1-57.8l-49.6-1.2l-8.7-9.2l-37.4-0.9l-48.2,46l-32.5-0.8l-56.6,53.9l-0.6,26l19.5,0.5
		l12.3-11.7l11.7,12.3l-0.4,15l14.7,15.4l20.3,0.5l14.1-13.5l0.7-30.9l-14.3-15l16.6-15.9l0.5-20.3l23.6,0.6l10.3,10.8l-0.5,21.1
		l-15,14.3l-0.2,9.8l42.2,1l-0.4,16.2l-43.2,41.2l-32.5-0.8L1211,96.4l-16.2-0.4l0.3-14.6l-34.1-0.8l-11.6,11.1l-9.8-0.2l-43.2,41.2
		l-26.6-0.6l-0.2,10.4c0,0,16.5,16,15.2,16s-0.4,18.2-0.4,18.2l-8.7,8.2l-48.1-1.1l-9.3,8.9l-0.3,14.3l-12,11.4l-0.6,26.6l16.5,17.3
		l33.7,0.8l8.7-8.3l8.9,0.2l12.5-11.9l0.5-21.1l15-14.3l12.6,0.3l0.2-10.1l3.7-3.6c0,0,19.5,1.3,20.3,0.5c0.8-0.8,5.6,5.8,5.6,5.8
		l4.9,0.1l5-4.8l10-9.5l25.4,26.6l9.8,0.2l4.8,5l11.9,12.5l-14.1,13.5l-8.1-0.2l-5,4.8l19,20l6.5,0.2l0.5-19.5l13,0.3l0.3-13
		l8.3-7.9l-20.6-21.6l-13-0.3l0.4-16.2l-17.4-18.3l5-4.8l13,0.3l-0.2,8.9l10.6,0.2l25.4,26.6l19.8,20.8l-0.5,21.1l11.1,11.6
		l-0.2,9.8l9.8,0.2l0.3-13l5-4.8l-15.9-16.6l5-4.8l3.2,3.3l6.5,0.2l3.3-3.2l6.5,0.2l12.7,13.3l-0.7,29.2l15.9,16.6l65,1.5l-0.4,16.2
		l-18.3,17.4l23.8,25l-0.6,26l63.4,66.5l-0.9,39l29.2,0.7l13.2-9.4L1500.9,470.4z"/>
	<path class="st6" d="M1592.8,341.2l-68.2,65l-42.2-1l-63.4-66.5l2.1-88.5l-57.7-1.4l-15.9-16.6l-89.6-94l-125.1-3l-122,116.4
		l10.1,10.6l33.7,0.8l8.7-8.3l8.9,0.2l12.5-11.9l0.5-21.1l15-14.3l12.6,0.3l0.2-10.1l3.7-3.6c0,0,19.5,1.3,20.3,0.5
		c0.8-0.8,5.6,5.8,5.6,5.8l4.9,0.1l5-4.8l10-9.5l25.4,26.6l9.8,0.2l4.8,5l11.9,12.5l-14.1,13.5l-8.1-0.2l-5,4.8l19,20l6.5,0.2
		l0.5-19.5l13,0.3l0.3-13l8.3-7.9L1214,207l-13-0.3l0.4-16.2l-17.4-18.3l5-4.8l13,0.3l-0.2,8.9l10.6,0.2l25.4,26.6l19.8,20.8
		l-0.5,21.1l11.1,11.6l-0.2,9.8l9.8,0.2l0.3-13l5-4.8l-15.9-16.6l5-4.8l3.2,3.3l6.5,0.2l3.3-3.2l6.5,0.2l12.7,13.3l-0.7,29.2
		l15.9,16.6l65,1.5l-0.4,16.2l-18.3,17.4l23.8,25l-0.6,26l63.4,66.5l-0.9,39l29.2,0.7l13.2-9.4l6.3,0l11.6-11.1l11.8-11.3l22.3,0.5
		l32.8-31.3l0.6-23.6l14.1-13.5l43.9,1l15.9,16.6l14.3,15l26,0.6l-0.8,35.7l12.7,13.3l-0.5,22.7l25.4,26.6l-0.3,13l33.3,34.9
		l21.1,0.5l4.2-4l10-9.5l2.1-86.1l-111.8-117.3L1592.8,341.2z"/>
	<path class="st6" d="M1532.5,539.7l-57.8-1.4l-44.4-46.6l-9.8-0.2l-52.3-54.9l1.3-53.6l0.4-16.2L1331,326l-39.8-1l-20.2-21.2
		l-18.3-0.4l-0.5,21.5l-29.2-0.7l-14.3-15l-27.6-0.7l-15.1-15.8l7.5-7.1l0.5-21.1l-79.6-1.9l-20,19l-32.5-0.8l-7.9-8.3l-11.4-0.3
		L993.6,300l-0.8,31.7l-52,49.6l-0.3,14.2l-11,10.5l-0.5,21.7l31.5,0.8l124.8-118.9l60.1,1.4l37.3,39.1l33.3,0.8l17.1,17.9l83.3,2
		l19.6,20.6c0,0-5.9,57.7-1.5,62.3c3.8,3.9,129.2,135.5,168.7,176.9l28-26.7L1532.5,539.7z"/>
	<polygon class="st6" points="628.2,-145.2 627.8,-125.7 637.5,-125.5 662.5,-149.3 673.8,-149 704.8,-116.5 704.6,-107.6 
		714.5,-97.2 713.9,-74.9 695.8,-57.6 696.2,-72 675.3,-72.5 674.9,-56.3 659.9,-42 659.6,-30.7 645,-31 646.8,-105.7 620.8,-106.4 
		606.5,-121.3 607.1,-145.7 	"/>
	<path class="st6" d="M1004.9-193.1c-1.6-1.7-118.1,112.6-118.1,112.6l-48.7-1.2l-33.3,31.7l1.2-48.7l-29.2-0.7L775-27.9l9.5,10
		l29.2,0.7L847-48.9l45.5,1.1l56.6-53.9l32.5,0.8l6.7-6.3l0.5-19.5l-13-0.3l0.2-9.8l10-9.5l9.8,0.2l-0.3,13l9.8,0.2l10-9.5l0.8-32.5
		l9.8,0.2l0.4-17.2C1014.9-192.1,1005.5-192.4,1004.9-193.1z"/>
	<path class="st6" d="M297.7,458.2l-35.7-0.9l0.4-16.2l33.3-31.7l0.2-8l-30.8-0.7l-28.4,27.1l-22.9-0.5L185,397l1.1-45.9l53.6-51.1
		l28.4,0.7l17.5-16.6l17.9,0.4l14.3,15l21.9,0.5l-0.9,36.5l11.9,12.5l1.4-56.9l18.3-17.4l22.7,0.5l116.4-111l32.5,0.8l16.6-15.9
		l1.1-47.1l79.6,1.9L676,69l-17.4-18.3L637,71.3l-82.9-2l-25.8,24.6l-0.9,38.2l-30.1-0.7L385.9,237.6l-43.9-1.1l-20.8,19.8
		l-57.7-1.4l-215.3-5.1l-0.8,0.8l-1.6,66.6l23.8,25l-0.6,26l13.8,0.3l0.9-39.8l-18.2-19.1l0.9-37.4l15-14.3l39,0.9l-2.6,110.5
		l101.8,106.8c25.3-2.9,52-6,78-9.1L297.7,458.2z"/>
</g>
<g id="Layer_3" class="st7">
	<rect x="-51.4" y="-106.2" class="st8" width="2637.5" height="1726"/>
</g>
<g id="Layer_2_1_">
	<polygon class="st9" points="105.3,342.5 89.3,355.6 85.6,392.8 102.3,413.2 98.3,452.8 84.6,451.5 87.2,425.6 65.3,398.9 
		72,332.6 88.9,318.8 75,301.9 83.6,216.2 180.5,136.9 191.8,24.5 167.4,-5.3 72.4,-14.8 126.8,-59.4 187.3,-53.3 235.9,-93.1 
		301.6,-86.5 344.4,-34.3 432.7,-25.5 451.2,-3 521.2,4 530.5,15.3 562.3,18.5 586.9,-1.7 603.3,0 629.8,-21.7 641.3,-20.6 
		640.1,-9.1 613.5,12.7 612,27.3 642.7,30.3 641.4,43.3 586.5,37.8 494,113.5 491.1,142.6 514.4,171 556.4,175.2 560.6,133.2 
		583.2,135.4 585.8,109.6 612.5,87.7 649.7,91.4 659.2,103 657.8,116.7 646.7,125.8 645.4,138.4 661.2,140 684.3,121 698.8,122.5 
		693.5,175.8 712.5,199 673.3,231 594.1,223.1 589.4,270 571.6,284.5 539.3,281.3 414.8,383.2 392.1,380.9 372.6,396.9 366.9,453.5 
		356,440.2 359.6,403.8 337.8,401.6 324.7,385.6 306.9,383.8 288.2,399.1 260,396.3 202.6,443.2 198,488.9 224.4,521.2 247.2,523.4 
		277.6,498.6 308.2,501.7 307.4,509.6 271.9,538.8 270.2,554.9 305.8,558.5 300.3,613.5 319.2,636.6 343.5,639 360.2,659.5 
		362.9,632.8 395.4,606.2 434.6,610.1 459.5,640.6 490,643.6 531.6,694.4 576,698.9 595.3,722.5 590.2,773.1 610.8,775.1 
		635.5,805.3 685.7,810.4 703.9,832.6 719.2,834.1 715.3,873.7 667.3,913 658.4,1002 598.8,1050.7 594.5,1093.6 532.7,1144.2 
		529.6,1175.3 502.3,1197.7 499.2,1227.8 473.1,1249.2 471.9,1261 490.2,1262.8 480.5,1359.8 421.4,1265.7 426.8,1210.8 
		397.7,1207.9 425.2,933 320.4,804.9 333.3,675.5 310,647.1 287.4,644.8 133.1,456.3 144.1,346.3 	"/>
	<path class="st10" d="M318.1,468.2l35.6,3.5l27.7,33.8L376,510l-9.7-1l-26.2-32l-22.6-2.3C317.4,474.7,318.2,467.4,318.1,468.2z"/>
	<polygon class="st10" points="401.5,515.8 391.3,503.3 412.4,505.4 411.2,516.7 	"/>
	
		<rect x="348.7" y="511.2" transform="matrix(9.940470e-02 -0.995 0.995 9.940470e-02 -198.4754 822.6829)" class="st11" width="13" height="19.5"/>
	<polygon class="st9" points="557.7,-33.7 571.9,-45.3 572.9,-55.1 563.2,-56 545.4,-41.5 535.7,-42.4 526,-43.4 512.9,-59.4 
		495.1,-61.2 494,-49.9 501.2,-41 477,-43.4 474.9,-22.4 487.3,-32.6 521.3,-29.2 532.2,-15.8 562.1,-12.8 563.2,-23.4 	"/>
	<polygon class="st9" points="677,-18.5 675.1,0.9 684.8,1.9 711.5,-20 722.8,-18.8 751.2,15.8 750.3,24.7 759.4,35.8 757.1,58.1 
		737.8,73.9 739.2,59.6 718.4,57.5 716.8,73.6 700.8,86.7 699.7,98.1 685.1,96.6 692.5,22.2 666.7,19.6 653.6,3.6 656,-20.6 	"/>
	<polygon class="st9" points="854.9,31.9 832.2,29.6 821.6,38.4 814.5,109.5 823.2,120.2 852.3,123.1 887.9,94 933.2,98.5 993.6,49 
		1026,52.3 1033.1,46.4 1035,27 1022.1,25.7 1023,16 1033.7,7.3 1043.4,8.3 1042.1,21.2 1051.8,22.2 1062.5,13.5 1065.7,-18.9 
		1075.4,-17.9 1078.3,-47 1071.1,-55.9 1033.9,-59.6 1045.4,-69.1 1080.2,-65.6 1069.7,-78.5 1010.2,-84.5 1000.7,-76.6 977,-79 
		974.9,-57.4 968.4,-58 956.7,-72.2 934.1,-74.5 922.5,-88.7 864.2,-94.5 850,-82.9 848.4,-66.7 812.8,-70.3 798.6,-58.6 
		797.6,-48.9 846.1,-44.1 860.7,-26.3 	"/>
	<polygon class="st9" points="996.5,117.9 997.5,108.2 1006.4,100.9 1007.5,89.6 1018.9,90.7 1027.6,101.4 1047,103.4 1057.7,94.6 
		1070.6,95.9 1068.3,118.6 1047,136 1021.1,133.4 1009.5,119.2 	"/>
	<polygon class="st12" points="986.2,450.1 979.8,449.4 974.4,453.8 985.8,454.9 	"/>
	<polygon class="st12" points="978.8,459.1 969.1,458.1 968.1,467.8 962.8,472.2 962.3,477.1 970.4,477.9 970.7,474.6 977.8,468.8 	
		"/>
	<polygon class="st12" points="952,466.2 945.5,465.6 941.9,468.5 944.8,472.1 951.3,472.7 954.9,469.8 	"/>
	<polygon class="st12" points="942.9,458.8 942.6,462 935.5,467.8 935.1,471.1 931.9,470.8 928.3,473.7 925.1,473.3 922.2,469.8 
		925.8,466.9 932.9,461.1 932.9,461.1 939.7,458.5 	"/>
	<polygon class="st12" points="922.8,430.7 926.1,431 929,434.5 928.3,441 925.1,440.7 922.2,437.1 	"/>
	<polygon class="st12" points="923.5,456.9 922.8,463.3 919.3,466.2 916.4,462.7 919.9,459.8 920.3,456.5 	"/>
	<polygon class="st9" points="1059.3,437.8 1052.1,428.9 1040.7,427.7 1009.6,453.2 1006.5,484.7 950.9,530.2 949.5,544.4 
		937.7,554 927.8,653.3 943.3,672.3 939.2,713.2 949.9,726.3 974.7,728.7 994.1,752.4 1059.9,759 1078.3,744 1113.3,747.5 
		1126.2,763.2 1141,764.7 1147.4,772.5 1139.3,854 1165.2,885.7 1153.8,999.2 1188.6,1041.7 1178.9,1138.9 1200.7,1165.5 
		1257.2,1171.1 1354.1,1091.8 1359.6,1036.1 1412.6,992.8 1417.5,943.9 1404.2,927.7 1407.9,890.7 1522.5,796.9 1528.9,732.9 
		1471.4,727.2 1430.6,677.3 1420.9,676.4 1372.9,617.7 1378.2,564.3 1379.8,548.2 1344.2,504.6 1304.6,500.6 1286,478 1267.8,476.1 
		1265.7,497.6 1236.6,494.7 1223.5,478.6 1196,475.9 1182.1,459 1190.1,452.5 1192.2,431.4 1113,423.5 1091.7,441 	"/>
	<path class="st9" d="M1464,932.2l12.9,1.3l7.3,8.9l-9.2,92.2l-13.3,10.9l-15.4-1.5l-4-4.9l4.3-43.3l-14-17.1l2.6-26.5l26.5,2.6
		C1461.7,954.8,1463.3,932.1,1464,932.2z"/>
	<polygon class="st9" points="1508.6,877.8 1515.1,878.5 1520.9,885.6 1520.2,892.1 1513.8,891.4 1505,880.8 	"/>
	
		<rect x="1495.9" y="870.5" transform="matrix(9.940470e-02 -0.995 0.995 9.940470e-02 480.6458 2278.6501)" class="st13" width="6.5" height="6.5"/>
	<polygon class="st9" points="1526.1,866.5 1531.4,862.2 1535.8,867.5 1535.4,870.7 1541.9,871.4 1541.2,877.8 1531.6,876.9 
		1524.3,868 	"/>
	<polygon class="st9" points="2208.2,1427.9 2169.4,1424 2167.8,1440.2 2189.6,1466.8 2205.6,1453.7 	"/>
	<polygon class="st9" points="2441.7,1379.3 2448.1,1380 2445.9,1402.6 2464.8,1425.7 2464.3,1430.6 2417.2,1469.2 2406.3,1455.8 
		2418.7,1445.6 2414.4,1440.3 2437.5,1421.4 	"/>
	<polygon class="st9" points="2384.8,1458.6 2399.3,1476.4 2381.5,1490.9 2362.1,1489 2314.1,1528.3 2293.1,1526.2 2294.2,1514.9 
		2319.1,1494.5 2338.5,1496.4 	"/>
	<polygon class="st9" points="2344.9,1105.1 2336.2,1192.4 2353.7,1213.8 2349.8,1252.6 2361.4,1266.8 2359.2,1289.4 2224,1400.1 
		2188.4,1396.5 2165.2,1368.1 2166.8,1351.9 2186.3,1335.9 2177.6,1325.2 2166.3,1324.1 2152.9,1335 2142.4,1333.9 2145.7,1300.8 
		2129.6,1299.2 2120.8,1288.5 2088.5,1285.3 2058.3,1310 1995.2,1303.7 1987.2,1293.9 1990,1265.6 2005.6,1252.9 2012.6,1183 
		2055.9,1147.5 2092.1,1151.1 2123.8,1125.2 2150,1127.8 2174.7,1107.5 2197.5,1109.8 2236.5,1077.9 2268.9,1081.1 2267,1100.6 
		2251,1113.7 2284.5,1154.6 2300.5,1141.5 2302.9,1117.2 2321.6,1101.9 2324.1,1076.9 	"/>
	<polygon class="st9" points="2514.7,1236.4 2524.4,1237.3 2523.5,1247.1 2518.1,1251.4 2513.3,1250.9 	"/>
	<polygon class="st9" points="2533.5,1212.1 2543.2,1213.1 2549,1220.2 2548.4,1226.7 2541.3,1232.5 2531.6,1231.5 	"/>
	<polygon class="st9" points="2267.6,930.8 2279.3,945 2276.7,970.9 2285.4,981.6 2291.9,982.2 2309.7,967.7 2332.3,969.9 
		2394.9,1046.4 2392.8,1067.4 2405.2,1082.5 2397.2,1089.1 2385.9,1087.9 2387.6,1070.2 2358.5,1034.6 2344.3,1046.2 2343.3,1055.9 
		2320.7,1053.7 2300.3,1028.8 2313.2,1030.1 2314.9,1013.9 2300.3,996.1 2277.7,993.9 2250,960.1 2251.8,942.3 	"/>
	<polygon class="st9" points="2010.2,990 2032.8,992.3 2041.6,1002.9 2077.1,1006.5 2085.9,1017.2 2084.6,1030.1 2052.2,1026.9 
		2037.7,1009.1 2018.3,1007.2 2009.6,996.5 	"/>
	<polygon class="st9" points="2007.9,980 2010.5,954.1 2001.8,943.4 2003.7,924 1992.1,909.8 1992.7,903.3 1946.2,846.4 
		1923.5,844.2 1922.5,853.9 1950.2,887.7 1948.4,905.5 1963.7,924.1 1961.8,942.7 1991.3,978.7 	"/>
	<path class="st9" d="M2033.8,917.2l19.4,1.9l-1.9,19.4l8.7,10.7l12.9,1.3l4.4,5.3l17.8,1.8c0,0,8.7-5.7,8-6.5s1.1-10.5,1.1-10.5
		l12-9.8l1.2-11.7l20.6,2.1l1-9.7l-23.3-28.5l14.2-11.6l9.7,1l1-9.7l-11.6-14.2l-12.9-1.3l-1.9,19.4l-12.9-1.3l-19.6,16l-1.4,14.5
		l-27.5-2.8l-17.8,14.6L2033.8,917.2z"/>
	<polygon class="st9" points="2169,839.3 2176.1,833.5 2192.3,835.1 2204.7,824.9 2216,826 2219.7,830.5 2216.7,860.4 2210.9,865.1 
		2200.3,852.2 2190.6,851.2 2186.3,845.9 2178.2,845.1 2175.5,847.3 2168.2,846.6 	"/>
	<polygon class="st9" points="2151.5,720 2164.4,721.2 2171.7,730.1 2170.9,738.2 2166.4,741.9 2165.2,754 2172.2,762.4 
		2189.5,764.2 2188.7,772.7 2185.1,775.6 2159.3,773 2160.6,760 2148.9,745.8 	"/>
	<polygon class="st10" points="1092.9,199.4 1105.4,189.2 1116.7,190.3 1112.2,194 1111.8,198 1116.6,203.8 1116.1,208.3 
		1110.1,213.2 1130,237.4 1128.8,248.7 1133.9,254.9 1132.6,268.7 1109.1,266.3 1096.7,276.5 1078.9,274.8 1075.2,270.3 
		1081.5,265.2 1096,266.7 1100.5,263 1100.9,259 1090.3,257.9 1092,241.8 1101.7,242.7 1102.3,236.3 1095,227.4 1096.2,216.1 
		1091.1,209.8 1092.1,199.3 	"/>
	<polygon class="st10" points="1071.3,220.1 1060.6,228.8 1059,245 1055.4,247.9 1054.8,254.4 1064.5,255.4 1068,252.4 1081,253.7 
		1082.6,237.6 1087.9,233.2 1089.1,221.9 	"/>
	<path class="st9" d="M1503.8,661.6l12.4-10.2L1529,641l22.2,2.2l35.1-28.8l2.3-23.5l15.1-12.4l43.7,4.4l14.6,17.8l13.1,16l25.9,2.6
		l-3.6,35.6l11.6,14.2l-2.3,22.6l23.3,28.5l-1.3,12.9l30.6,37.3l21,2.1l4.4-3.6l10.7-8.7l10.4-104.3l24.4-20l2.3-23l38.4,3.8
		c-0.1,0.8-3.6,35.6-3.6,35.6l23.3,28.5l17.4,1.7l-1.5,15l25.1,30.7l18.6,1.9l16.7,20.5l-5,50.1l7.3,8.9l-3.9,38.8l34.9,42.7
		l12.9,1.3l2.6-25.9l-34.9-42.7l3.9-38.8l37.8,46.2l-1.3,13.3l23,2.3l11.1-9.1l3-29.9l-31.3-38.2l4-40.4l-27.7-33.8l3.2-32.3
		l135.8,13.6l6.8-67.9l-32-39.1l6.1-61.4l-42-4.2l1.6-16.2l32-26.2l14.6,17.8l22.6,2.3l-2.8,27.5l17.8,1.8l21.8,26.7l37.2,3.7
		l3.1-30.7l16-13.1l30.7,3.1l3.1-30.7l-21.8-26.7l5-50.1l-30.7-3.1l-53.9-65.8l-16.2-1.6l8.7-87.3l53.4,5.3l-3.4,34l16,19.6
		l12.9,1.3l14.2-11.6l2.6-25.9l47.9-39.2l-15.9-19.4l-90.8-9.1l-11.5-14l-39.2-3.9l-14.2-17.3l-52.6-5.2l-40-48.9l-150.4-15
		l-48,39.3l-51.8-5.2l-22.7,18.6l9.8,12l-28.3-2.8l-18.2-22.2l-21-2.1l-26.7,21.8l-1.6,15.6l7,0.7l11.1,13.6l-18.3-1.8l-9.7-11.9
		L1569.2,150l-22.4,18.4l-38.8-3.9l-31.1-3.1l-50.6-61.8l-49.3-4.9l-8-9.8l-37.2-3.7l-51.6,42.2l-32.3-3.2l-60.5,49.5l-2.6,25.9
		l19.4,1.9l13.1-10.7l10.7,13.1l-1.5,15l13.5,16.4l20.2,2l15.1-12.4l3.1-30.7l-13.1-16l17.8-14.6l2-20.2l23.4,2.3l9.5,11.6l-2.1,21
		l-16,13.1l-1,9.7l42,4.2l-1.6,16.2l-46.2,37.8l-32.3-3.2l-17.8,14.5l-16.2-1.6l1.4-14.6l-34-3.4l-12.4,10.2l-9.7-1l-46.2,37.8
		l-26.5-2.6l-1,10.4c0,0,15.3,17.2,14,17.1c-1.3-0.1-1.8,18.1-1.8,18.1l-9.2,7.6l-47.8-4.8l-9.9,8.1l-1.4,14.2l-12.8,10.5l-2.6,26.5
		l15.1,18.5l33.6,3.4l9.3-7.6l8.9,0.9l13.3-10.9l2.1-21l16-13.1l12.5,1.2l1-10.1l4-3.3c0,0,19.3,2.8,20.2,2s5.1,6.2,5.1,6.2l4.8,0.5
		l5.3-4.4l10.7-8.7l23.3,28.5l9.7,1l4.4,5.3l10.9,13.3l-15.1,12.4l-8.1-0.8l-5.3,4.4l17.5,21.3l6.5,0.6l1.9-19.4l12.9,1.3l1.3-12.9
		l8.9-7.3l-18.9-23.1l-12.9-1.3l1.6-16.2l-16-19.6l5.3-4.4l12.9,1.3l-0.9,8.9l10.5,1l23.3,28.5l18.2,22.2l-2.1,21l10.2,12.5l-1,9.7
		l9.7,1l1.3-12.9l5.3-4.4l-14.6-17.8l5.3-4.4l2.9,3.6l6.5,0.6l3.6-2.9l6.5,0.6l11.6,14.2l-2.9,29.1l14.6,17.8l64.7,6.5l-1.6,16.2
		l-19.6,16l21.8,26.7l-2.6,25.9l58.2,71.1l-3.9,38.8l29.1,2.9l13.9-8.4L1503.8,661.6z"/>
	<path class="st14" d="M1605.3,539.7l-72.9,59.7l-42-4.2l-58.2-71.1l8.8-88.1l-57.4-5.7l-14.6-17.8l-82.2-100.5l-107.5-5
		l-130.5,106.8l-4.8,4l30.6,3.2l9.3-7.6l8.9,0.9l13.3-10.9l2.1-21l16-13.1l12.5,1.2l1-10.1l4-3.3c0,0,19.3,2.8,20.2,2
		s5.1,6.2,5.1,6.2l4.8,0.5l5.3-4.4l10.7-8.7l23.3,28.5l9.7,1l4.4,5.3l10.9,13.3l-15.1,12.4l-8.1-0.8l-5.3,4.4l17.5,21.3l6.5,0.6
		l1.9-19.4l12.9,1.3l1.3-12.9l8.9-7.3l-18.9-23.1l-12.9-1.3l1.6-16.2l-16-19.6l5.3-4.4l12.9,1.3l-0.9,8.9l10.5,1l23.3,28.5
		l18.2,22.2l-2.1,21l10.2,12.5l-1,9.7l9.7,1l1.3-12.9l5.3-4.4l-14.6-17.8l5.3-4.4l2.9,3.6l6.5,0.6l3.6-2.9l6.5,0.6l11.6,14.2
		l-2.9,29.1l14.6,17.8l64.7,6.5l-1.6,16.2l-19.6,16l21.8,26.7l-2.6,25.9l58.2,71.1l-3.9,38.8l29.1,2.9l13.9-8.4l6.3,0.4l12.4-10.2
		l12.7-10.4l22.2,2.2l35.1-28.8l2.3-23.5l15.1-12.4l43.7,4.4l14.6,17.8l13.1,16l25.9,2.6l-3.6,35.6l11.6,14.2l-2.3,22.6l23.3,28.5
		l-1.3,12.9l30.6,37.3l21,2.1l4.4-3.6l10.7-8.7l8.6-85.7l-102.6-125.4L1605.3,539.7z"/>
	<path class="st14" d="M1530.1,733.1l-57.5-5.7l-40.8-49.8l-9.7-1l-48-58.7l5.3-53.4l1.6-16.2l-35.7-43.6l-39.6-4l-18.6-22.7
		l-18.2-1.8l-2.1,21.4l-29.1-2.9l-13.1-16l-27.5-2.8l-13.8-16.9l8-6.5l2.1-21l-79.2-7.9l-21.3,17.5l-32.3-3.2l-7.3-8.9l-11.3-1.1
		l-31.1,25.5l-3.2,31.5l-55.6,45.5l-1.4,14.2l-11.8,9.6l-2.2,21.6l31.3,3.1l133.4-109.2l59.8,6l34.2,41.8l33.2,3.3l15.7,19.1
		l82.9,8.3l18,22c0,0-10.3,57-6.2,62c3.4,4.2,118.6,144.9,154.8,189.2l29.9-24.5L1530.1,733.1z"/>
	<polygon class="st14" points="678.2,-18.2 676.3,1.2 686,2.2 712.7,-19.7 724,-18.5 752.4,16.2 751.5,25 760.6,36.2 758.4,58.4 
		739,74.2 740.5,59.9 719.7,57.8 718,74 702,87.1 700.9,98.4 686.3,96.9 693.8,22.6 667.9,20 654.8,4 657.2,-20.3 	"/>
	<path class="st14" d="M1057.4-37.5C1056-39.3,931.2,65.9,931.2,65.9L882.6,61l-66.9,48.8l8.7,10.7l29.1,2.9l35.6-29.1l45.3,4.5
		l60.5-49.5l32.3,3.2l7.1-5.8l1.9-19.4l-12.9-1.3l1-9.7l10.7-8.7l9.7,1l-1.3,12.9l9.7,1l10.7-8.7l3.2-32.3l9.7,1l1.7-17.1
		C1067.3-35.7,1058-36.8,1057.4-37.5z"/>
	<path class="st14" d="M305.1,558.5l-35.6-3.5l1.6-16.2l35.6-29.1l0.8-8l-30.6-3.1l-30.4,24.8l-22.8-2.3l-26.4-32.2l4.6-45.7
		l57.4-46.9l28.3,2.8l18.7-15.3l17.8,1.8l13.1,16l21.8,2.2l-3.6,36.4l10.9,13.3l5.6-56.6l19.6-16l22.6,2.3l124.5-101.9l32.3,3.2
		l17.8-14.6l4.7-46.9l79.2,7.9l39.1-32l-9.9-12.5l-27.3,22.9l-82.5-8.2l-27.6,22.6l-1.2,26.5l-34.6-2.5l-119.2,97.5l-43.7-4.4
		L343.8,359l-57.4-5.7L72.1,331.9l-0.9,0.7l-6.6,66.3l21.8,26.7l-2.6,25.9l13.7,1.4l4-39.6l-16.7-20.4l3.7-37.2l16-13.1l38.8,3.9
		l-11,110l93.4,114.1c25.4-1,52.3-2.1,78.4-3.2L305.1,558.5z"/>
</g>
</svg>
