<?xml version="1.0" encoding="utf-8"?>
<!-- Generator: Adobe Illustrator 25.0.0, SVG Export Plug-In . SVG Version: 6.00 Build 0)  -->
<svg version="1.1" id="Layer_1" xmlns="http://www.w3.org/2000/svg" xmlns:xlink="http://www.w3.org/1999/xlink" x="0px" y="0px"
	 viewBox="0 0 1920 756" style="enable-background:new 0 0 1920 756;" xml:space="preserve">
<style type="text/css">
	.st0{display:none;}
	.st1{display:inline;fill:none;stroke:#3366FF;stroke-width:2;stroke-miterlimit:10;}
	.st2{display:inline;fill:none;stroke:#3366FF;stroke-width:1.5;stroke-miterlimit:10;}
	.st3{display:inline;fill:none;stroke:#3366FF;stroke-width:1.5;stroke-miterlimit:9.9999;}
	.st4{display:inline;fill:none;stroke:#3366FF;stroke-miterlimit:10;}
	.st5{display:inline;fill:none;stroke:#3366FF;stroke-width:2;stroke-miterlimit:9.9999;}
	.st6{display:inline;fill:#3366FF;stroke:#3366FF;stroke-width:2;stroke-miterlimit:10;}
	.st7{opacity:0.4;}
	.st8{opacity:0.5;fill:#333333;enable-background:new    ;}
	.st9{fill:none;stroke:#3366FF;stroke-width:2;stroke-miterlimit:10;}
	.st10{fill:none;stroke:#3366FF;stroke-width:1.5;stroke-miterlimit:10;}
	.st11{fill:none;stroke:#3366FF;stroke-width:1.4999;stroke-miterlimit:9.9995;}
	.st12{fill:none;stroke:#3366FF;stroke-miterlimit:10;}
	.st13{fill:none;stroke:#3366FF;stroke-width:1.9999;stroke-miterlimit:9.9995;}
	.st14{fill:#3366FF;stroke:#3366FF;stroke-width:2;stroke-miterlimit:10;}
</style>
<g id="Layer_1_1_" class="st0">
	<polygon class="st1" points="82.18,257.89 67.21,272.16 66.32,309.53 84.56,328.66 83.6,368.46 69.8,368.13 70.42,342.14 
		46.63,317.19 48.22,250.58 64.02,235.51 48.96,219.71 51.02,133.61 141.67,47.18 144.37,-65.73 117.81,-93.59 22.36,-95.87 
		73.31,-144.44 134.03,-142.99 179.46,-186.3 245.56,-184.72 292.09,-135.91 380.89,-133.79 400.98,-112.71 471.38,-111.03 
		481.42,-100.49 513.37,-99.72 536.38,-121.66 552.9,-121.26 577.71,-144.92 589.22,-144.64 588.94,-133.13 563.99,-109.35 
		563.64,-94.72 594.51,-93.99 594.2,-80.99 538.96,-82.31 452.46,0.15 451.77,29.39 477.14,56.01 519.38,57.02 520.39,14.78 
		543.13,15.32 543.75,-10.67 568.71,-34.46 606.07,-33.57 616.38,-22.75 616.05,-8.94 605.65,0.97 605.35,13.56 621.19,13.94 
		642.82,-6.68 657.44,-6.33 656.16,47.28 676.77,68.91 640.18,103.8 560.57,101.89 559.44,149.01 542.81,164.86 510.32,164.09 
		393.88,275.09 371.13,274.55 352.83,291.99 351.48,348.86 339.58,336.38 340.46,299.83 318.52,299.3 304.25,284.33 286.38,283.9 
		268.91,300.56 240.48,299.88 186.84,351.02 185.74,396.91 214.48,427.06 237.43,427.61 265.81,400.55 296.58,401.29 296.39,409.31 
		263.12,441.03 262.73,457.27 298.47,458.13 297.15,513.36 317.77,534.99 342.14,535.57 360.37,554.7 361.01,527.89 391.37,498.95 
		430.77,499.89 457.93,528.38 488.59,529.11 533.89,576.63 578.46,577.69 599.52,599.78 598.31,650.6 618.97,651.1 645.93,679.38 
		696.29,680.58 716.11,701.37 731.55,701.74 730.6,741.54 685.68,784.36 683.55,873.71 627.82,926.84 626.8,969.89 568.99,1025 
		568.24,1056.27 542.67,1080.65 541.95,1110.91 517.51,1134.2 517.23,1146.08 535.61,1146.52 533.28,1244 467.14,1154.64 
		468.46,1099.4 439.22,1098.7 445.82,822.52 331.64,702.75 334.75,572.78 309.37,546.17 286.63,545.62 118.53,369.3 121.17,258.82 	
		"/>
	<path class="st2" d="M303.9,367.23l35.74,0.85l30.13,31.61l-4.99,4.76l-9.75-0.23l-28.54-29.94l-22.74-0.54
		C303.74,373.72,303.92,366.39,303.9,367.23z"/>
	<polygon class="st2" points="390.69,408.31 379.59,396.67 400.71,397.17 400.44,408.55 	"/>
	
		<rect x="338.47" y="407.23" transform="matrix(0.0239 -0.9997 0.9997 0.0239 -80.1448 751.8854)" class="st3" width="13" height="19.5"/>
	<polygon class="st1" points="504.85,-151.4 518.16,-164.08 518.39,-173.83 508.64,-174.07 492.01,-158.21 482.26,-158.44 
		472.51,-158.67 458.24,-173.64 440.37,-174.07 440.1,-162.7 448.03,-154.38 423.66,-154.96 423.16,-133.84 434.8,-144.94 
		468.92,-144.13 480.81,-131.65 510.87,-130.94 511.12,-141.5 	"/>
	<polygon class="st1" points="625,-145.28 624.53,-125.78 634.28,-125.55 659.23,-149.33 670.6,-149.06 701.53,-116.63 
		701.31,-107.69 711.22,-97.29 710.69,-74.96 692.6,-57.71 692.94,-72.13 672.03,-72.63 671.64,-56.38 656.67,-42.11 656.4,-30.74 
		641.77,-31.09 643.56,-105.82 617.57,-106.44 603.29,-121.41 603.88,-145.78 	"/>
	<polygon class="st1" points="806.18,-108.44 783.43,-108.98 773.45,-99.46 771.74,-27.98 781.26,-18 810.5,-17.3 843.77,-49.02 
		889.26,-47.93 945.82,-101.85 978.31,-101.07 984.96,-107.41 985.43,-126.91 972.43,-127.22 972.66,-136.97 982.65,-146.48 
		992.39,-146.25 992.08,-133.25 1001.83,-133.02 1011.81,-142.54 1012.59,-175.03 1022.33,-174.79 1023.03,-204.04 1015.1,-212.36 
		977.74,-213.25 988.55,-223.56 1023.48,-222.72 1011.98,-234.78 952.28,-236.21 943.34,-227.68 919.58,-228.25 919.06,-206.52 
		912.56,-206.68 899.87,-219.99 877.13,-220.53 864.44,-233.84 805.96,-235.23 792.65,-222.55 792.26,-206.3 756.52,-207.16 
		743.21,-194.47 742.98,-184.72 791.72,-183.56 807.57,-166.92 	"/>
	<polygon class="st1" points="953.93,-33.38 954.17,-43.13 962.48,-51.06 962.76,-62.43 974.13,-62.16 983.64,-52.18 
		1003.14,-51.71 1013.12,-61.23 1026.12,-60.92 1025.57,-38.17 1005.61,-19.14 979.62,-19.76 966.93,-33.07 	"/>
	<polygon class="st4" points="968.76,298.58 962.26,298.43 957.27,303.19 968.64,303.46 	"/>
	<polygon class="st4" points="962.03,308.18 952.28,307.94 952.05,317.69 947.06,322.45 946.94,327.32 955.06,327.52 955.14,324.27 
		961.79,317.92 	"/>
	<polygon class="st4" points="935.8,317.3 929.3,317.15 925.98,320.32 929.15,323.65 935.65,323.8 938.97,320.63 	"/>
	<polygon class="st4" points="926.21,310.57 926.13,313.82 919.48,320.16 919.4,323.41 916.15,323.34 912.82,326.51 909.57,326.43 
		906.4,323.1 909.73,319.93 916.38,313.59 916.38,313.59 922.96,310.49 	"/>
	<polygon class="st4" points="904.08,284.03 907.33,284.11 910.51,287.44 910.35,293.94 907.1,293.86 903.93,290.53 	"/>
	<polygon class="st4" points="906.71,310.11 906.56,316.6 903.23,319.78 900.06,316.45 903.39,313.28 903.46,310.03 	"/>
	<polygon class="st1" points="1040.71,280.8 1032.78,272.48 1021.41,272.21 992.3,299.96 991.54,331.64 939.56,381.2 939.22,395.41 
		928.2,405.92 925.81,505.63 942.76,523.41 941.78,564.53 953.43,576.75 978.35,577.34 999.49,599.51 1065.57,601.09 1082.76,584.7 
		1117.95,585.54 1131.96,600.23 1146.85,600.59 1153.86,607.93 1151.9,689.84 1180.11,719.44 1177.39,833.5 1215.28,873.25 
		1212.95,970.89 1236.65,995.76 1293.43,997.12 1384.05,910.73 1385.38,854.72 1434.89,807.53 1436.07,758.4 1421.61,743.23 
		1422.5,706.06 1529.69,603.87 1531.22,539.6 1473.45,538.22 1429.05,491.64 1419.3,491.41 1366.97,436.52 1368.25,382.91 
		1368.64,366.66 1329.79,325.91 1289.99,324.95 1269.77,303.75 1251.49,303.31 1250.98,324.83 1221.73,324.14 1207.46,309.17 
		1179.84,308.51 1164.78,292.7 1172.26,285.57 1172.77,264.45 1093.16,262.54 1073.2,281.57 	"/>
	<path class="st1" d="M1481.56,743.23l13,0.31l7.93,8.32l-2.21,92.6l-12.48,11.89l-15.43-0.37l-4.36-4.57l1.04-43.46l-15.26-16.01
		l0.64-26.6l26.6,0.64C1481.02,765.98,1480.93,743.22,1481.56,743.23z"/>
	<polygon class="st1" points="1521.95,685.68 1528.45,685.83 1534.79,692.49 1534.63,698.99 1528.14,698.83 1518.62,688.85 	"/>
	
		<rect x="1509.04" y="678.97" transform="matrix(0.0239 -0.9997 0.9997 0.0239 794.1145 2177.7761)" class="st5" width="6.5" height="6.5"/>
	<polygon class="st1" points="1538.51,673.07 1543.5,668.31 1548.25,673.3 1548.18,676.55 1554.67,676.71 1554.52,683.21 
		1544.77,682.97 1536.84,674.66 	"/>
	<polygon class="st1" points="2261.11,1181.25 2222.12,1180.32 2221.73,1196.57 2245.52,1221.52 2260.49,1207.25 	"/>
	<polygon class="st1" points="2490.26,1115.2 2496.76,1115.36 2496.22,1138.1 2516.83,1159.73 2516.72,1164.6 2472.64,1206.63 
		2460.74,1194.15 2472.39,1183.05 2467.63,1178.06 2489.25,1157.44 	"/>
	<polygon class="st1" points="2439.51,1198.52 2455.36,1215.15 2438.73,1231.01 2419.23,1230.55 2374.32,1273.36 2353.2,1272.86 
		2353.47,1261.49 2376.76,1239.28 2396.26,1239.75 	"/>
	<polygon class="st1" points="2373.08,849.07 2370.99,936.79 2390.01,956.76 2389.08,995.75 2401.77,1009.05 2401.23,1031.8 
		2274.8,1152.32 2239.06,1151.47 2213.69,1124.85 2214.08,1108.6 2232.38,1091.16 2222.86,1081.18 2211.49,1080.91 2199.01,1092.8 
		2188.45,1092.55 2189.25,1059.24 2173,1058.86 2163.49,1048.88 2131,1048.1 2102.72,1075.06 2039.36,1073.54 2030.64,1064.39 
		2031.31,1035.96 2045.87,1022.09 2047.55,951.82 2088.09,913.17 2124.45,914.04 2154.08,885.79 2180.37,886.42 2203.51,864.37 
		2226.4,864.91 2262.92,830.1 2295.49,830.88 2295.02,850.45 2280.05,864.72 2316.52,902.98 2331.5,888.71 2332.08,864.34 
		2349.54,847.69 2350.15,822.51 	"/>
	<polygon class="st1" points="2552.32,967.14 2562.07,967.37 2561.84,977.12 2556.85,981.87 2551.97,981.76 	"/>
	<polygon class="st1" points="2569.19,941.53 2578.94,941.76 2585.28,948.42 2585.12,954.92 2578.47,961.26 2568.72,961.03 	"/>
	<polygon class="st1" points="2282.81,681.1 2295.5,694.41 2294.88,720.4 2304.39,730.38 2310.89,730.54 2327.53,714.68 
		2350.27,715.23 2418.46,786.75 2417.96,807.87 2431.43,822.01 2423.95,829.15 2412.58,828.88 2413,811.01 2381.29,777.74 
		2367.98,790.42 2367.75,800.17 2345,799.63 2322.8,776.34 2335.8,776.65 2336.19,760.4 2320.33,743.77 2297.58,743.23 
		2267.45,711.62 2267.88,693.75 	"/>
	<polygon class="st1" points="2030.6,759.6 2053.35,760.15 2062.86,770.13 2098.6,770.98 2108.12,780.96 2107.81,793.96 
		2075.32,793.18 2059.46,776.55 2039.96,776.08 2030.45,766.1 	"/>
	<polygon class="st1" points="2027.59,749.78 2028.21,723.78 2018.69,713.8 2019.16,694.31 2006.47,681 2006.63,674.5 
		1955.88,621.27 1933.14,620.73 1932.91,630.48 1963.04,662.08 1962.61,679.95 1979.26,697.42 1978.81,716.1 2010.93,749.79 	"/>
	<path class="st1" d="M2048.64,685.26l19.5,0.47l-0.47,19.5l9.51,9.98l13,0.31l4.76,4.99l17.87,0.43c0,0,8.28-6.3,7.49-7.14
		s0.25-10.56,0.25-10.56l11.23-10.7l0.28-11.78l20.71,0.49l0.23-9.75l-25.37-26.62l13.31-12.69l9.75,0.23l0.23-9.75l-12.69-13.31
		l-13-0.31l-0.47,19.5l-13-0.31l-18.3,17.44l-0.35,14.62l-27.62-0.66l-16.63,15.86L2048.64,685.26z"/>
	<polygon class="st1" points="2177.53,597.31 2184.18,590.97 2200.43,591.35 2212.07,580.25 2223.45,580.53 2227.41,584.68 
		2226.69,614.74 2221.29,619.89 2209.79,607.83 2200.04,607.6 2195.28,602.61 2187.16,602.42 2184.67,604.79 2177.35,604.62 	"/>
	<polygon class="st1" points="2151.08,479.64 2164.08,479.95 2172.01,488.27 2171.81,496.39 2167.65,500.35 2167.36,512.54 
		2174.9,520.44 2192.36,520.86 2192.16,529.39 2188.83,532.56 2162.84,531.94 2163.15,518.94 2150.46,505.63 	"/>
	<polygon class="st2" points="1056.2,40.59 1067.85,29.49 1079.22,29.76 1075.06,33.72 1074.96,37.78 1080.12,43.19 1080.01,47.66 
		1074.4,53.01 1096,75.67 1095.73,87.05 1101.28,92.87 1100.95,106.68 1077.39,106.11 1065.75,117.22 1047.88,116.79 
		1043.91,112.63 1049.74,107.08 1064.36,107.43 1068.52,103.46 1068.61,99.4 1058.05,99.15 1058.44,82.9 1068.19,83.14 
		1068.34,76.64 1060.42,68.32 1060.69,56.95 1055.14,51.13 1055.39,40.57 	"/>
	<polygon class="st2" points="1036.16,62.87 1026.18,72.38 1025.79,88.63 1022.47,91.8 1022.31,98.3 1032.06,98.53 1035.39,95.36 
		1048.38,95.67 1048.77,79.42 1053.76,74.66 1054.03,63.29 	"/>
	<path class="st1" d="M1500.88,470.4l11.64-11.1l11.85-11.3l22.34,0.53l32.85-31.32l0.56-23.56l14.14-13.48l43.86,1.05l15.86,16.63
		l14.27,14.97l25.99,0.62l-0.85,35.74l12.69,13.31l-0.54,22.74l25.37,26.62l-0.31,13l33.3,34.93l21.12,0.5l4.16-3.96l9.98-9.51
		l2.5-104.79l22.87-21.8l0.55-23.15l38.58,0.92c-0.02,0.8-0.85,35.74-0.85,35.74l25.37,26.62l17.46,0.42l-0.36,15.03l27.35,28.69
		l18.68,0.45l18.24,19.13l-1.2,50.36l7.93,8.32l-0.93,38.99l38.06,39.92l13,0.31l0.62-25.99L1989,596.06l0.93-38.99l41.23,43.25
		l-0.32,13.4l23.15,0.55l10.4-9.91l0.72-30.06l-34.09-35.76l0.97-40.62l-30.13-31.61l0.78-32.49l136.47,3.26l1.63-68.23l-34.89-36.6
		l1.48-61.74l-42.24-1.01l0.39-16.25l29.94-28.54l15.86,16.63l22.74,0.54l-0.66,27.62l17.87,0.43L2175,294.9l37.37,0.89l0.74-30.87
		l14.97-14.27l30.87,0.74l0.74-30.87l-23.79-24.95l1.2-50.36l-30.87-0.74l-58.67-61.55l-16.25-0.39l2.1-87.73l53.61,1.28
		l-0.82,34.12l17.44,18.3l13,0.31l13.31-12.69l0.62-25.99l44.81-42.72l-17.34-18.19l-91.18-2.18l-12.49-13.1l-39.4-0.94
		l-15.46-16.22l-52.8-1.26l-43.61-45.74l-151.09-3.61l-44.91,42.82l-51.99-1.24l-21.21,20.22l10.7,11.23l-28.43-0.68l-19.82-20.79
		l-21.12-0.5l-24.95,23.79l-0.37,15.69l7.06,0.17l12.14,12.74l-18.38-0.44l-10.6-11.12l-112.71-2.69l-21,20.02l-38.99-0.93
		l-31.27-0.75l-55.11-57.8l-49.55-1.18l-8.72-9.15l-37.37-0.89l-48.24,45.99l-32.49-0.78l-56.56,53.92l-0.62,25.99l19.5,0.47
		l12.27-11.7l11.7,12.27l-0.36,15.03l14.67,15.39l20.31,0.49l14.14-13.48l0.74-30.87L1226.2,2.44l16.63-15.86l0.49-20.31l23.56,0.56
		l10.31,10.81l-0.5,21.12l-14.97,14.27l-0.23,9.75l42.24,1.01l-0.39,16.25l-43.25,41.23l-32.49-0.78l-16.63,15.86l-16.25-0.39
		l0.35-14.62l-34.12-0.82l-11.64,11.1l-9.75-0.23l-43.25,41.23l-26.64-0.64l-0.25,10.4c0,0,16.52,16,15.23,15.97
		s-0.43,18.2-0.43,18.2l-8.66,8.25l-48.08-1.15l-9.3,8.87l-0.34,14.32l-11.96,11.4l-0.64,26.6l16.45,17.26l33.71,0.81l8.73-8.33
		l8.94,0.21l12.48-11.89l0.5-21.12l14.97-14.27l12.59,0.3l0.24-10.15l3.74-3.57c0,0,19.48,1.28,20.31,0.49
		c0.83-0.79,5.55,5.82,5.55,5.82l4.87,0.12l4.99-4.76l9.98-9.51l25.37,26.62l9.75,0.23l4.76,4.99l11.89,12.48l-14.14,13.48
		l-8.12-0.19l-4.99,4.76l19.03,19.96l6.5,0.16l0.47-19.5l13,0.31l0.31-13l8.32-7.93L1214.82,207l-13-0.31l0.39-16.25l-17.44-18.3
		l4.99-4.76l13,0.31l-0.21,8.94l10.56,0.25l25.37,26.62l19.82,20.79l-0.5,21.12l11.1,11.64l-0.23,9.75l9.75,0.23l0.31-13l4.99-4.76
		l-15.86-16.63l4.99-4.76l3.17,3.33l6.5,0.16l3.33-3.17l6.5,0.16l12.69,13.31l-0.7,29.24l15.86,16.63l64.98,1.55l-0.39,16.25
		l-18.3,17.44l23.79,24.95l-0.62,25.99l63.43,66.54l-0.93,38.99l29.24,0.7l13.23-9.44L1500.88,470.4z"/>
	<path class="st6" d="M1592.83,341.23l-68.2,65.02l-42.24-1.01l-63.43-66.54l2.12-88.54l-57.67-1.38l-15.86-16.63l-89.6-93.98
		l-125.1-2.99L1010.8,251.54l10.11,10.6l33.71,0.81l8.73-8.33l8.94,0.21l12.48-11.89l0.5-21.12l14.97-14.27l12.59,0.3l0.24-10.15
		l3.74-3.57c0,0,19.48,1.28,20.31,0.49c0.83-0.79,5.55,5.82,5.55,5.82l4.87,0.12l4.99-4.76l9.98-9.51l25.37,26.62l9.75,0.23
		l4.76,4.99l11.89,12.48l-14.14,13.48l-8.12-0.19l-4.99,4.76l19.03,19.96l6.5,0.16l0.47-19.5l13,0.31l0.31-13l8.32-7.93
		l-20.62-21.62l-13-0.31l0.39-16.25l-17.44-18.3l4.99-4.76l13,0.31l-0.21,8.94l10.56,0.25l25.37,26.62l19.82,20.79l-0.5,21.12
		l11.1,11.64l-0.23,9.75l9.75,0.23l0.31-13l4.99-4.76l-15.86-16.63l4.99-4.76l3.17,3.33l6.5,0.16l3.33-3.17l6.5,0.16l12.69,13.31
		l-0.7,29.24l15.86,16.63l64.98,1.55l-0.39,16.25l-18.3,17.44l23.79,24.95l-0.62,25.99l63.43,66.54l-0.93,38.99l29.24,0.7
		l13.23-9.44l6.3-0.05l11.64-11.1l11.85-11.3l22.34,0.53l32.85-31.32l0.56-23.56l14.14-13.48l43.86,1.05l15.86,16.63l14.27,14.97
		l25.99,0.62l-0.85,35.74l12.69,13.31l-0.54,22.74l25.37,26.62l-0.31,13l33.3,34.93l21.12,0.5l4.16-3.96l9.98-9.51l2.06-86.1
		l-111.8-117.27L1592.83,341.23z"/>
	<path class="st6" d="M1532.47,539.68l-57.77-1.38l-44.4-46.58l-9.75-0.23l-52.33-54.89l1.28-53.61l0.39-16.25l-38.85-40.75
		l-39.8-0.95l-20.22-21.21l-18.28-0.44l-0.51,21.53l-29.24-0.7l-14.27-14.97l-27.62-0.66l-15.07-15.8l7.49-7.14l0.5-21.12
		l-79.61-1.9l-19.96,19.03l-32.49-0.78l-7.93-8.32l-11.37-0.27l-29.11,27.75l-0.76,31.68l-51.98,49.56l-0.34,14.22l-11.02,10.51
		l-0.52,21.73l31.48,0.75l124.76-118.93l60.11,1.44l37.27,39.09l33.3,0.8l17.05,17.88l83.26,1.99l19.62,20.59
		c0,0-5.95,57.67-1.49,62.34c3.76,3.94,129.18,135.5,168.68,176.94l27.97-26.66L1532.47,539.68z"/>
	<polygon class="st6" points="628.25,-145.2 627.78,-125.7 637.53,-125.47 662.48,-149.26 673.85,-148.99 704.77,-116.55 
		704.56,-107.61 714.47,-97.22 713.94,-74.88 695.85,-57.63 696.19,-72.05 675.28,-72.55 674.89,-56.3 659.92,-42.03 659.64,-30.66 
		645.02,-31.01 646.81,-105.74 620.82,-106.36 606.54,-121.33 607.13,-145.7 	"/>
	<path class="st6" d="M1004.89-193.09c-1.59-1.66-118.1,112.59-118.1,112.59l-48.74-1.16l-33.27,31.72l1.16-48.74l-29.24-0.7
		l-1.71,71.48l9.51,9.98l29.24,0.7l33.27-31.72l45.49,1.09l56.56-53.92l32.49,0.78l6.65-6.34l0.47-19.5l-13-0.31l0.23-9.75
		l9.98-9.51l9.75,0.23l-0.31,13l9.75,0.23l9.98-9.51l0.78-32.49l9.75,0.23l0.41-17.17C1014.86-192.08,1005.51-192.44,1004.89-193.09
		z"/>
	<path class="st6" d="M297.72,458.2l-35.74-0.85l0.39-16.25l33.27-31.72l0.19-8.02l-30.77-0.74l-28.38,27.06l-22.95-0.55
		l-28.74-30.15l1.1-45.9l53.65-51.14l28.43,0.68l17.47-16.65l17.87,0.43l14.27,14.97l21.93,0.52l-0.87,36.55l11.89,12.48l1.36-56.86
		l18.3-17.44l22.74,0.54l116.44-111.01l32.49,0.78l16.63-15.86l1.13-47.11l79.61,1.9l36.6-34.89l-17.44-18.3L636.95,71.3
		l-82.86-1.98L528.31,93.9l-0.91,38.18l-30.06-0.72L385.9,237.61l-43.86-1.05l-20.79,19.82L263.58,255L48.3,249.86l-0.83,0.79
		l-1.59,66.61l23.79,24.95l-0.62,25.99l13.81,0.33l0.95-39.8L65.57,309.6l0.89-37.37l14.97-14.27l38.99,0.93l-2.64,110.47
		l101.78,106.76c25.3-2.9,52.01-6.03,77.95-9.09L297.72,458.2z"/>
</g>
<g id="Layer_3" class="st7">
	<rect x="-0.5" y="-121" class="st8" width="2637.5" height="1726"/>
</g>
<g id="Layer_2_1_">
	<polygon class="st9" points="105.27,342.46 89.27,355.56 85.55,392.76 102.29,413.21 98.33,452.83 84.59,451.45 87.17,425.58 
		65.34,398.9 71.96,332.6 88.86,318.78 75.03,301.88 83.59,216.18 180.52,136.85 191.75,24.47 167.37,-5.32 72.36,-14.81 
		126.83,-59.39 187.27,-53.35 235.85,-93.11 301.64,-86.53 344.35,-34.35 432.73,-25.52 451.18,-2.98 521.24,4.02 530.46,15.29 
		562.26,18.46 586.86,-1.67 603.3,-0.03 629.83,-21.74 641.28,-20.6 640.14,-9.14 613.46,12.69 612.01,27.25 642.73,30.31 
		641.44,43.25 586.46,37.76 493.98,113.45 491.07,142.55 514.36,171.01 556.4,175.21 560.6,133.17 583.24,135.43 585.82,109.55 
		612.5,87.72 649.69,91.44 659.15,103 657.78,116.74 646.67,125.84 645.41,138.37 661.18,139.95 684.3,121.02 698.85,122.48 
		693.52,175.84 712.45,198.96 673.32,230.98 594.08,223.07 589.4,269.96 571.61,284.52 539.27,281.29 414.78,383.18 392.14,380.91 
		372.57,396.92 366.92,453.52 356,440.18 359.64,403.8 337.81,401.62 324.71,385.61 306.92,383.84 288.25,399.12 259.95,396.29 
		202.59,443.23 198.03,488.91 224.41,521.15 247.25,523.43 277.6,498.6 308.22,501.65 307.42,509.64 271.85,538.75 270.24,554.92 
		305.81,558.47 300.32,613.45 319.24,636.57 343.5,639 360.24,659.45 362.9,632.77 395.36,606.2 434.57,610.12 459.5,640.58 
		490.02,643.63 531.59,694.43 575.96,698.86 595.29,722.48 590.24,773.06 610.81,775.12 635.55,805.35 685.68,810.36 703.87,832.59 
		719.24,834.12 715.28,873.74 667.26,913.04 658.38,1001.98 598.79,1050.74 594.51,1093.59 532.71,1144.17 529.6,1175.3 
		502.26,1197.68 499.25,1227.79 473.13,1249.17 471.94,1261 490.24,1262.82 480.55,1359.85 421.35,1265.74 426.84,1210.76 
		397.74,1207.86 425.19,932.96 320.39,804.9 333.31,675.54 310.03,647.09 287.39,644.82 133.1,456.3 144.08,346.34 	"/>
	<path class="st10" d="M318.09,468.24l35.57,3.55l27.66,33.79l-5.34,4.37l-9.7-0.97l-26.2-32.01l-22.64-2.26
		C317.44,474.71,318.17,467.41,318.09,468.24z"/>
	<polygon class="st10" points="401.53,515.77 391.34,503.32 412.37,505.42 411.24,516.74 	"/>
	
		<rect x="348.77" y="511.23" transform="matrix(0.0994 -0.995 0.995 0.0994 -198.4449 822.6951)" class="st11" width="13" height="19.5"/>
	<polygon class="st9" points="557.67,-33.71 571.9,-45.35 572.87,-55.06 563.16,-56.03 545.38,-41.47 535.68,-42.44 525.97,-43.41 
		512.88,-59.41 495.09,-61.19 493.96,-49.87 501.23,-40.98 476.98,-43.4 474.88,-22.38 487.33,-32.57 521.29,-29.18 532.2,-15.84 
		562.12,-12.85 563.17,-23.36 	"/>
	<polygon class="st9" points="677.01,-18.52 675.07,0.88 684.77,1.85 711.45,-19.98 722.77,-18.85 751.15,15.83 750.26,24.72 
		759.36,35.84 757.14,58.07 737.8,73.9 739.23,59.55 718.41,57.47 716.8,73.64 700.79,86.74 699.66,98.06 685.11,96.61 
		692.54,22.22 666.66,19.64 653.56,3.63 655.99,-20.62 	"/>
	<polygon class="st9" points="854.89,31.9 832.25,29.64 821.58,38.38 814.47,109.53 823.2,120.2 852.31,123.1 887.88,93.99 
		933.16,98.52 993.63,49.03 1025.97,52.26 1033.08,46.44 1035.02,27.03 1022.08,25.74 1023.05,16.04 1033.72,7.3 1043.43,8.27 
		1042.13,21.21 1051.84,22.18 1062.51,13.45 1065.74,-18.9 1075.44,-17.93 1078.35,-47.03 1071.07,-55.93 1033.88,-59.64 
		1045.44,-69.1 1080.2,-65.63 1069.65,-78.52 1010.23,-84.46 1000.67,-76.64 977.02,-79 974.86,-57.37 968.39,-58.02 956.74,-72.24 
		934.11,-74.5 922.46,-88.73 864.25,-94.55 850.02,-82.9 848.41,-66.73 812.83,-70.29 798.6,-58.64 797.63,-48.94 846.14,-44.09 
		860.7,-26.31 	"/>
	<polygon class="st9" points="996.55,117.91 997.52,108.21 1006.41,100.93 1007.54,89.61 1018.86,90.74 1027.59,101.42 1047,103.35 
		1057.67,94.62 1070.6,95.91 1068.34,118.55 1047,136.02 1021.13,133.43 1009.48,119.2 	"/>
	<polygon class="st12" points="986.24,450.05 979.77,449.4 974.43,453.77 985.75,454.9 	"/>
	<polygon class="st12" points="978.8,459.11 969.1,458.14 968.13,467.84 962.79,472.21 962.31,477.06 970.4,477.86 970.72,474.63 
		977.83,468.81 	"/>
	<polygon class="st12" points="951.96,466.22 945.49,465.58 941.93,468.49 944.85,472.05 951.31,472.69 954.87,469.78 	"/>
	<polygon class="st12" points="942.9,458.79 942.58,462.02 935.47,467.84 935.14,471.08 931.91,470.75 928.35,473.66 925.12,473.34 
		922.21,469.78 925.76,466.87 932.88,461.05 932.88,461.05 939.67,458.46 	"/>
	<polygon class="st12" points="922.85,430.65 926.08,430.98 928.99,434.53 928.35,441 925.11,440.68 922.2,437.12 	"/>
	<polygon class="st12" points="923.5,456.85 922.85,463.32 919.3,466.23 916.39,462.67 919.94,459.76 920.27,456.53 	"/>
	<polygon class="st9" points="1059.33,437.75 1052.05,428.86 1040.73,427.73 1009.6,453.2 1006.46,484.73 950.88,530.22 
		949.46,544.37 937.68,554.01 927.77,653.26 943.32,672.26 939.24,713.19 949.92,726.26 974.74,728.73 994.14,752.44 1059.9,759.01 
		1078.29,743.96 1113.32,747.46 1126.17,763.17 1141,764.65 1147.43,772.5 1139.28,854.03 1165.18,885.67 1153.84,999.2 
		1188.62,1041.7 1178.92,1138.89 1200.67,1165.48 1257.19,1171.12 1354.07,1091.83 1359.64,1036.09 1412.57,992.77 1417.46,943.87 
		1404.18,927.65 1407.88,890.65 1522.49,796.86 1528.88,732.89 1471.38,727.15 1430.62,677.35 1420.92,676.38 1372.89,617.69 
		1378.22,564.32 1379.83,548.15 1344.17,504.58 1304.55,500.62 1286,477.95 1267.8,476.13 1265.67,497.56 1236.56,494.65 
		1223.46,478.64 1195.97,475.9 1182.14,459 1190.14,452.45 1192.24,431.43 1113.01,423.51 1091.67,440.98 	"/>
	<path class="st9" d="M1463.96,932.19l12.94,1.29l7.28,8.89l-9.21,92.17l-13.34,10.92l-15.36-1.53l-4-4.89l4.32-43.26l-14.01-17.12
		l2.64-26.48l26.48,2.64C1461.7,954.82,1463.34,932.12,1463.96,932.19z"/>
	<polygon class="st9" points="1508.59,877.85 1515.06,878.49 1520.88,885.61 1520.23,892.08 1513.76,891.43 1505.03,880.76 	"/>
	
		<rect x="1495.94" y="870.48" transform="matrix(0.0994 -0.995 0.995 0.0994 480.7562 2278.6431)" class="st13" width="6.5" height="6.5"/>
	<polygon class="st9" points="1526.05,866.53 1531.39,862.16 1535.75,867.5 1535.43,870.73 1541.9,871.38 1541.25,877.84 
		1531.55,876.88 1524.27,867.98 	"/>
	<polygon class="st9" points="2208.18,1427.87 2169.37,1424 2167.75,1440.17 2189.59,1466.84 2205.59,1453.74 	"/>
	<polygon class="st9" points="2441.67,1379.33 2448.14,1379.98 2445.88,1402.62 2464.8,1425.74 2464.31,1430.59 2417.18,1469.16 
		2406.27,1455.82 2418.72,1445.63 2414.35,1440.3 2437.47,1421.38 	"/>
	<polygon class="st9" points="2384.76,1458.57 2399.31,1476.36 2381.53,1490.91 2362.12,1488.98 2314.1,1528.28 2293.08,1526.18 
		2294.21,1514.86 2319.11,1494.48 2338.52,1496.42 	"/>
	<polygon class="st9" points="2344.94,1105.1 2336.22,1192.42 2353.68,1213.76 2349.81,1252.57 2361.45,1266.8 2359.19,1289.44 
		2224.02,1400.06 2188.45,1396.5 2165.16,1368.05 2166.77,1351.88 2186.34,1335.87 2177.6,1325.19 2166.28,1324.06 2152.94,1334.98 
		2142.43,1333.93 2145.74,1300.78 2129.57,1299.17 2120.84,1288.5 2088.5,1285.27 2058.27,1310.01 1995.2,1303.71 1987.2,1293.93 
		1990.02,1265.63 2005.58,1252.89 2012.57,1182.96 2055.92,1147.48 2092.1,1151.09 2123.78,1125.17 2149.96,1127.78 
		2174.69,1107.54 2197.48,1109.82 2236.53,1077.86 2268.94,1081.1 2267,1100.58 2250.99,1113.68 2284.47,1154.59 2300.47,1141.49 
		2302.9,1117.23 2321.57,1101.95 2324.07,1076.88 	"/>
	<polygon class="st9" points="2514.74,1236.38 2524.44,1237.35 2523.47,1247.05 2518.14,1251.42 2513.29,1250.93 	"/>
	<polygon class="st9" points="2533.49,1212.12 2543.2,1213.09 2549.02,1220.2 2548.37,1226.67 2541.26,1232.49 2531.56,1231.53 	"/>
	<polygon class="st9" points="2267.62,930.79 2279.27,945.02 2276.68,970.89 2285.42,981.57 2291.88,982.21 2309.67,967.66 
		2332.31,969.92 2394.9,1046.39 2392.8,1067.42 2405.17,1082.53 2397.17,1089.08 2385.85,1087.95 2387.62,1070.17 2358.51,1034.59 
		2344.28,1046.24 2343.31,1055.94 2320.68,1053.68 2300.3,1028.78 2313.23,1030.07 2314.85,1013.9 2300.29,996.12 2277.66,993.86 
		2250,960.06 2251.78,942.28 	"/>
	<polygon class="st9" points="2010.2,990.01 2032.84,992.27 2041.57,1002.94 2077.15,1006.49 2085.88,1017.16 2084.59,1030.1 
		2052.25,1026.87 2037.69,1009.08 2018.29,1007.15 2009.55,996.48 	"/>
	<polygon class="st9" points="2007.94,979.98 2010.52,954.11 2001.79,943.44 2003.72,924.03 1992.08,909.81 1992.73,903.34 
		1946.15,846.42 1923.51,844.16 1922.54,853.87 1950.2,887.66 1948.42,905.45 1963.7,924.12 1961.85,942.72 1991.32,978.73 	"/>
	<path class="st9" d="M2033.8,917.24l19.4,1.94l-1.94,19.4l8.73,10.67l12.94,1.29l4.37,5.34l17.79,1.78c0,0,8.73-5.66,8-6.55
		s1.05-10.51,1.05-10.51l12.01-9.82l1.17-11.72l20.62,2.06l0.97-9.7l-23.29-28.46l14.23-11.64l9.7,0.97l0.97-9.7l-11.64-14.23
		l-12.94-1.29l-1.94,19.4l-12.94-1.29l-19.56,16.01l-1.45,14.55l-27.49-2.75l-17.79,14.56L2033.8,917.24z"/>
	<polygon class="st9" points="2168.97,839.28 2176.09,833.46 2192.26,835.07 2204.71,824.89 2216.03,826.02 2219.67,830.46 
		2216.68,860.38 2210.9,865.11 2200.34,852.21 2190.64,851.25 2186.28,845.91 2178.19,845.1 2175.52,847.29 2168.25,846.56 	"/>
	<polygon class="st9" points="2151.49,719.95 2164.43,721.24 2171.71,730.13 2170.9,738.22 2166.45,741.86 2165.24,753.98 
		2172.16,762.43 2189.54,764.17 2188.69,772.66 2185.14,775.57 2159.26,772.99 2160.55,760.05 2148.91,745.82 	"/>
	<polygon class="st10" points="1092.93,199.4 1105.38,189.21 1116.7,190.34 1112.25,193.98 1111.85,198.02 1116.58,203.8 
		1116.14,208.25 1110.13,213.16 1129.97,237.39 1128.83,248.71 1133.93,254.94 1132.56,268.68 1109.11,266.34 1096.66,276.53 
		1078.87,274.75 1075.23,270.31 1081.46,265.21 1096.01,266.67 1100.46,263.03 1100.86,258.98 1090.35,257.93 1091.97,241.76 
		1101.67,242.73 1102.31,236.27 1095.04,227.37 1096.17,216.05 1091.07,209.83 1092.12,199.32 	"/>
	<polygon class="st10" points="1071.27,220.1 1060.59,228.83 1058.98,245 1055.42,247.91 1054.78,254.38 1064.48,255.35 
		1068.04,252.44 1080.97,253.73 1082.59,237.56 1087.92,233.19 1089.05,221.88 	"/>
	<path class="st9" d="M1503.85,661.59l12.45-10.19l12.67-10.37l22.23,2.22l35.13-28.75l2.34-23.45l15.12-12.37l43.66,4.36
		l14.56,17.79l13.1,16.01l25.87,2.58l-3.55,35.57l11.64,14.23l-2.26,22.64l23.29,28.46l-1.29,12.94l30.57,37.35l21.02,2.1l4.45-3.64
		l10.67-8.73l10.42-104.3l24.45-20.01l2.3-23.04l38.4,3.84c-0.08,0.79-3.55,35.57-3.55,35.57l23.29,28.46l17.38,1.74l-1.49,14.96
		l25.11,30.68l18.6,1.86l16.74,20.45l-5.01,50.13l7.28,8.89l-3.88,38.81l34.93,42.68l12.94,1.29l2.58-25.87l-34.93-42.68l3.88-38.81
		l37.84,46.24l-1.33,13.34l23.04,2.3l11.12-9.1l2.99-29.92l-31.29-38.24l4.04-40.43l-27.66-33.79l3.23-32.34l135.83,13.57
		l6.78-67.92l-32.02-39.13l6.14-61.45l-42.04-4.2l1.61-16.17l32.01-26.2l14.56,17.79l22.64,2.26l-2.75,27.49l17.79,1.78l21.83,26.68
		l37.19,3.71l3.07-30.72l16.01-13.1l30.72,3.07l3.07-30.72l-21.83-26.68l5.01-50.13l-30.72-3.07l-53.85-65.81l-16.17-1.62
		l8.72-87.32l53.36,5.33l-3.39,33.96l16.01,19.56l12.94,1.29l14.23-11.64l2.58-25.87l47.91-39.21l-15.92-19.45l-90.76-9.06
		l-11.46-14.01l-39.21-3.92l-14.19-17.34l-52.55-5.25l-40.03-48.91l-150.38-15.02l-48.02,39.3l-51.75-5.17l-22.68,18.56l9.82,12.01
		l-28.3-2.83l-18.19-22.23l-21.02-2.1l-26.68,21.83l-1.56,15.61l7.02,0.7l11.14,13.62l-18.29-1.83l-9.73-11.89l-112.2-11.2
		l-22.45,18.38l-38.81-3.88l-31.13-3.11l-50.58-61.8l-49.32-4.93l-8.01-9.78l-37.19-3.71l-51.58,42.21l-32.34-3.23l-60.47,49.49
		l-2.58,25.87l19.4,1.94l13.12-10.73l10.73,13.12l-1.49,14.96l13.46,16.45l20.21,2.02l15.12-12.37l3.07-30.72l-13.1-16.01
		l17.79-14.56l2.02-20.21l23.45,2.34l9.46,11.56l-2.1,21.02l-16.01,13.1l-0.97,9.7l42.04,4.2l-1.61,16.17l-46.24,37.84l-32.34-3.23
		L1243,266.65l-16.17-1.62l1.45-14.55l-33.96-3.39l-12.45,10.19l-9.7-0.97l-46.24,37.84l-26.52-2.65l-1.03,10.35
		c0,0,15.26,17.21,13.98,17.08c-1.29-0.13-1.81,18.12-1.81,18.12l-9.25,7.57l-47.85-4.78l-9.95,8.14l-1.42,14.25l-12.78,10.46
		l-2.64,26.48l15.1,18.45l33.55,3.35l9.34-7.64l8.89,0.89l13.34-10.92l2.1-21.02l16.01-13.1l12.53,1.25l1.01-10.11l4-3.27
		c0,0,19.32,2.75,20.21,2.02s5.09,6.22,5.09,6.22l4.85,0.48l5.34-4.37l10.67-8.73l23.29,28.46l9.7,0.97l4.37,5.34l10.92,13.34
		l-15.12,12.37l-8.09-0.81l-5.34,4.37l17.47,21.34l6.47,0.65l1.94-19.4l12.94,1.29l1.29-12.94l8.89-7.28l-18.92-23.12l-12.94-1.29
		l1.61-16.17l-16.01-19.56l5.34-4.37l12.94,1.29l-0.89,8.89l10.51,1.05l23.29,28.46l18.19,22.23l-2.1,21.02l10.19,12.45l-0.97,9.7
		l9.7,0.97l1.29-12.94l5.34-4.37l-14.56-17.79l5.34-4.37l2.91,3.56l6.47,0.65l3.56-2.91l6.47,0.65l11.64,14.23l-2.91,29.11
		l14.56,17.79l64.68,6.46l-1.61,16.17l-19.56,16.01l21.83,26.68l-2.58,25.87l58.22,71.14l-3.88,38.81l29.11,2.91l13.91-8.41
		L1503.85,661.59z"/>
	<path class="st14" d="M1605.3,539.74l-72.92,59.68l-42.04-4.2l-58.22-71.14l8.8-88.13l-57.4-5.73l-14.56-17.79l-82.24-100.49
		l-124.51-12.44l-130.5,106.8l9.28,11.34l33.55,3.35l9.34-7.64l8.89,0.89l13.34-10.92l2.1-21.02l16.01-13.1l12.53,1.25l1.01-10.11
		l4-3.27c0,0,19.32,2.75,20.21,2.02s5.09,6.22,5.09,6.22l4.85,0.48l5.34-4.37l10.67-8.73l23.29,28.46l9.7,0.97l4.37,5.34
		l10.92,13.34l-15.12,12.37l-8.09-0.81l-5.34,4.37l17.47,21.34l6.47,0.65l1.94-19.4l12.94,1.29l1.29-12.94l8.89-7.28l-18.92-23.12
		l-12.94-1.29l1.62-16.17l-16.01-19.56l5.34-4.37l12.94,1.29l-0.89,8.89l10.51,1.05l23.29,28.46l18.19,22.23l-2.1,21.02l10.19,12.45
		l-0.97,9.7l9.7,0.97l1.29-12.94l5.34-4.37l-14.56-17.79l5.34-4.37l2.91,3.56l6.47,0.65l3.56-2.91l6.47,0.65l11.64,14.23
		l-2.91,29.11l14.56,17.79l64.68,6.46l-1.62,16.17l-19.56,16.01l21.83,26.68l-2.58,25.87l58.22,71.14l-3.88,38.81l29.11,2.91
		l13.91-8.41l6.29,0.42l12.45-10.19l12.67-10.37l22.23,2.22l35.13-28.75l2.34-23.45l15.12-12.37l43.66,4.36l14.56,17.79l13.1,16.01
		l25.87,2.58l-3.55,35.57l11.64,14.23l-2.26,22.64l23.29,28.46l-1.29,12.94l30.57,37.35l21.02,2.1l4.45-3.64l10.67-8.73l8.56-85.7
		L1700.7,549.27L1605.3,539.74z"/>
	<path class="st14" d="M1530.12,733.06l-57.5-5.74l-40.75-49.8l-9.7-0.97l-48.03-58.69l5.33-53.36l1.61-16.17l-35.66-43.57
		l-39.62-3.96l-18.56-22.68l-18.19-1.82l-2.14,21.43l-29.11-2.91l-13.1-16.01l-27.49-2.75l-13.83-16.9l8-6.55l2.1-21.02l-79.23-7.91
		l-21.34,17.47l-32.34-3.23l-7.28-8.89l-11.32-1.13l-31.12,25.47l-3.15,31.53l-55.58,45.49l-1.41,14.15l-11.78,9.64l-2.16,21.63
		l31.33,3.13l133.39-109.17l59.83,5.98l34.21,41.8l33.15,3.31l15.65,19.12l82.87,8.28l18.01,22.01c0,0-10.29,57.05-6.2,62.05
		c3.45,4.21,118.57,144.88,154.83,189.19l29.9-24.47L1530.12,733.06z"/>
	<polygon class="st14" points="678.24,-18.2 676.3,1.2 686.01,2.17 712.68,-19.66 724,-18.53 752.39,16.15 751.5,25.04 
		760.59,36.16 758.37,58.4 739.03,74.22 740.47,59.87 719.65,57.79 718.03,73.96 702.02,87.06 700.89,98.38 686.34,96.93 
		693.77,22.55 667.9,19.96 654.8,3.95 657.22,-20.3 	"/>
	<path class="st14" d="M1057.43-37.49c-1.46-1.78-126.28,103.34-126.28,103.34L882.64,61l-35.57,29.11l4.85-48.51l-29.11-2.91
		l-7.11,71.15l8.73,10.67l29.11,2.91l35.57-29.11l45.28,4.52l60.47-49.49l32.34,3.23l7.11-5.82l1.94-19.4l-12.94-1.29l0.97-9.7
		l10.67-8.73l9.7,0.97l-1.29,12.94l9.7,0.97l10.67-8.73l3.23-32.34l9.7,0.97l1.71-17.09C1067.29-35.73,1058-36.79,1057.43-37.49z"/>
	<path class="st14" d="M305.06,558.49l-35.57-3.55l1.62-16.17l35.57-29.11l0.8-7.98l-30.62-3.06l-30.35,24.84l-22.84-2.28
		l-26.38-32.24l4.56-45.68l57.36-46.94l28.3,2.83l18.67-15.28l17.79,1.78l13.1,16.01l21.83,2.18l-3.63,36.38l10.92,13.34l5.65-56.6
		l19.56-16.01l22.64,2.26l124.5-101.89l32.34,3.23l17.79-14.56l4.68-46.89l79.23,7.91l39.13-32.02l-16.01-19.56l-23.12,18.92
		l-82.47-8.24l-27.57,22.56l-3.8,38l-29.92-2.99L409.65,345.2l-43.66-4.36l-22.23,18.19l-57.4-5.73L72.1,331.9l-0.89,0.73
		l-6.62,66.3l21.83,26.68l-2.58,25.87l13.74,1.37l3.96-39.62L84.8,392.78l3.71-37.19l16.01-13.1l38.81,3.88l-10.98,109.96
		l93.42,114.15c25.45-0.98,52.31-2.08,78.41-3.17L305.06,558.49z"/>
</g>
</svg>
