<?xml version="1.0" encoding="utf-8"?>
<!-- Generator: Adobe Illustrator 21.1.0, SVG Export Plug-In . SVG Version: 6.00 Build 0)  -->
<svg version="1.1" id="Layer_1" xmlns="http://www.w3.org/2000/svg" xmlns:xlink="http://www.w3.org/1999/xlink" x="0px" y="0px"
	 viewBox="0 0 844.5 168" style="enable-background:new 0 0 844.5 168;" xml:space="preserve">
<style type="text/css">
	.st0{fill-rule:evenodd;clip-rule:evenodd;fill:#231F20;}
</style>
<g id="Layer_1_1_">
</g>
<g id="Layer_2">
</g>
<g id="Layer_3">
</g>
<g>
	<path class="st0" d="M815.8,99.3c0.1-0.3,0.4-0.6,0.9-0.6c0.4,0,0.7,0.2,0.9,0.6h22.7l0-16.5c-2.5-0.1-11.4-2-14.5-3.9
		c-1.4-0.9-1.4-2.4-1-4.9c0.3-2.5,4-7,8.6-15c4.6-8.1,13.8-27.3,7.7-39.4c-6.1-12.1-19.5-12.2-24.7-12.2c-5.2,0-6.7,0.4-7.1,0.6
		c-0.4,0.3-0.4,0.5-0.4,0.8c0,0.3,0.8,0.3,1.4,0.5c0.6,0.2,0.7,1,0.2,1.3c-0.5,0.3-0.8,0-1.2-0.4c-0.4-0.5-0.9-0.2-1.4-0.1
		c-0.5,0.1-0.2,0.4-0.8,0.7c-0.6,0.3-0.7-0.5-0.8-1c-0.2-0.5-0.8-0.5-2.9,0.4c-2.1,0.9-13,3.9-17.3,4.9c-4.3,1-32.1,8.7-41.5,11.3
		c-9.4,2.6-25.2,6.4-29.5,7.8c-4.3,1.4-7.3,2-9.1,1.4c-1.3-0.4-2.2-2.7-2.6-4l0-23.6h-21.3l0,26.1c0.1,3.7,0.2,8.9-3,9.7
		c-3.2,0.8-9.1,1-14.8,0.2c-5.7-0.8-15.5-3-18.8-4.6c-3.3-1.6-6.7-6.2-6.8-9c-0.1-2.8,0-14.7,0-14.7s-0.7-0.3-0.6-1
		c0.1-0.7,0.5-1.2,0.5-1.2V7.9l-21,0l0,4.5c-0.1,0.2-0.3,0.4-0.5,0.6c-1.1,1-3.3,1.9-5.3,2.9c-2,1-7.1,4-9.2,5.1
		c-2.1,1.2-6.8,3.3-8.7,3.3c-1.8,0-3.7-0.8-4.7-1.6c-1-0.7-1-2.2-1-2.2l0-12.7l-11.7,0c0,0.1,0,0.2,0,0.3c0.1,1.3-0.3,2-0.8,2.1
		c-1,0.2-1.3-1.3-1-2.4h-8.2l0,18.6c0,0.9-0.2,2.5-0.6,3.5c-0.6,1.4-2.5,3.8-6.1,4.9C556,36,543,40.4,540,39.3
		c-1.9-0.7-2.5-3.4-2.5-3.4l0-23.4c-0.1,0.1-0.2,0.1-0.4,0.1c-1.3,0.1-1.2-1.7-0.1-1.7c0.2,0,0.3,0,0.5,0.1l0-3.1h-21.7
		c0,0,0,20.7,0,23.5c0,2.9-0.1,4.2-0.5,5.4c-0.4,1.2-1.4,1.2-2.8,1c-1.4-0.2-2.9-0.8-5.9-2.6c-3-1.8-4.9-2.6-9.5-4.9
		c-4.6-2.3-4.7-5.5-4.7-5.5l0-16.9l-21.5,0l0.1,30.4l-0.1-0.1c0,0,0.7,5.9-4.5,5.5c-5.1-0.3-20-3.7-24.5-4.9
		c-5.2-1.4-14-3.8-21.2-6.6c-3.9-1.5-7.9-3-10.6-5.1c-2.7-2-4.1-4.6-4.9-7.8c-0.1-0.8-0.2-1.6-0.2-2.3c0-2.9,0-9.2,0-9.2l-19.5,0
		c-1.4,0.5-0.1,3.4-1.4,3.4c-1.3,0.1-1.2-1.7-0.1-1.7c0.1,0-0.1-1-0.1-1.7l-32.8,0c0,3.2-0.1,6.1-0.1,9.5c0,3.1,0.4,6.4-2.1,8.3
		c-1.6,1.2-4.1,1.6-6.1,1.1c-2-0.6-3-1.7-4.1-2.6c-1.5-1.2-4.8-4.8-6.1-6.5c-1.3-1.7-2.7-4.1-3-4.7c-0.3-0.7-0.2-4.9-0.2-4.9h-19.9
		c0,0,0,13.9,0,18.7c0.1,4.8-0.5,9.7-3.1,14.1c-2.6,4.4-6.3,1.6-6.9,1c-0.6-0.6-1.2-0.1-1.4-0.4c-0.2-0.3-0.2-1.3,0.1-1.8
		c0.2-0.6-0.1-1-0.5-1.8c-0.4-0.8-12.8-29.9-12.8-29.9h-12c0,0.9-0.1,2.5,0.2,2.9c0.3,0.5,0.3,0.4,0.4,1.2c0.1,0.8,0.6,1.1,0.9,1.5
		c0.4,0.4,0,1.2,0.2,2.2c0.1,1-0.1,1.5,0.6,1.8c0.7,0.4,0.4,1.5,0.7,1.6c0.4,0.1,0.4-0.7,0.5-1c0.1-0.4,0.8-0.6,1.2-0.3
		c0.5,0.3,0.5,1,0.1,1.3c-0.6,0.5-0.2,2.7-1,2.7c-0.8,0.1-0.7-1.7-0.8-1.8c-0.2-0.6-0.9-1.6-1.1-0.8c-0.1,0.4-1,0.7-1.1,0
		c-0.1-0.7-0.5-0.7-0.8-1.2c-0.3-0.6-0.1-2-0.1-3c0-1-0.3-0.9-0.6-1.3c-0.2-0.4-0.5-1.4-0.8-1.8c-0.3-0.4-0.4-1.4-0.4-2
		c0-0.5,0-1.4,0-2H263l0,21.3c0,4.3-1,2.7-3.6,3c-0.9,0.1-1.1,0.4-1.1,1c0,0.6,0.2,1.5-0.3,1.6c-0.5,0.1-0.4,0.1-1-0.8
		c-0.5-0.8-0.8-0.9-1.7-0.9c-0.9-0.1-3.2,0.2-5.6-0.4c-2.4-0.6-3.9-0.9-5.7-2.2c-1.8-1.4-4.4-2.9-5-3.7s-1.6-2.2-1.6-7.4
		c0-5.3,0-11.4,0-11.4l-29.3,0c0,0.1,0,0.3,0,0.4c0.1,1.2-0.3,1.9-0.7,2c-0.8,0.2-1.1-1.3-0.8-2.4l-14.4,0v32.8c0,2,0.5,2.7-0.8,4.2
		c-0.8,0.9-3.7,3.9-5.3,5.8c-1.5,1.9-6.2,7-8.2,9.1c-3.1,3.3-2.6,3.5-4.3,4.1c-0.5,0.2-1.4,0.2-2.4,0.5c-2.3,0.9-4.7,1.4-8.1,0.4
		c-1.5-0.4-4.6-1.8-6-2.9c-1.4-1-4.3-3.1-6-5.5c-3.4-4.9-3-5.6-3.1-11.1l-0.1-37.5L127.2,8l0,17.3c-0.1,0.4-0.8,3.2-1.1,4
		c-0.4,0.8-1.2,2.5-2.8,2.7c-1.5,0.2-4.6-2.3-7.3-4.6c-2.8-2.3-5.7-4.9-8.5-6.8c-2.8-2-7-5.9-8.1-7.3c-1.1-1.4-1.2-1.7-1.2-2.7
		c-0.1-0.9,0-2.7,0-2.7L76,7.9v25.9c0,1.2-1.1,4.8-3.8,4.6c-2.7-0.2-7-1.4-9.5-3.3c-2.5-1.9-7.4-8.6-9.8-13.4
		c-2.4-4.8-4.4-8.8-4.8-9.8c-0.5-0.9-9.2-4.9-17.8-4.9C21.7,7.1,12.4,8.9,6,18C2.4,23,1,29,1,33.8c0.1,10.4,7.4,18.9,16.6,25.8
		c3,2.3,3.4,4.1,2.1,5.9c-1.3,1.7-6,6.4-8.7,7.5c-2.7,1.1-4.1,1.2-5.5,0.5C4,72.8,4,71,3.6,71c-0.3,0-0.5-0.2-0.5,0.8S3,95.7,3,95.7
		s7.1,4.9,18.5,4.8c1.9,0,3.8-0.2,5.5-0.4v17c0,0.5-0.2,1.4-0.5,2.5c-0.3,1-0.7,2.1-1.2,3.2c-0.1,0.2-0.2,0.5-0.3,0.7
		c-0.1,0.3-0.5,0.6-0.9,0.6l-0.4,0c-0.6,0-1.3,0.2-1.8,0.5c-0.6,0.4-1.2,0.9-1.6,1.4c-0.5,0.6-0.8,1.2-0.9,2
		c-0.1,0.3-0.1,0.6-0.1,0.9v26.8c0,0.5,0.1,0.9,0.2,1.4v0c0.4,1.2,1.3,2.2,2.4,2.6c2,0.8,4,1.2,5.9,1.2c2.2,0,4.4-0.5,6.6-1.6
		c0.5-0.3,0.8-0.8,0.7-1.4c-0.1-0.4-0.2-0.7-0.3-1c-0.2-0.5-0.7-0.8-1.2-0.8c-6-0.2-9-2.1-9.1-5.8c-0.1-1.8,0.4-3.4,1.3-4.7
		c0.5-0.7,1.3-1.1,2.1-1.1c1.9-0.2,3.7-0.6,5.2-1.3c0.8-0.3,1.3-1.1,1.2-2c0-0.2,0-0.3-0.1-0.4c-0.2-0.7-0.9-1.2-1.7-1.3
		c-4.8-0.2-7.5-2-8.1-5.5c0-0.2,0-0.4,0-0.6c0-2.7,3-4.4,8.9-5c0.7-0.1,1.3-0.5,1.6-1.1c0.1-0.1,0.1-0.3,0.1-0.4
		c0.2-0.8-0.1-1.6-0.7-2c-0.3-0.2-0.7-0.5-1.1-0.7c-0.3-0.1-1.4-0.2-1.8-0.2c-0.1,0-0.3-0.1-0.6-0.4c-0.5-1.4-1.1-2.6-1.6-3.6
		c-0.3-1.4-0.8-4.6-0.8-5.6V99.9c7.6-1.3,12.7-4.3,15.7-6.6c3.8-2.9,17.8-18.6,22.6-22.7c4.8-4.1,5.6-4.8,6.1-4.8
		c2.7,0,3.3,6.6,3.3,8.3V99h5.7v31.8c0,0,0,0,0,0c0,0.8-0.2,1.9-0.5,2.8c-0.1,0.3-0.5,0.3-0.6,0c-1.8-4.8-3.9-7.7-6.4-8.6
		c-1-0.4-2.2-0.1-2.9,0.6c-0.4,0.3-0.7,0.7-1,1c-0.2,0.3-0.4,0.7-0.5,1.1l0,0c-0.1,0.5-0.1,1-0.1,1.5v20.6c0,3.1,0.1,5.4,0.3,7
		c0.1,1,0.7,1.9,1.7,2.2c0.2,0.1,0.5,0.1,0.7,0.1c0.5,0,1-0.2,1.4-0.6c0.6-0.5,0.8-1.2,0.9-2l0.2-11.2c0-1.1,0.2-2.3,0.6-3.3
		c0-0.1,0.1-0.1,0.1-0.2c0.3-0.7,1.3-0.9,1.8-0.3c0.1,0.1,0.1,0.1,0.2,0.2c0.4,0.4,0.7,0.9,0.9,1.4c1,2.2,4,9.4,5.3,12.5
		c0.5,1.3,1.2,2.5,2.2,3.5c0.1,0.1,0.2,0.2,0.3,0.3c0.9,0.9,2.3,1.2,3.5,0.9c0.3-0.1,0.5-0.2,0.7-0.3c1.1-0.5,1.9-1.6,2.1-2.8
		c0.3-1.1,0.1-6.7,0.1-7l0-7.8c0-11.1-0.7-16.7-2.2-16.7c-0.5,0-1.2,0.6-2.1,1.7c-0.5,0.6-0.7,1.4-0.7,2.2l0,8.5
		c0,4.5-0.5,6.7-1.5,6.6c0,0,0,0,0,0c-0.2-0.2-0.3-0.4-0.5-0.8c-0.8-2.1-1.9-8.1-2.4-11.9c-0.2-1.7-0.3-2.9-0.3-2.9V99h14.7
		c0,0-0.1-2.1,0.2-2.4c0.3-0.4,3.5-1.1,5.2-2c1.7-0.9,4.8-2,9.4-3.3c4.6-1.2,7.5-1.4,9.7-1.2c2.2,0.2,2.9,0.4,3.8,1.2
		c1.3,1.2,1.1,1.6,1.1,3.2l0,4.6h10.2v35.8c-0.2,0.8-0.3,1.5-0.3,1.5s-0.7,1.4-1.6,2.9c-0.4,0.4-1,0.6-1.5,0.3l0,0
		c-0.8-0.3-1.3-1-1.6-1.8l0-0.1c-0.3-1.1-0.5-2.2-0.5-3.4l-0.2-4.9c0-0.6,0-1-0.7-1.6c-1.1-1-2.8-0.5-3.4,0.7
		c-0.5,1-0.8,2.2-0.8,3.4v24.8c0,0.3,0,0.6,0.1,0.9c0.1,0.4,0.2,0.8,0.3,1.2c0.3,0.7,0.8,1.3,1.5,1.6c0.9,0.4,2.6-0.2,2.9-1
		c0.3-0.8,0.4-0.7,0.4-2.7s0-5.8,0-5.8c0-0.2,0-0.3,0-0.5l0.1-0.5c0.1-0.8,0.5-1.6,1.1-2.2c1.6-1.4,3.2-2.1,4.9-2.1
		c1.4,0,2.9,0.5,4.4,1.5c0.7,0.5,1.2,1.2,1.4,2c0,0.1,0,0.2,0.1,0.3c0.1,0.2,0.1,0.5,0.1,0.7v1.6c0,3,0.2,5.3,0.5,6.9
		c0.2,1.1,1.1,1.9,2.3,2.1c0.4,0,0.7,0,1-0.1c0,0,0.6-0.2,1-0.8s0.4-1.5,0.4-2v-27.9c0-0.5-0.1-1.6-0.3-2c-0.3-0.4-0.8-0.7-0.8-0.7
		c-0.4-0.1-0.8-0.2-1.2-0.2c-0.6,0-1.1,0.2-1.6,0.5c-0.7,0.5-1.1,1.4-1.1,2.3c0,0.5,0,1.1,0,1.6c0,4.2-0.8,7-2.4,8.4
		c-0.8,0.7-2,0.3-2.3-0.8c-0.5-1.9-0.9-4.5-0.9-6V99h6c0.1-0.3,0.3-0.6,0.7-0.7c0.3,0,0.7,0.2,0.8,0.7h26.4c0,0,0-9.6-0.1-11.3
		c-0.1-1.6,0.4-2.1,0.8-3.4c0.4-1.2,1.1-2.8,2.4-2.7c1.2,0.1,1.9,0.9,3.3,1.6c1.4,0.8,2,1,3.6,2c1.6,1,3.6,2.7,5.5,4.3
		c1.9,1.6,3.9,4,3.9,4l0.1-0.1V99l2.5,0v22.8c0,0.5-0.3,1.3-0.7,2.2c-0.3,0.7-0.8,1.6-1.3,2.8c-0.4,0.7-0.6,1.3-0.7,1.5
		c0,0,0,0,0,0.1c-0.3,0.7-0.4,1.2-0.6,1.8c-0.2,0.4-1.4,5-1.4,5c-0.1,0.7-0.3,1.5-0.6,2.2c-0.4,1.2-0.7,2.2-0.9,3.1
		c-0.1,0.4-0.2,0.9-0.3,1.3l-2.3,7c0,0-1.9,6.6-1.9,9.1c0,0.9,0.5,1.7,1.4,2c0.1,0,0.1,0,0.2,0.1c0.8,0.3,1.7,0,2.3-0.7
		c2.7-3.5,5.2-5.3,7.7-5.3c2.5,0,4.9,1.8,7.2,5.4c0.4,0.6,1.1,1,1.8,1c0.1,0,0.2,0,0.2,0h0c0.8,0,1.5-0.5,1.8-1.2
		c0-0.1,0.1-0.2,0.1-0.3c0.2-0.5,0.3-1.5,0.2-2.1l-0.3-1.7c-0.1-0.3-0.1-0.5-0.2-0.7c-0.5-1.5-0.8-2.9-1-4.1l-0.3-1.1l-2.3-7.6
		c-0.1-0.4-0.2-0.8-0.3-1.2l-0.1-0.4c-0.1-0.4-0.2-0.8-0.3-1.2l-1.4-4.5c-0.1-0.2-0.1-0.5-0.2-0.7l-0.1-0.6
		c-0.1-0.6-0.2-1.2-0.4-1.8l-1-2.7c-0.1-0.1-0.1-0.3-0.2-0.4c-0.1-0.2-0.2-0.4-0.2-0.6c-0.9-2.2-2.7-5.6-2.7-6.7V99l2,0
		c0-0.5,0.3-0.9,0.9-0.9c0.4,0,0.8,0.2,0.8,0.7c0,0.1,0,0.1,0,0.2L237,99c0.1,0,0.3-1.8,2.3-2.7c0.9-0.4,6.5-3.6,9.8-6.2
		c1.6-1.3,3.1-2.2,4.4-2.9V128c0,0,0,0.1,0,0.1c0,0.1,0,0.3,0,0.4c0,0.1,0,0.2,0,0.3c0,0.1,0,0.3,0,0.4c0,0.1,0,0.2,0,0.3
		c0,0.1,0,0.2,0,0.3c0,0.3-0.1,0.6-0.2,1c0,0,0,0.1,0,0.1c0,0.2-0.1,0.4-0.1,0.6c0,0,0,0.1,0,0.1c0,0.2-0.1,0.5-0.1,0.7
		c-0.1,0.6-1,0.7-1.2,0.1c-1.5-3.7-3.3-6.1-5.2-7.1c-1.3-0.7-3-0.4-4,0.7c-0.1,0.1-0.2,0.2-0.3,0.3c-0.4,0.5-0.6,1-0.8,1.6l-0.1,0.3
		c0,0.2-0.1,0.5-0.1,0.7v21c0,3.1,0.1,5.4,0.3,7c0.1,1,0.7,1.9,1.7,2.2c0.2,0.1,0.5,0.1,0.7,0.1c0.5,0,1-0.2,1.4-0.6
		c0.6-0.5,0.8-1.2,0.9-2l0.2-11.6c0-0.7,0.1-1.4,0.4-2.1c0.1-0.4,0.3-0.9,0.4-1.1c0.3-0.6,1.1-0.8,1.6-0.3c0.1,0.1,0.2,0.3,0.4,0.4
		c0.3,0.4,0.6,0.8,0.8,1.3l2.2,5.2c0.2,0.5,0.4,0.9,0.7,1.4c0.5,0.9,4.2,9,4.9,9.7c0.9,0.9,2.3,1.3,3.5,0.9c0.3-0.1,0.5-0.2,0.7-0.3
		c1.1-0.5,1.8-1.6,2.1-2.8c0-0.1,0.4-1.2,0.4-1.6V153c0-0.5,0-0.9-0.1-1.2c-0.1-0.8-0.2-1.7-0.2-2.5v-6.7c0-11.1-0.7-16.7-2.2-16.7
		c-0.5,0-1.1,0.5-1.8,1.4c-0.6,0.8-0.9,1.7-0.9,2.6l0,8.3c0,4.4-0.5,6.7-1.5,6.7c-0.3,0-0.6-0.2-1.3-1.5c-0.7-3.5-1.2-14.6-1.7-15.8
		c0-0.1,0-0.2,0-0.3V86.5c0.6-0.3,1.1-0.5,1.4-0.7c1.2-0.7,1.1-1.4,2.3-1.4c1.2,0,1.6,0.8,2.7,2.1c1,1.3,1.4,3.4,1.7,4.6l0,0.1
		l0,7.9l17.8,0c0,0-0.1-1.4-0.1-2c0-0.5,0.6-1,0.8-0.5c0.3,0.6,0.1,2.4,0.1,2.4h0.8c0,0-0.1-4.4,0.8-6.7c0.8-2.3,3.1-4.2,4.2-5.3
		c1.2-1.2,2.3-1.7,4.1-2.7c1.8-1,7.1-4.8,7.8-4.6c0.7,0.2,3.6,5.9,5.1,9c1,1.9,2.7,5.3,3.8,7.8v22.3c0,1.1-0.8,2.4-1.3,2.9
		c-0.1,0.1-0.1,0.1-0.2,0.2c0,0-0.1,0.1-0.1,0.1c0,0.1-0.1,0.1-0.1,0.2c-0.7,0.9-1.7,1.5-2.7,2c-0.9,0.4-1.8,1-2.6,1.7
		c-0.5,0.5-1,1-1.3,1.7c-0.5,1.1-1,2.4-1.4,4c-0.1,0.2-0.1,0.5-0.1,0.7l-0.2,1.4c0,0.4,0,0.6-0.1,0.8v10.4c0,4,0.2,7.1,0.5,9.2
		c0.2,1,0.5,1.9,1.1,2.7c0.9,1.3,1.9,2.2,3.1,2.8c0.2,0.1,0.3,0.1,0.5,0.2c2.4,0.7,4.6,1.1,6.5,1.1c5.7,0,8.8-3.3,9.4-9.8
		c0.1-0.9-0.3-1.7-0.9-2.3c-0.1,0-0.1-0.1-0.2-0.1c-0.9-0.7-2.3-0.5-3.1,0.3c-0.2,0.2-0.4,0.5-0.5,0.8c-0.6,1.6-1.2,2.9-2,4
		c-0.4,0.5-0.9,0.9-1.5,1c-0.7,0.2-1.3,0.2-1.9,0.2c-3.9,0-5.9-3.5-5.9-10.5c0-3.2,0.4-7.1,1.2-11.7c0.3-1.6,1.3-3,2.8-3.6
		c0.5-0.2,1-0.3,1.5-0.3c2.1,0,4.2,1.8,6.4,5.4c0.5,0.8,1.6,1.3,2.5,1c0,0,0.1,0,0.1,0c0.9-0.3,1.4-1.1,1.5-2.1c0-0.1,0-0.1,0-0.2
		c0-4.9-1.9-8-5.6-9.2c-0.9-0.3-1.7-0.7-2.5-1.3c-0.1-0.1-0.3-0.2-0.4-0.3c-0.4-0.3-0.7-0.7-0.7-1.2l0,0c0,0-0.3-2.4-0.3-3.8v-18h14
		c-0.1-0.5,0.2-1.1,0.8-1.1c0.4,0,0.7,0.2,0.8,0.7c0,0.1,0,0.3,0,0.4h4.1c0,0-0.1-2.9,0.1-3.4c0.1-0.6,0.8-1.4,4.8-2.4
		c4-1,18.9-6.3,24.3-8.1c1.8-0.6,3.1-0.9,4.1-0.9v35.3c0,0,0,0,0,0c0,0.3-0.1,0.5-0.1,0.6c-0.1,0.2-0.2,0.5-0.3,0.7
		c-0.3,0.6-0.9,1.7-1.5,2.6c0,0,0,0.1-0.1,0.1c-0.3,0.4-0.7,0.6-1.1,0.6h0c-0.5,0-1,0.1-1.4,0.4c-1,0.6-1.8,1.4-2.4,2.3
		c-0.1,0.2-0.2,0.4-0.3,0.7c-0.1,0.7-0.2,1.3-0.2,2v26.3c0,0.5,0.1,0.9,0.2,1.4c0.4,1.2,1.3,2.2,2.4,2.6c2,0.8,4,1.2,5.9,1.2
		c2.1,0,4.2-0.5,6.2-1.5c0.8-0.4,1.2-1.3,0.9-2.1l0,0c-0.2-0.7-0.9-1.2-1.6-1.2c-5.8-0.2-8.8-2.1-8.9-5.7c0-1.1,0.1-2.2,0.5-3.1
		c0.6-1.5,2-2.6,3.6-2.8c1.6-0.2,3.1-0.6,4.5-1.1c0.9-0.3,1.4-1.3,1.1-2.2l0,0c-0.2-0.8-0.9-1.4-1.7-1.4c-4.8-0.2-7.4-2.1-7.9-5.5
		c0-0.2,0-0.4,0-0.6c0-2.7,2.9-4.4,8.7-5c0.7-0.1,1.3-0.4,1.7-1c0.5-0.9,0.2-2.1-0.6-2.7c-0.2-0.1-0.5-0.3-0.7-0.4
		c-0.4-0.2-0.9-0.4-1.4-0.4h-0.7c-0.7,0-1.4-0.4-1.6-1.1c0,0,0,0,0,0c-0.1-0.1-0.1-0.3-0.2-0.4c-0.1-0.1-0.1-0.3-0.2-0.4
		c-0.6-1.6-1.2-3.2-1.2-4.3V84.2c1.1,0.2,1.6,0.7,2.3,1.1c1.2,0.8,1.3,2.1,1.3,2.1v5.7l0-0.1V99l21.1,0l0-11.9c0,0,1.4-5.9,4.5-8.3
		c3.1-2.5,11.7-5.7,15.7-7.4c1.7-0.7,4.1-1.9,6.6-3v51.4c-0.5,1.3-1.1,2.6-1.6,3.5c-0.2,0.4-0.7,0.6-1.1,0.6c-0.9,0-1.9,0.1-2.9,0.2
		c-0.4,0.1-0.8,0.2-1.2,0.4c-0.5,0.3-1,0.6-1.5,0.9c-0.6,0.5-1,1.3-1.2,2.1l-0.2,1c-0.1,0.3-0.1,0.5-0.1,0.8v18.5
		c0,4.3,0.1,7.4,0.4,9.4c0.1,0.9,0.5,1.8,1.3,2.4c0.1,0,0.1,0.1,0.2,0.1c0.6,0.4,1.2,0.7,1.9,0.8c1.8,0.2,3.4,0.4,4.9,0.4
		c9.5,0,14.3-4.9,14.3-14.6c0-0.7,0-6.1,0-7.1c0-8.4-3.2-13.3-9.7-14.9c-0.5-0.1-0.9-0.4-1.1-0.9c0-0.1-0.1-0.2-0.1-0.3
		c0-0.1,0-0.1-0.1-0.2c0-0.1-0.1-0.2-0.1-0.3c0-0.1,0-0.1-0.1-0.2c0-0.1-0.1-0.2-0.1-0.3c0-0.1,0-0.1,0-0.2c0-0.1-0.1-0.2-0.1-0.3
		c0,0,0,0,0-0.1c-0.1-0.2-0.1-0.4-0.2-0.7c0,0,0-0.1,0-0.1c0-0.1,0-0.2-0.1-0.3c0,0,0-0.1,0-0.1c0-0.1,0-0.2-0.1-0.3
		c0,0,0-0.1,0-0.1c0-0.1,0-0.2,0-0.2c0,0,0,0,0-0.1V67.8c2.9-1.3,5.6-2.5,7-3c2.8-1,12.2-4.6,16.9-6.4c4.7-1.8,8.1-2.9,12.1-3.6
		c4-0.7,7.4,0.4,9.5,2.9c2.1,2.5,4.9,4.2,6.3,7.1c1.4,2.9,2.1,4.8,2.6,6.7l0,0.2l0,27.4l21.2,0c0,0,0-12.5,0-18.1s3.9-9,7-11.1
		c2.2-1.4,4.7-3.1,7-4v51.6c0,0.3,0,0.6,0,0.9c-0.2,1.6-0.5,2.9-0.5,3.5c-0.2,0.5-0.3,0.8-0.5,1.1c-0.2,0.2-0.5,0.5-0.7,0.8
		c0,0,0,0,0,0c-0.3,0.3-0.7,0.5-1.1,0.5c-0.8,0-1.7,0.2-2.4,0.7c-0.7,0.5-1.3,1.1-1.7,1.8c-0.2,0.4-0.4,0.8-0.5,1.2l-0.1,0.3
		c-0.1,0.3-0.1,0.6-0.1,1v26.8c0,0.5,0.1,0.9,0.2,1.4c0.4,1.2,1.3,2.2,2.4,2.6c2,0.8,4,1.2,5.9,1.2c2.1,0,4.2-0.5,6.2-1.5
		c0.8-0.4,1.2-1.3,0.9-2.1l0,0c-0.2-0.7-0.9-1.2-1.6-1.2c-5.8-0.2-8.8-2.1-8.9-5.7c-0.1-1.8,0.4-3.4,1.3-4.7c0.5-0.7,1.2-1,2-1.1
		c1.9-0.2,3.6-0.6,5.1-1.2c0.9-0.3,1.3-1.3,1.1-2.2l0-0.1c-0.2-0.8-0.9-1.3-1.7-1.4c-4.8-0.2-7.4-2.1-7.9-5.5c0-0.2,0-0.4,0-0.6
		c0-2.7,2.9-4.4,8.8-5c0.8-0.1,1.5-0.6,1.7-1.4l0,0c0.3-0.8-0.1-1.7-0.8-2.2c-0.3-0.2-0.6-0.4-1-0.6c-0.3-0.2-0.6-0.2-0.9-0.2h-1.4
		c-0.7,0-1.3-0.4-1.5-1c-0.3-0.7-0.5-1.4-0.8-2.3c-0.1-0.5-0.2-1.1-0.2-1.8V65.4c0.5-0.1,1-0.2,1.4-0.2c3.1,0,4.9,1.3,5.8,1.9
		c0.8,0.6,1,2.1,1,3.4c0,1.4,0,28.4,0,28.4l21.7,0c0,0,0-8.5,0-9.7c0-1.2-0.1-2.3,1.9-4.4c2-2.1,3.3-2.2,5.3-2.9
		c2-0.7,7.2-2.4,10.6-3.1c1-0.2,1.9-0.3,2.8-0.5v41.2c0,0.4-0.1,0.7-0.2,1c-0.3,0.7-0.7,1.4-1.1,2.1c0,0,0,0,0,0
		c-0.4,0.7-1.1,1.1-1.8,1.1c-0.5,0-1.1,0.1-1.6,0.2c-0.4,0.1-0.8,0.2-1.1,0.3c-0.6,0.3-1.2,0.7-1.6,1.1c-0.5,0.5-0.9,1.1-1.1,1.8
		l0,0.2l-0.2,1c0,0.2-0.1,0.5-0.1,0.7v18.6c0,4.7,0.1,8.1,0.4,10c0.1,0.4,0.2,0.8,0.5,1.2c0.4,0.4,0.8,0.8,1.3,1.1
		c0.3,0.2,0.7,0.3,1,0.4c1.9,0.3,3.7,0.4,5.4,0.4c9.5,0,14.3-4.9,14.3-14.6c0-0.9,0-6,0-7.1c0-7.6-2.7-12.4-8-14.4
		c-0.5-0.2-0.9-0.4-1.3-0.7c0,0-0.1,0-0.1-0.1c0,0,0,0,0,0c-0.6-0.5-1.1-0.8-2.3-1.5c0,0,0,0,0,0c-0.6-0.4-1-0.8-1.1-2.1V78.3
		c1.5-0.2,2.9-0.2,4.2-0.3c2.1-0.1,2.5,0.4,2.6,0.5l0,20.5l21.6,0l0-4.2c0,0,0-2,0.7-2.4c0.7-0.5,4-1.1,8.7-1c2.7,0.1,7,1,10.5,1.9
		v30.8c0,0.7-1.3,4.6-1.3,4.9c-0.1,0.7-0.3,2.9-0.4,3.7c0,0.2,0,0.5,0,0.7c0,3.1,0.5,24.9,0.5,24.9c0,0.7,0.3,1.4,0.9,1.7
		c0.2,0.2,0.5,0.3,0.7,0.4c0.9,0.3,1.8,0.1,2.4-0.7c0.1-0.1,0.1-0.2,0.2-0.3c0.1-0.2,0.2-0.5,0.3-0.8c0.1-0.9,0.2-1.6,0.2-2.2
		c0-0.1,0-0.2,0-0.2l0.2-1.6c0-0.1,0-0.2,0-0.4c0,0-0.5-23.8-0.5-24.9c0,0,0-0.1,0-0.1c0-0.5,0-0.9,0-0.9s-0.6,0-1.1-1.7
		c-0.2-0.6-0.4-1.5-0.6-2.4c-0.1-0.5-0.1-1-0.1-1.6v-29c2,0.5,3.7,1,4.6,1.3c2.2,0.7,3.3,2.2,3.6,2.8V99l40.2,0v22.4
		c0,1.4-0.1,2.4-0.3,2.9c0,0,0,0,0,0.1c-0.3,0.7-1,1.1-1.8,1.1h-2.8c-0.2,0-0.3,0-0.5,0.1c-1,0.3-1.8,0.8-2.4,1.4
		c-0.3,0.3-0.4,0.6-0.5,0.9c-0.1,0.3-0.1,0.7,0.1,1.2c0.2,0.4,0.4,0.5,0.5,0.5c0.2,0.1,2.9,1.5,4,2.4c0.8,0.7,1.2,1.7,1.2,2.7
		l0.3,22.5c0,0.2,0,0.5,0.1,0.7c0.1,0.4,0.3,0.8,0.5,1.2c0.6,1.1,1.9,1.6,3,1c1.1-0.6,1.7-1.6,1.7-3.2c0-0.3,0-0.5-0.1-0.8
		c0-0.1,0-0.2,0-0.3l0.3-21.1c0-1.1,0.5-2.1,1.4-2.8c0.9-0.7,1.8-1.2,2.7-1.5c0.3-0.1,0.7-0.3,0.9-0.5c0.1-0.1,0.2-0.2,0.3-0.3
		c0.3-0.3,0.5-0.7,0.5-1.2v-0.5c0-0.4-0.2-0.8-0.5-1.1l-0.3-0.3c-0.2-0.2-0.4-0.3-0.7-0.4c-0.9-0.3-1.8-0.4-2.6-0.4h-1
		c-0.4,0-0.9-0.1-1.2-0.4c-0.1-0.1-0.3-0.2-0.4-0.4c0,0-0.1-0.1-0.1-0.1c-0.1-0.1-0.2-0.2-0.3-0.3c0,0-0.1-0.1-0.1-0.1
		c-0.1-0.2-0.2-0.3-0.3-0.5c-0.1-0.1-0.1-0.3-0.1-0.4c-0.1-0.2-0.1-0.4-0.2-0.6V99l3.5,0v-5.8c0,0-0.1-2.6,1.8-3.4
		c1.8-0.8,8.7-3.7,10.8-4.3c2.1-0.6,4.8-0.5,5.8,0.1c0.4,0.3,0.8,0.8,1,1.3l0,12.2l19.7,0v20c-0.1,1.2-0.6,4.3-1.4,8
		s-0.5,6.2-0.5,6.3l0.5,24.9c0,0.7,0.3,1.4,0.9,1.7c0.2,0.2,0.5,0.3,0.7,0.4c0.9,0.3,1.9,0,2.4-0.8c0.1-0.1,0.1-0.2,0.2-0.2
		c0.1-0.2,0.2-0.5,0.3-0.8c0.1-0.9,0.2-1.6,0.2-2.2c0-0.1,0-0.2,0-0.2l0.2-1.6c0-0.1,0-0.2,0-0.4c0,0,0-17.9-0.5-24.7
		c0-0.5,0-1.1-0.2-2c0-0.2-0.1-0.4-0.1-0.5c-0.2-0.8-0.4-1.5-0.6-2.2c-0.1-0.2-0.1-0.4-0.2-0.7c-0.4-1.3-0.4-3.5-0.7-4.9V99l24.6,0
		l0-3.8c1-1.4,2.5-1.1,6.6-1.1c2.5,0,11.1,0.6,19.9,1.3V117c0,0.2,0,0.5-0.1,0.8c0,0,0,0,0,0c0,0.3-0.1,0.6-0.2,1c0,0,0,0,0,0
		c-0.1,0.3-0.1,0.7-0.2,1c0,0,0,0,0,0c-0.1,0.3-0.2,0.7-0.3,1c0,0,0,0,0,0c-0.4,1.3-1.4,2.3-2.7,2.7c-1.4,0.4-2.7,1-3.8,1.8
		c-1.1,0.7-1.9,1.8-2.4,3l0,0c-0.1,0.3-0.2,0.6-0.3,1c0,0-0.8,2.4-1,4.5v16.2c0,0.4,0,0.9,0.1,1.3c1.5,6.1,5,9.2,10.6,9.2
		c1,0,2.1-0.1,3.2-0.3c6.1-1,9.2-5.9,9.2-14.7c0-1.8-0.1-3.7-0.4-5.8c0-0.4-0.1-0.8,0-1.2c0.1-1,0.1-2,0.1-3
		c0-6.5-2.5-10.4-7.3-11.9c-1.4-0.4-2.4-1.6-2.7-3c0,0,0,0,0,0c0-0.2-0.1-0.5-0.1-0.7c0,0,0,0,0,0c-0.2-1-0.3-1.8-0.4-2.4
		c0,0,0-0.1,0-0.1c0-0.1,0-0.2,0-0.3c0-0.2,0-0.3,0-0.3s0,0,0,0V95.5c6.1,0.5,12.2,0.9,16.5,1.2c10.8,0.8,20.1,2.5,20.1,2.5h11.4
		c-0.2-0.6,0-1.4,0.6-1.5c0.3,0,0.6,0.3,0.6,0.8c0,0.3,0,0.5-0.1,0.7h8.3v32.1c0,0.8-0.2,1.6-0.4,2c0,0,0,0,0,0
		c-0.3,0.5-1.1,0.4-1.3-0.2c-1.7-4.5-3.8-7.2-6.2-8.1c-1-0.4-2.2-0.2-3,0.6c-0.4,0.3-0.7,0.7-0.9,1c-0.2,0.3-0.4,0.7-0.5,1.1
		l-0.1,0.4c0,0.2-0.1,0.4-0.1,0.6v21.1c0,3.2,0.1,5.6,0.4,7.2c0.1,0.8,0.6,1.5,1.2,1.8c0.4,0.2,0.7,0.3,1.1,0.3c0.5,0,1-0.2,1.5-0.7
		c0.5-0.5,0.8-1.2,0.8-1.9l0.2-11.7c0-0.9,0.2-1.8,0.5-2.6c0,0,0,0,0,0c0.4-1,1.7-1.2,2.4-0.4c0.1,0.2,0.3,0.3,0.4,0.5l2.7,6.6
		c0,0,1.9,4.4,1.9,4.4c0.8,1.6,2.8,5.2,3.5,5.9c1.2,1.1,3,1.3,4.3,0.3c0.9-0.6,1.5-1.5,1.9-2.5c0.2-0.6,0.4-1.5,0.4-2.1V153
		c0-0.7-0.3-10.4-0.3-10.4c0-11.1-0.7-16.7-2.2-16.7c-0.5,0-1.1,0.5-1.8,1.4c-0.6,0.7-0.9,1.6-0.9,2.6l0,8.3c0,4.4-0.5,6.6-1.5,6.7
		c-0.8,0.1-2.4-5.1-2.9-13.4V99.3H815.8z M837.7,40.4c-1.2,0.1-1.1-1.1-0.1-1.1c0.3,0,0.7,0.1,0.7,0.5
		C838.3,40.2,838.1,40.4,837.7,40.4z M837.5,30.8c0.3,0,0.7,0.2,0.7,0.6c0.1,0.5-0.2,0.8-0.6,0.9C836.4,32.4,836.6,30.8,837.5,30.8z
		 M837.5,35.2c0.3,0,0.7,0.2,0.7,0.6c0.1,0.5-0.2,0.8-0.6,0.9C836.4,36.8,836.5,35.2,837.5,35.2z M830.2,14.9c0.3,0,0.6,0.2,0.7,0.6
		c0,0.5-0.2,0.8-0.6,0.8C829.2,16.4,829.3,14.9,830.2,14.9z M9.7,16.3c0-0.2,0.1-0.4,0.6-0.4c0.2,0,0.4,0.1,0.5,0.4
		C10.9,16.9,9.7,17.1,9.7,16.3z M124.9,38.9c1.3,1,2.2,4.3,2.2,6c0,3.2-1.7,6.1-5.4,5.1c-1.2-0.3-4.7-1.6-6.2-2.4
		c-1.5-0.8-1.3-1.4-1.1-2.1c0.7-3.3,4.4-5.4,7.2-6.6C122.6,38.4,124.1,38.3,124.9,38.9z M120.1,34.1c0.8-0.2,1.4-0.1,1.7,0
		c0.3,0.2,0.2,0.5-0.5,1.2c-0.5,0.5-2.7,2.8-4,4c-1.2,1.1-2,1.9-3.2,2.8c-1.2,0.9-3.1,2-5.2,2.6c-2.1,0.5-2.7,0.7-5.5,0.6
		c-0.8,0-3.5-0.5-3.3-2c0-0.3,1.7-0.8,2.6-1.3c3.7-2.2,4.4-2.6,8.9-4.3c2.7-1,5.2-2.1,6.5-2.6C119.4,34.5,119.6,34.2,120.1,34.1z
		 M98.2,16.4c0.2-0.8,1-1.1,1.7-0.5c0.7,0.6,4.2,3.9,6.8,5.7c2.7,1.8,4,3.3,5.9,5.1c1.3,1.3,2.2,2.6,2.9,3.3c1.4,1.4,1.3,2-0.6,3.5
		c-2.2,1.7-3.3,2.9-6.2,3.9c-1.7,0.6-7.1,3.5-9.4,3.5c-1,0-1.2-1.9-1.2-3.3C98.1,37.7,98.1,17.1,98.2,16.4z M97.8,49.3
		c0-0.5,0.2-2.9,0.8-3.1c0.5-0.2,1.6-0.1,2.3,0.1c0.7,0.2,2.4,1.4,2.8,2c0.5,0.6,0.7,1.4,0.4,2.2c-0.5,1.3-2.3,3.9-3.4,4.6
		c-1.7,1-2.9-0.1-2.9-1C97.8,53.1,97.8,50.9,97.8,49.3z M84.6,24.3c0.3,0,0.7,0.2,0.7,0.7c0.1,0.4,0,0.9-0.2,1.1
		c-0.4,0.4-1.2,0.2-1.2-0.8C83.8,24.8,84,24.3,84.6,24.3z M84.7,37.8c0.1,0.5-0.2,0.8-0.6,0.8c-0.3,0-0.8-0.2-0.8-0.7
		C83.3,37.1,84.6,37,84.7,37.8z M82.9,28.8c0.3,0,0.6,0.2,0.7,0.7c0.1,0.6-0.2,1-0.6,1C81.9,30.7,82,28.8,82.9,28.8z M67.5,39.2
		c3.8,0.3,5.3,1.4,6.5,2.1c2.4,1.5,2,5,2,8.8c-0.5,0.5-1.7,0.5-3.2,0.3c-2-0.2-3.3-0.8-5.1-2.7c-1.8-1.8-2.9-2.6-3.6-5.1
		C63.5,40.2,63.7,38.9,67.5,39.2z M48.5,16.5c0.4-0.2,1.7,2.8,4,7.1c0.3,0.5,4.7,7.9,4.3,10.4c-0.4,2.6-4.9-1.1-5.6-1.9
		c-1-1.1-1.9-3.1-2.6-4.7c-0.7-1.6-0.7-5-0.8-6.9C47.7,18.5,48.1,16.6,48.5,16.5z M36,26c3.6,0.5,6.5,2.2,7.4,2.9
		c0.9,0.7,0.1,2.3-2.2,1.9c-2.7-0.3-11.8-1-12.9-3.6C27.5,25.4,32.4,25.5,36,26z M27.8,15.7c0.2,0,0.4,0.1,0.5,0.7
		c0.1,1.3-1,1.7-1,0.1C27.3,16.2,27.3,15.7,27.8,15.7z M22.2,28.4c-0.1-0.8,1-0.4,1,0.4c0,0.8,0.6-0.3,0.8,0.9
		c0.2,1.2,1.8,0.8,1.9,0.5c0.1-0.4,1.5-0.3,5,0.3c3.4,0.7,6.1,1.8,6.8,2.7c0.8,0.9,0.6,3.3-0.2,5.5c-0.8,2.2-2.2,4-3.3,4.5
		c-4,1.9-7.3-2.2-9.4-5c-1.2-1.6-1.7-3.3-1.7-4.5c0.1-1.2-0.1-1.7-0.7-2.1C21.8,31.2,22.2,29.2,22.2,28.4z M26.2,64.3
		c-0.8,0.3-1-0.4-1.1-0.8c0-0.8,1.4-1.6,1.5-0.1C26.7,63.8,26.7,64.2,26.2,64.3z M23.4,52.1c0.3,0,0.5,0.1,0.6,0.9
		c0,0.4,0,0.8-0.4,0.8c-0.9,0.1-0.2-1.5-0.9-1.3c-0.6,0.2-0.8-1.3,0-1.3C23.5,51.3,22.9,52.2,23.4,52.1z M15.7,42.4
		c0.2,0,0.5,0.1,0.6,0.5c0,0.3,0,0.5-0.2,0.7c-0.3,0.2-0.9,0.1-1-0.5C15.1,42.7,15.3,42.4,15.7,42.4z M16.5,47.2
		c0,0.3,0,0.7-0.2,0.8c-0.4,0.3-1,0.1-1-0.6c0-0.4,0.2-0.8,0.6-0.8C16.2,46.6,16.5,46.8,16.5,47.2z M16.5,57.5c-0.9,0.1,0-0.9-1-0.9
		c-0.3,0-0.2-0.3-0.2-0.7c0-0.4,0.4-0.3,0.9-0.2c0.5,0.1,1,0.2,1,0.8C17,57,16.8,57.4,16.5,57.5z M17.3,16.6c-0.9,1.4-2.4,0.8-2-0.4
		c0.3-0.6,0.9-0.4,1.4-0.5c0.8-0.1,1.7-1.9,2.8,0.1c0.9,1.8-0.5,2.4-1.3,1.3C17.9,16.6,17.6,16.5,17.3,16.6z M19.6,27.4
		c0,0.8-0.5,1.1-0.9,1.1c-0.4,0-0.8-0.4-0.8-1.1c0-0.9,0.5-1.3,0.9-1.3C19.3,26.1,19.6,26.6,19.6,27.4z M17.6,36.1
		c0-0.4,0.2-0.7,0.7-0.8c0.3,0,0.7,0.2,0.7,0.6c0.1,0.3,0,0.7-0.2,0.8C18.4,37,17.6,36.9,17.6,36.1z M19.1,48.8
		c0.2,0,0.5,0.1,0.5,0.4c0,0.2,0,0.4-0.2,0.6c-0.3,0.2-0.8,0.1-0.8-0.4C18.6,49,18.8,48.8,19.1,48.8z M20.2,58.2
		c-0.9,0.1-0.2-0.9-0.9-0.9c-0.7,0-0.6-1.3-0.6-1.5c0-0.3,0.2-0.7,0.5-0.7c0.9,0,0.2,1.5,0.7,1.4c0.3,0,0.6,0.1,0.6,0.9
		C20.6,57.8,20.5,58.2,20.2,58.2z M11.7,78.4c-1.1,0.7-2.1,0.7-2.5-1.8c-0.1-0.9,0.3-1.5,2.1-2.4c1.8-0.9,2.8-1.1,3.4-1.1
		c0.7,0.1,0.2,0.9-0.7,2.3C13.5,76.3,12.9,77.7,11.7,78.4z M18.9,95.9c-0.3,0.8-0.5,0.5-0.9,0.6c-0.4,0.2-0.1,0.9-0.1,1.7
		c0,0.6-0.3,0.8-0.5,0.8c-0.3,0-0.7-0.3-0.6-1.4c0-0.5-0.9-0.7-1.3-1c-0.4-0.3-0.7-0.8-0.3-1.1c0.4-0.4,0.7-0.3,1.2,0
		c0.5,0.3,0.5,0.7,0.9,0.9c0.4,0.2,0.5-0.3,0.5-0.8c0-0.5,0.2-0.7,0.6-0.8C18.6,94.7,19.2,95.1,18.9,95.9z M22.2,92.2
		c-0.4,0.3-1.1,0.1-1.1-0.6c0-0.3,0.2-0.7,0.7-0.7c0.3,0,0.6,0.2,0.7,0.5C22.4,91.7,22.4,92,22.2,92.2z M27.2,79.5
		c-2,1-3.8,1.4-8,1.4c-3.7,0-5.3-0.4-5.6-1.5c-0.3-1,0.8-2.7,2.6-5c1-1.4,3.4-4.4,4.9-5.6c1.5-1.2,5.4-1.4,7.5-0.1
		c2.1,1.4,2.4,3.1,2.4,5.2C30.9,75.9,29.2,78.4,27.2,79.5z M30.8,93.1c0-0.4,0.1-1.3,0.9-1.3c0.4,0,0.8,0.4,0.8,1.1
		C32.6,94.4,30.8,94.9,30.8,93.1z M33.6,80.5c-0.8,0-0.9-0.7-0.9-1.1c0-1.5,1.9-1.1,1.7,0.1C34.3,80.1,33.9,80.5,33.6,80.5z
		 M33.2,72.2c0-0.8,0.4-1.1,0.8-1c0.3,0,0.5,0.1,0.6,0.9C34.7,73.6,33.2,74,33.2,72.2z M50.6,59.1c-1,0.2-2.5-0.3-3.3-1.2
		c-1.9-2.3-5.6-5.3-12.3-10.6c-0.8-0.6-0.1-1.5,0.5-2.4c0.7-1,2.3-3.2,3.9-5.4c1.6-2.2,3.7-5.2,4.6-5.7c0.9-0.5,3-0.4,4.6,0.7
		c1.9,1.3,10.5,11.6,11.5,13.4c1.3,2.3,2.3,4.5,1.1,6.1c-1.2,1.6-4.1,3.4-6.6,4.4C52.2,59.2,50.6,59.1,50.6,59.1z M69.8,63.2
		c-0.3,1-4.6,6.8-7.3,9.4c-3.2,3.1-9,10.1-11,9.9c0,0,0.7-3.3,0.9-7c0.2-3.8-0.8-9.7-1.1-10.9c-0.3-1.2-0.5-2.8-0.1-3.4
		c0.4-0.5,2.3-1.2,4.9-2.2c2.7-1,5.4-1.5,7.6-1.7c2.2-0.2,2.9-0.2,3.5,0.4c0.5,0.5,2.3,2.4,2.7,3.3C70.3,61.8,70.1,62.2,69.8,63.2z
		 M74,59.8c-1-0.3-1.9-1.6-2.6-2.9c-0.7-1.4-0.5-2,0.9-3c1.1-0.8,2.5-1.8,3.7-1.7v6.1c0,0-0.1,0-0.1,0S75,60,74,59.8z M76.1,64.8
		c-0.1,0.9-1.6,0.4-0.8-1.4c0.2-0.5,0.9-0.6,0.9-0.2C76.1,63.6,76.1,64.4,76.1,64.8z M82.8,63.8c0-0.7,1-0.8,1-0.1
		C84,64.5,82.8,64.7,82.8,63.8z M82.6,49.1c0-0.9,1.5-0.9,1.6,0C84.2,50.1,82.6,50.3,82.6,49.1z M84,46.5c-0.8-0.4-1.5-1.2-1.5-2
		c0-1,0.8-1.2,1.8,0.1c0.3,0.4,1.1,0.8,1.2,1.3C85.5,46.8,84.6,46.8,84,46.5z M127.2,76.9c0,2.6-1.7,6.6-3.8,8
		c-1.5,1-6.9,3.5-9.9,4.6c-3,1-8.1,2.9-10.7,3.3c-2.5,0.3-3.6-1.2-4.1-2c-0.5-0.8-1-3.8-1-9.4c0-5.5,0.1-14.9,0-16.6
		c-0.2-3.1,1.4-6.1,3.6-8.1c2.4-2.2,5.6-4.7,7.5-5.5c1.9-0.8,6.5-0.7,8.4-0.5c2,0.1,2.9,0.6,4,0.7c1.1,0.1,1.4,0.1,2.8,1.3
		c1.4,1.2,2.5,2.9,2.9,3.8c0.2,0.5,0.3,1,0.4,1.4L127.2,76.9z M130,93.3c-0.4,0.3-1.2,0.2-1.3-0.7c0-0.4,0.2-0.9,0.8-0.9
		c0.3,0,0.7,0.2,0.8,0.7C130.3,92.7,130.2,93.1,130,93.3z M130.1,87.2c0.6,0.8-0.3,1.9-1.2,0.9c-0.5-0.5-0.7-1.4-0.7-1.9
		c0-0.3,0-0.6,0.1-0.9c0.4-1.4,1.9-1.4,2.1-0.5c0.1,0.4-0.6,0.9-0.5,1.5C129.9,86.8,130,87.1,130.1,87.2z M128.9,68.8
		c0-0.4,0.2-0.9,0.6-0.9c0.2,0,0.5,0.2,0.6,0.7c0,0.4,0,0.8-0.2,1C129.5,69.8,128.9,69.6,128.9,68.8z M133,31.3
		c-0.4,0.4-0.5,0.3-0.9,0.7c-0.3,0.4-0.3,0.8-0.8,0.9c-0.5,0.2-1-0.1-0.8-1.2c0,0,0.1-0.7,0.4-1.1c0.3-0.3,0.4-0.5,0.3-0.8
		c-0.1-0.3-0.3-0.6-0.6-0.9c-0.3-0.3-0.8-0.5-1.1-0.8c-0.6-0.5-0.8-0.5-0.7-1.2c0-0.7,0.7-0.9,0.4-1.4c-0.2-0.5-0.5-0.8-0.3-1.4
		c0.2-0.6,1.1-0.5,1.3,0.1c0.2,0.6,0.1,0.9,0.5,1c0.4,0.1,1,0.3,0.8,0.9c-0.1,0.6-0.3,1.3,0.1,1.9c0.5,0.5,1.1,0.8,1.3,1.4
		C133.3,30.1,133.3,30.9,133,31.3z M134.9,27c-0.3,0.2-0.8,0.1-0.8-0.5c0-0.3,0.1-0.5,0.5-0.5c0.2,0,0.5,0.1,0.5,0.4
		C135.2,26.7,135.1,26.9,134.9,27z M141,69.4c-0.3,0.3-0.9,0.2-1-0.7c0-0.4,0.2-0.9,0.6-0.9c0.2,0,0.5,0.2,0.6,0.7
		C141.3,68.8,141.2,69.2,141,69.4z M175.7,64.6c0.3-0.3,0.9-0.1,1.4-0.2c0.5-0.1,0.6,0.5,0.2,0.6C177.1,65.2,174.6,65.6,175.7,64.6z
		 M170.6,67.1c0.2-0.3,0.6-0.1,1-0.7c0.2-0.3,0.6-0.4,0.7-0.1c0.2,0.3-0.3,0.6-0.7,0.8c0,0-0.3,0.5-0.7,0.6
		C170.8,67.7,170.5,67.3,170.6,67.1z M168.9,69.6c0.7,0,0.8,0.3,0.5,0.6c-0.4,0.3-0.5,0.3-0.9,0.8c-0.3,0.4-1.5,0.6-1.4,0
		c0.1-0.4,0.1-0.4,0.7-0.7C168.4,70,168.2,69.6,168.9,69.6z M164.6,67.8c0.2-0.4,0.7-0.2,1-0.7c0.3-0.5,2.1-0.5,2.2,0
		c0.2,0.4-0.2,0.6-0.6,0.7c-0.3,0.1-0.8,0.2-1.2,0.6C165.7,68.8,164,69.1,164.6,67.8z M148.1,65.3c0-1.8,0-4.3,0.4-5
		c0.4-0.7,0.7-1.3,2.2-1.3c2-0.1,6,4.9,6.2,5.9c0.2,1-0.1,1.3-0.8,2.1c-0.7,0.8-2.8,1.7-2.8,1.7c-1.2,0.9-2,0.6-3,0.9
		C147.9,70.2,148.1,67,148.1,65.3z M149.9,74.7c-1.2,0-1.8-0.4-1.8-0.6c0-0.2,0-2.2,0-2.5c0-0.3,0.7-0.3,1.5-0.4
		c0.8-0.1,1.4-0.5,2.5-0.7c1.1-0.2,6.2-1.5,7.9-1.8c1.8-0.2,3.1-0.3,3.4,0c0.4,0.4,0.2,0.8,0.2,1.1c-0.1,0.8-1.3,0.9-1.7,1.1
		c-0.9,0.5-3,1.1-3.9,1.5c-0.9,0.5-3.4,1.4-4.3,1.9C152.7,74.8,151.1,74.7,149.9,74.7z M162.4,77.9c-1.4,1.2-1.7,1.8-3.1,2
		c-0.8,0.1-5.5,0.2-6,0.1c-0.5-0.1-0.8-0.5-0.7-1.3c0.3-1,2.8-2.1,3.7-2.7c0.6-0.4,1.2-1,1.8-1.2c1.1-0.5,2.5-1.1,3.4-1.7
		c1-0.6,3-2,3.9-1.9c0.9,0,0.9,0.5,0.8,1.1c0,0.6-0.4,0.9-1.1,1.8C164.6,75.1,163.8,76.7,162.4,77.9z M172.3,77.6
		c-0.2,0.4-0.7,1-1.7,1.6c-1.9,1.1-2.5,0.9-4.3,1c-1.1,0-2.4,0.1-2.6-0.2c-0.3-0.5-0.4-1,0.5-1.9c0.9-0.9,1.7-1.6,2.6-2.2
		c0.9-0.6,2.3-1.8,2.8-1.8c0.5,0,1.3,0.7,1.8,1.3C172.2,76.1,172.7,76.7,172.3,77.6z M175,75.4c-1.1,0.5-2.2-0.1-2.7-0.7
		c-0.4-0.7-1.8-1.3-1.9-2.4c-0.1-1.1,0.3-1.7,1-2.4c0.7-0.7,2.8-2.2,4.4-2.9s3.8-1.6,5.5-2.2c0.9-0.4,2.2-0.3,3.1-0.9
		c0.7-0.4,2.4-0.4,3-0.4c0.8,0.1-0.1,0.9-1,2c-0.6,0.7-1.2,1.8-1.5,2.1c-1.8,2-3,2.8-4.5,4.1C179,73,175,75.4,175,75.4z M192.2,89.9
		c-0.2,0.3-0.8,0.7-1.8,0.1c-1.4-0.9-4.8-4.2-6.3-5.5c-1.5-1.3-4.8-4.2-4.6-6.4c0.3-2.2,2.3-4.3,3.9-6.7c1.6-2.3,5-5.9,5.6-6.4
		c0.7-0.5,1.3-1.1,2.2-0.3c0.7,0.7,0.9,1.9,1,2.4V89.9z M192.2,58.3c-0.2,0.4-0.8,1.2-2.4,1.8c-1.7,0.6-3,1.2-4.3,1.5
		c-1,0.2-2.7,0.3-3.5,0.7c-1,0.5-4.3,0.9-4.4,0.6c-0.1-0.4,0.9-0.6,2-1.4c1.1-0.8,2.1-1.2,3.5-2c1.4-0.8,4.3-3.1,6.3-4.6
		c1.6-1.2,2.6-1.1,2.8-1V58.3z M198.2,146.5c-0.1,0.9-0.6,1.6-1.4,2c-0.5,0.2-1,0.4-1.5,0.4c-0.8,0-1.5-0.3-2.1-0.9
		c-0.4-0.4-0.6-1-0.5-1.5c0.2-2.3,0.9-4.3,1.9-6.1c0.2-0.4,0.8-0.5,1.2-0.2c1.7,1.5,2.5,3.3,2.5,5.6
		C198.3,145.9,198.2,146.2,198.2,146.5z M204.4,17.4c0.4,0,0.8,0.1,0.8,0.5c0.1,0.4-0.3,0.6-0.8,0.7
		C203.1,18.6,203.3,17.5,204.4,17.4z M205.4,42.5c0.1,0.6-0.3,1-0.7,1c-1.4,0.1-1.2-1.8-0.1-1.8C204.9,41.7,205.3,42,205.4,42.5z
		 M201.9,19.4c0.3,0,0.6,0.2,0.6,0.5c0,0.5-0.2,0.7-0.6,0.8C200.9,20.8,201,19.4,201.9,19.4z M200.9,70.4c0.4,0,0.7,0.2,0.8,0.7
		c0.1,0.6-0.3,0.9-0.7,1C199.7,72.2,199.9,70.4,200.9,70.4z M199.6,17.2c0.3,0,0.6,0.2,0.6,0.5c0,0.5-0.2,0.7-0.6,0.8
		C198.6,18.6,198.7,17.2,199.6,17.2z M197.1,56.1c0.3,0,0.7,0.2,0.7,0.7c0.1,0.6-0.2,0.9-0.7,0.9C196,57.8,196.1,56.1,197.1,56.1z
		 M194,51.5c0.3,0,0.6,0.2,0.6,0.6c0.1,0.5-0.2,0.8-0.6,0.8C193,53,193.1,51.5,194,51.5z M194,71.8c-1,0.1-0.9-1.3-0.1-1.3
		c0.3,0,0.6,0.2,0.6,0.5C194.6,71.5,194.3,71.8,194,71.8z M193.9,67.3c-1.3,0.1-1.1-1.6-0.1-1.6c0.4,0,0.7,0.2,0.8,0.7
		C194.7,66.9,194.4,67.2,193.9,67.3z M206.4,87.4c-0.3,0.4-0.5,0.4-0.7,0.4c-0.5,0-0.5-0.6-0.7-0.7c-0.1-0.1-0.3-0.1-0.8-0.1
		c-0.8,0-1.4,0.5-1.7,1.2c-0.4,0.7-1,1.4-1.8,1.9c-0.8,0.5-0.4,1-1.1,1.1c-0.1,0-1.1,0-1.9,0c-0.6,0.1-1,0.2-1.2,0
		c-0.6-0.7,0.1-1.6,0.9-1.1c0.4,0.2,0.6,0.5,0.9,0.3c0.4-0.2,0.2-0.8,0.2-1.2c0-0.4-0.4-0.9-0.2-1.3c0.2-0.4,1.2-0.3,1.7-0.3
		c0.5-0.1,0.8-0.3,0.8-0.8c0-0.4,0-1.3,0.4-1.6c0.6-0.4,0.9-0.6,1.6-0.4c0.5,0.2,0.6,0.4,0.7-0.1c0.1-0.4,0.6-0.7,1.2-0.5
		c0.6,0.2,0.6,0.5,1.1,1.2C206.2,86.1,206.8,86.9,206.4,87.4z M206.3,56.7c-1.5,0.1-1.3-1.9-0.1-1.9c0.4,0,0.8,0.2,0.9,0.8
		C207.1,56.3,206.8,56.7,206.3,56.7z M256.2,38.3c0.4-0.9,2.9-2.4,3.5-3s2-0.5,2.5-0.3c0.5,0.2,0.6,1.8,0.7,2.9
		c0.1,1.1-0.2,1.9-0.5,2.9c-0.4,1-1.3,1.4-1.3,1.4c-1.1,0.9-2.4,0.2-3-0.4c-0.5-0.7-0.9-0.8-1.7-1.6
		C255.5,39.3,255.7,39.2,256.2,38.3z M251.7,40c2.4,0.1,3,0.1,3.9,1.2c0.9,1,1.6,1.4,1.6,2c0,0.7-0.8,1.8-2.1,2.7
		c-1.3,0.9-2.9,2.5-4.3,3.3c-1.4,0.8-3,2.2-4.4,2.8c-1.4,0.7-3.1,1.7-5,2.8c-2,1.1-2.1,1.4-3.3,1.7c-1.2,0.3-1.5-0.2-2.3-1.2
		c-0.8-1-0.8-4.2-0.4-5.6c0.4-1.4,1.4-3,2.2-3.8c0.9-0.9,1.8-1.6,2.9-2c1-0.4,3-1.5,5.3-2.7C247.3,40.3,249,39.9,251.7,40z
		 M246.5,37c0.7-0.4,1.1-0.4,2.1-0.4c0.9,0,1.5,0.1,1.1,0.7c-0.4,0.7-0.6,0.3-2,1.1c-1.3,0.8-2.5,2-4.5,2.8c-2,0.9-1.8,1-3.3,1.6
		c-1.5,0.6-3.1,1.8-4.2,2.3c-2.8,1.3-7,2.6-10,2.4c-1-0.1-2.9-0.5-4-1.1c-1-0.5-1.6-1-1.6-2.1c-0.1-2,6.9-3.1,8.8-3.5
		c4.3-1,8.8-2.2,11.7-2.6C243.5,37.8,245.9,37.4,246.5,37z M226.9,62.5c0,1-0.6,1-1.6,1.6c-0.8,0.4-2,0.5-3.1,1.3
		c-1.1,0.8-2.5,1.5-4.1,2.4c-1.6,0.8-2.6,1.4-3.9,1.4c-1.2,0-1.2-1.1-1.2-1.1s0-1.7,0-2.7c0-1,0.8-1,1.8-1.5c1-0.5,2.8-1.4,3.5-1.8
		c0.7-0.4,2.3-0.3,4.2-0.3c0.9,0,1.8,0,2.5,0C226.1,61.8,226.9,61.6,226.9,62.5z M232.6,14.7c0.3,0,0.6,0.3,0.6,0.8
		c0,0.7-0.2,1.1-0.6,1.1C231.6,16.8,231.7,14.7,232.6,14.7z M213.1,35c0.1-2.8,0.2-4.4,0.5-5.3c0.4-0.9,1.6-2.2,2.7-2.9
		c1.1-0.7,1.6-0.7,4.1-0.7c2.5,0,10.5,0,13.7,0.1c3.1,0.1,3.7,1.5,5.4,2.9c0.6,0.5,5.3,4,4.3,5c-0.6,0.6-2.4,1.8-4.2,2.5
		c-1.7,0.6-5.2,1.5-7.8,2.1c-2.6,0.6-6,1.5-7.8,2.1c-1.8,0.5-4.7,1-6.9,1.8c-1,0.4-1.8,0.5-2.3,0.1c-1.7-1-1.8-2.6-1.8-5.1
		C213,36.4,213.1,36.2,213.1,35z M213.2,61.9c0.3-0.4,1.1-0.2,2-0.2c1,0,0.8,0.4,0.7,0.5c-0.3,0.4-0.9,0.4-1.5,0.7
		c-0.4,0.3-0.6,0.5-0.6,0.6C213,63.8,212.9,62.3,213.2,61.9z M211,24.7c-1.1,0.1-1-2-0.1-2c0.3,0,0.6,0.3,0.7,0.8
		C211.7,24.3,211.4,24.7,211,24.7z M213.4,80.9c-0.4,0.1-0.9,0.1-1-0.3c-0.1-0.7,0.4-0.6,0.4-1c0-0.4,0.3-0.5,0.5-0.5
		c0.3,0,0.6,0.2,0.7,0.7C214.1,80.5,213.8,80.9,213.4,80.9z M214.9,76.8c-0.5,0.7-1.8,0.6-1.8-0.2c0-0.5-0.1-1.4,0.4-2.4
		c0.5-1,1.2-2.2,2.5-3.3c1.3-1.1,1.8-1.6,3.5-2.3c1.6-0.8,2.7-0.9,3-0.7c0.3,0.2,0,0.8-0.5,1.5c-0.5,0.7-2.4,2.7-3.9,4.3
		C217.9,73.8,215.5,75.9,214.9,76.8z M224.5,98.3c-0.4,0.5-1.2,0.2-1.2-1c0-1.5,1.3-1.6,1.4-0.3C224.8,97.5,224.7,98.1,224.5,98.3z
		 M230.4,80.3c-2.7-0.1-11.6,0.1-12.4-0.2c-0.8-0.3-1.7-1.4-1.6-2.3c0.1-0.9,0.3-1.1,1.1-2c0.8-0.9,3.4-3.3,6-5.9
		c2.7-2.6,2.6-3.3,3.4-4.3c0.8-1,2.4-2.3,3.4-3.1c1-0.8,1.4-0.9,2.2-0.9c0.8,0,0.9,0.3,1.7,0.9c0.9,0.6,2.1,1.5,3.3,2.3
		c1.2,0.7,3.3,2.5,5.4,4.7c3,3.1,4.6,4.5,1.4,7.2c-1.4,1.1-2.3,1.6-3.7,2.1C236,80.4,235.8,80.5,230.4,80.3z M250.1,87.5
		c-0.7,0.7-1.8,1.3-2.5,2c-1.1,1-3,2.2-4.2,2.8c-1.1,0.7-2.7,1.5-3.4,2c-0.7,0.4-0.9,0.6-1.7,0.1c-0.8-0.5-0.9-1.4-0.9-2.2
		c0-0.5,0-4,0-6.2c0-2.2-0.2-2.7,2-2.9c1.8-0.1,3,0.2,5.6,0.2c1.7,0,2.8,0.3,3.9,0.6c0.7,0.2,3.1,0.8,3.1,1.8
		C252.1,86.1,250.6,87,250.1,87.5z M253.6,81.8c-1.5,0-3.5,0.3-5.2,0.3c-1.7,0.1-4.3-0.3-5.9-0.4c-1.6-0.1-2.2-0.4-1.9-1
		c0.3-0.7,2.2-1.5,4.2-2c2-0.5,5-0.6,6.6-0.5c1.6,0.1,2.2,0.2,2.9,0.9c0.7,0.6,1.8,1.5,2.1,2.1C256.8,81.9,255.1,81.8,253.6,81.8z
		 M262.9,79.8c-0.1,0.2-0.2,0.4-0.3,0.5c-0.5,0.4-1.6,0.7-2.7,0.7c-1.1-0.1-2.4-0.3-3.5-1.3c-1.1-1-1.6-2.4-1.9-3
		c-0.3-0.7,0.1-0.9,0.8-1.2c0.7-0.3,1.4-0.2,2.7-0.7c1.3-0.5,1.9-1.1,2.9-1c1,0.1,1.5,0.8,1.8,1.4l0,0.1L262.9,79.8z M262.9,67.5
		l-0.3,0.2c0,0-0.1,3-0.4,3.5c-0.3,0.4-0.4,0.9-1.3,1.1c-0.9,0.2-1.8,0.5-2.5,0.8c-0.8,0.3-3.6,0.1-5.4,0.1c-1.8,0-2.1-0.2-3.8-1
		c-1.7-0.8-2.3-1.6-3.7-2.4c-1.4-0.8-5-4.4-5.9-5.6c-0.9-1.2-1.2-1.3-1.6-1.8c-0.4-0.5-0.3-1.9,0.7-2.7c0.9-0.8,2-3.1,7-5.7
		c5-2.6,7.9-4.4,9.5-5.2c1.6-0.8,2.3-1.3,3.1-1.2c0.9,0.1,2.3,1,2.9,2.2c0.7,1.2,1.4,2.4,1.7,3.3l0,0L262.9,67.5z M271.1,78
		c-1.3,0.1-1.2-1.7-0.1-1.7c0.4,0,0.7,0.2,0.8,0.7C271.8,77.6,271.5,77.9,271.1,78z M272.8,21.8c0.5,0,1,0.3,1.1,1.1
		c0.1,1-0.4,1.5-1,1.6C271.2,24.6,271.3,21.8,272.8,21.8z M274,61c-1.5,0.2-1.3-2.7-0.1-2.7c0.4,0,0.8,0.4,0.9,1.1
		C274.8,60.4,274.5,60.9,274,61z M295.5,39.5c0.4,0,0.8,0.3,0.9,1c0.1,0.8-0.3,1.3-0.8,1.4C294.2,41.9,294.3,39.5,295.5,39.5z
		 M296.4,51c0.1,0.7-0.3,1.1-0.7,1.1c-1.3,0.1-1.2-1.9-0.1-1.9C296,50.2,296.3,50.5,296.4,51z M291.8,28.8c0.3,0,0.6,0.2,0.7,0.7
		c0.1,0.6-0.2,0.9-0.6,0.9C290.8,30.5,290.9,28.8,291.8,28.8z M283.8,33.9c0.3,0,0.6,0.3,0.7,1c0.1,0.8-0.2,1.3-0.6,1.4
		C282.7,36.4,282.8,33.9,283.8,33.9z M282.5,44.3c0-1.5,0.4-1.7,0.9-1.6c0.5,0.1,1,1.2,1.4,2.3c0.4,1.1,1.3,3.2,1.4,3.7
		c0.1,0.6-0.6,0.8-1.2,0.9c-0.6,0.1-1.2,0.9-0.9,1.4c0.3,0.5,1.8,0,2.9,0.5c1.1,0.5,1.1,1,1.3,1.7c0.2,0.7-0.2,1.5-1,2.1
		c-0.9,0.7-2.9,2.8-4.1,1.6c-0.5-0.5-0.8-0.9-0.8-1.3c0-0.4,0-1.9,0-2.7c0-0.8,0.4-0.6,0.7-1c0.7-1.1-0.7-2.2-0.7-2.6
		C282.5,48.7,282.5,45.7,282.5,44.3z M280.6,16.4c0.1-0.3,0-1.2,0.4-1.3c0.2,0,0.5,0,0.6,0.9c0.1,1,0,1.7-0.5,1.8
		c-0.4,0.1-0.9,0.1-1.1-0.3C279.5,16.5,280.5,16.7,280.6,16.4z M281.5,43c0,0.3-0.2,0.4-0.5,0.5c-0.9,0.1-0.8-0.8-0.1-0.8
		C281.2,42.7,281.4,42.8,281.5,43z M280.7,49.9c0.4,0,0.8,0.3,0.9,1c0.1,0.8-0.3,1.3-0.8,1.4C279.3,52.4,279.5,49.9,280.7,49.9z
		 M281.6,55.9c0.1,0.8-0.3,1.3-0.8,1.4c-1.5,0.2-1.3-2.3-0.1-2.3C281.1,55,281.5,55.3,281.6,55.9z M275.7,47.9
		c-0.1-0.4-0.1-1-0.1-1.3c0-0.8,0.7-0.1,0.8-0.6c0.1-0.5-0.1-1.5,0.5-1.5c0.7,0.1,0.7,2,0,2.3c-0.5,0.2-0.3,0.4-0.4,0.9
		C276.4,48.4,275.7,48.2,275.7,47.9z M277.4,60c0.4,0,0.8,0.2,0.9,0.7c0.1,0.6-0.3,1-0.8,1C276,61.8,276.1,60,277.4,60z M277.9,94.1
		c-0.9,0.1-0.8-1.3-0.1-1.3c0.3,0,0.5,0.2,0.5,0.5C278.4,93.8,278.2,94.1,277.9,94.1z M278.1,89c-1.3,0.2-1.2-2.2-0.1-2.2
		c0.4,0,0.7,0.3,0.8,0.9C278.9,88.5,278.6,88.9,278.1,89z M284.9,84.7c-1.6,2.7-2.3,0.7-2.4-0.1c0-0.7,0-2,0-2.6
		c0-0.6-0.6-0.7-0.9-0.3c-0.3,0.4-0.6,0.3-1.1,0c-0.5-0.3-0.6-1-0.2-1.4c0.3-0.4,0.6-0.6,0.4-1.2c-0.2-0.7-0.7-1-0.8-1.4
		c-0.1-0.4,0.1-1.1,0.5-1.5c0.4-0.3,1.1-0.2,1.2,0.5c0.1,0.7-0.2,1.7,0,2.6c0.2,0.9,0.9,0.7,0.9,0.2c0-0.6,0-3,0-3.8
		c0-0.9-0.3-0.8-0.8-1c-0.6-0.3-1.5-0.5-2-1.2c-0.5-0.7-0.1-0.8,0.1-1.2c0.2-0.4,0-0.8-0.3-1.4c-0.3-0.6,0.2-0.6,0.3-1.1
		c0.1-0.5,0-0.8-0.3-0.8c-0.4-0.1-1,0.4-1.2,0c-0.2-0.4-0.1-1.4,0.3-1.9s0.9-0.4,1.1-0.9c0.2-0.5,0.6-0.9,1.2-0.7
		c0.7,0.2,0.7,0.6,0.7,2.1c0,1.5-0.3,1.5-0.5,2.1c-0.3,0.6-0.3,1-0.1,1.5c0.2,0.5,0.3,0.4,0.5,0.8c0.2,0.5,1,1,1,0.4
		c0-0.7-0.1-6.1,0-8.5c0.1-2.4,0.2-2.8,1.3-3.8c1.1-1,3-2.3,3.8-2.9c0.8-0.6,1-0.2,1.8,0.5c0.7,0.7,1.6,2.2,2.5,4
		c0.9,1.8,1.1,3.8,0.8,7c-0.3,3.1-2.7,5.9-3.8,8.1C288,78.7,284.9,84.7,284.9,84.7z M298.8,77c-0.2,1.2-0.7,1.4-3,3
		c-2.3,1.6-5,2.8-5,2.8c-3.7,2.7-2-2.5-1.5-3.6c0.5-1.1,3-5.9,3.8-6.7c0.8-0.8,1.7-1,2.7-1.2c1-0.1,1.9-1.3,2.3-0.4
		c0.4,0.9-0.3,1.4-0.5,2.1c-0.1,0.7,0.5,1.3,0.8,2C298.9,75.7,299,75.7,298.8,77z M298.6,52.2c-0.9,0.1-0.8-1.9-0.1-1.9
		c0.3,0,0.5,0.3,0.5,0.8C299.1,51.8,298.9,52.2,298.6,52.2z M302.2,46.8c0.4-0.6,1.6-1.4,2.1-1.4s0.8,0.4,0.6,0.8
		c-0.2,0.5-0.6,0.6-0.9,1.4c-0.4,0.8-0.6,0.9-1,1C302.2,49,301.5,47.7,302.2,46.8z M301,65.8c0.3,0,0.6,0.3,0.7,1
		c0.1,0.8-0.2,1.3-0.6,1.3C300,68.2,300.1,65.8,301,65.8z M301.3,73.2c-1.1,0.1-1-1.9-0.1-2c0.3,0,0.6,0.3,0.7,0.8
		C302,72.7,301.7,73.1,301.3,73.2z M303.1,59.5c-1.7,0.2-1.6-2.7-0.1-2.7c0.5,0,1,0.4,1.1,1.1C304.2,58.9,303.7,59.5,303.1,59.5z
		 M305.9,54.8c-0.5,0-1-0.3-1.4-1.6c-0.4-1.3-0.1-1.6,0.1-2.3c0.2-0.7,1-1.2,1.7-1.2c0.7,0,0.5,1.2,0.6,3
		C306.9,54.1,306.4,54.8,305.9,54.8z M307.4,89c-1.2,0.1-1.1-1.7-0.1-1.7c0.4,0,0.7,0.2,0.8,0.7C308.2,88.7,307.9,89,307.4,89z
		 M309.7,67.4c-0.5-1.4-1.1-3.7-1.6-5.1c-0.5-1.4-0.6-5.9-0.4-8.1c0.2-2.2,0.6-4.5,1.2-4.9c0.6-0.4,0.5,0.4,0.6,2.9
		c0.1,2.5,1.2,10.1,1.4,12.2C311,66.3,312,73.8,309.7,67.4z M312.4,96.9c-1.4,0.2-1.2-2.7-0.1-2.7c0.4,0,0.8,0.4,0.8,1.1
		C313.2,96.3,312.8,96.8,312.4,96.9z M315.1,48.3c-1.3,0.1-1.2-1.7-0.1-1.7c0.4,0,0.7,0.2,0.8,0.7C315.9,47.9,315.5,48.2,315.1,48.3
		z M315.6,44.3c-1.2,0.1-1.1-1.5-0.1-1.5c0.4,0,0.7,0.2,0.7,0.6C316.3,43.9,316,44.2,315.6,44.3z M317.4,96c-1.2,0.2-1.1-2.9-0.1-3
		c0.3,0,0.7,0.4,0.7,1.2C318.1,95.3,317.8,95.9,317.4,96z M318.8,52.6c-1.5,0.1-1.4-2-0.1-2c0.4,0,0.9,0.3,0.9,0.8
		C319.7,52.2,319.4,52.6,318.8,52.6z M319,44.3c-1.2,0.1-1.1-1.5-0.1-1.5c0.4,0,0.7,0.2,0.7,0.6C319.8,43.9,319.5,44.2,319,44.3z
		 M322.5,44.3c-1.2,0.1-1.1-1.5-0.1-1.5c0.4,0,0.7,0.2,0.7,0.6C323.3,43.9,323,44.2,322.5,44.3z M324.6,94.2
		c-1.3,0.1-1.1-1.7-0.1-1.8c0.4,0,0.7,0.2,0.8,0.7C325.3,93.8,325,94.2,324.6,94.2z M335.9,24.3c1.2,0.2,2.5,1.6,4.9,3.3
		c1.8,1.3,6.5,4,4.9,6.5c-0.6,0.9-2.4,1.3-3.8,1.4c-1.4,0.1-4.4-0.3-5.4-1.3c-1-0.9-0.9-2.2-1.2-3.3c-0.3-1.1-0.8-5.2-0.8-5.9
		C334.5,24.4,334.8,24.2,335.9,24.3z M339.9,36.5c3.6,0,5.3,2.9,7.8,4.9c2.5,2,2.3,2.9,3.8,5c1.5,2.1,5,6.6,6.6,9.6
		c0,0,2.3,3.9,1.5,5c-2,2.9-17.4-6.4-19.8-7.7c-2.1-1.2-8.2-5-9.3-5.8c-1-0.8-1.3-2.1-1.3-2.1s-0.1-1.7,0-2.7c0-1.1,0-2.6,0.9-3.4
		c0.9-0.8,1.5-1.3,3.5-2C335.7,36.5,336.4,36.5,339.9,36.5z M343.5,58.2c0.1,1.1-1.5,1.1-4.4,0.9c-2.5-0.2-7.2-0.4-8.1-1.2
		c-1-0.8-1.5-2-1.5-2.6c0-0.6,0-5.6,0.1-6.2c0.1-0.6,0.6,0,1.8,0.6c1.3,0.6,5.5,3.2,8.7,5.4C341.8,56.4,343.4,57.5,343.5,58.2z
		 M330.3,17.5c0.3,0.8,1.4,3.4,2,5.5c0.6,2.1,0.7,4.8,0.7,6.5c0,4.4-0.9,4.5-1.8,4.5c-1,0-1.9-1.5-1.9-5.5c0-3.6,0.1-10.9,0-11.8
		C329.2,15.7,330,16.7,330.3,17.5z M327.6,29.7c0.4,0,0.7,0.2,0.7,0.7c0.1,0.6-0.2,1-0.7,1C326.5,31.5,326.6,29.7,327.6,29.7z
		 M327.8,79.1c-1.3,0.2-1.1-2.5-0.1-2.5c0.4,0,0.7,0.3,0.8,1C328.5,78.5,328.2,79,327.8,79.1z M327.8,57.4c-0.4,0.1-1.1,0-1-1.1
		c0-0.6-0.5-0.5-0.7-1c-0.3-0.5-0.1-1.3,0.4-1.5c0.5-0.2,1,0.2,1.1,0.7c0.1,0.6,0.3,0.9,0.7,1.1C328.6,55.9,328.6,57.2,327.8,57.4z
		 M327.8,52.1c-1.3,0.1-1.2-1.6-0.1-1.6c0.4,0,0.7,0.2,0.8,0.7C328.5,51.8,328.2,52.1,327.8,52.1z M366.3,81.6
		c-7.3,1.9-14.3,4.4-18.2,5.7c-3.6,1.2-12.9,4.9-16.1,4.6c-1.5-0.1-3-0.8-3.1-2.4c0-0.7,0.2-2.6,0.8-3.4c0.7-0.8,2-0.7,4.2-0.9
		c2.1-0.2,2.8-0.3,7.8-1c4.9-0.8,18.5-3.1,20.5-3.4c2-0.4,2.6-0.5,3.7-0.8C367,79.7,367.3,81.4,366.3,81.6z M352.6,80.8
		c-4.7,0.6-17.1,3.4-21.3,2.5c-2.1-0.5-1.9-5.4-1.9-5.4s0-13.1,0-15.6c0-2.5,2.3-2.5,3.3-2.5c0.9,0,5.3,0.1,11.1,1.2
		c5.9,1,8.2,2.5,11.8,4.2c3.6,1.7,5.5,3,7.8,4.9c2.3,2,3.6,4,3.6,4C368.9,79.8,356.2,80.3,352.6,80.8z M367.5,53.2l-0.1-0.4
		c0,0,0.2,3.6-0.1,5.1s-0.8,1.9-2,2.5c-1.2,0.6-2.4-1.1-3.3-2.4c-0.9-1.3-2.7-3.8-4.8-6c-2.1-2.1-4.5-6.1-6-8.3
		c-4.2-6.1-5.5-8.6,1.8-12.1c3.5-1.7,7.7-2.9,9.5-2.9c2.8,0,5.1,1.4,5,5.9C367.5,35.3,367.5,43.2,367.5,53.2z M380.6,9.7
		c0.4,0,0.8,0.2,0.8,0.7c0.1,0.6-0.3,1-0.7,1C379.3,11.5,379.4,9.7,380.6,9.7z M381.5,62.5c0.1,0.7-0.2,1.1-0.6,1.2
		c-1.1,0.2-1-2-0.1-2C381.2,61.6,381.5,61.9,381.5,62.5z M380.6,52.2c0.4,0,0.7,0.2,0.8,0.7c0.1,0.6-0.3,1-0.7,1
		C379.4,54.1,379.5,52.2,380.6,52.2z M381,66.3c0.5,0,0.9,0.3,1,0.8c0.1,0.7-0.3,1.1-0.9,1.2C379.5,68.5,379.6,66.3,381,66.3z
		 M383.2,90.4c-0.6,1-1.5,3-2,0.4c-0.1-0.5,0-0.8,0.2-1.2c0.2-0.4,0-0.8,0-1.8c0-1,0-1.1,0.3-1.4c0.2-0.2,0.8,0.3,1.1,0.7
		c0.3,0.5,0.8,0.7,1,1.3C384,89.3,383.6,89.8,383.2,90.4z M384.2,53.9c-1.3,0.1-1.2-1.8-0.1-1.8c0.4,0,0.7,0.2,0.8,0.7
		C384.9,53.5,384.6,53.9,384.2,53.9z M423.2,140.1c0,0.9-0.1,5.5-0.1,5.9c0,5.5-2.3,8.6-6.8,9.3c-2,0.3-4.1-0.7-4.9-2.6
		c-0.1-0.1-0.1-0.2-0.2-0.4c-0.2-0.4-0.3-1.2-0.3-1.6c0,0-0.2-11.6-0.2-12.6c0-2,0.2-3.9,0.6-5.7c0.3-1.2,1-2.3,2.1-2.8
		c0.2-0.1,0.5-0.2,0.7-0.3c0.7-0.2,1.5-0.2,2.2,0C420.9,130.4,423.2,134,423.2,140.1z M394,9.7c0.2,0,0.5,0.2,0.5,0.7
		c0,0.6-0.2,1-0.4,1C393.2,11.5,393.3,9.7,394,9.7z M386.3,39.4c-1.1,0.1-1-1.5-0.1-1.5c0.3,0,0.6,0.2,0.7,0.6
		C386.9,39.1,386.7,39.4,386.3,39.4z M387.9,9.6c0.2,0,0.5,0.2,0.5,0.7c0,0.6-0.2,1-0.4,1C387.2,11.5,387.2,9.6,387.9,9.6z
		 M444,55.7c-3.6,1.2-19.4,7.2-25.9,8.7c-6.5,1.5-15.7,5-18.4,6.1c-2.7,1.1-5.7,1.8-7.3,1.8c-1.6,0-2.6-1.1-3.2-2.4
		c-0.6-1.2-0.6-3.5-0.6-3.8V53.9l0,0c-1.5,0.1-1.3-1.8-0.1-1.8c0,0,0.1,0,0.1,0V32.6c0,0,0.8-3.7,3.8-4c0.3,0,0.7,0,1.1,0
		c0,0,11.9,2.3,15.2,3.2c3.3,0.9,13.1,3.3,20.3,6.3c7.2,3.1,16.3,7.4,19.5,9.4c3.2,2,4.9,3.4,4.7,4.1C453,52.4,447.6,54.6,444,55.7z
		 M461.2,50.4c-3.1,0.4-6-1.2-8.8-2.8c-2.7-1.5-8-3.6-10.2-4.8c-2.1-1.1-6.7-2.7-6.9-3.2c-0.5-1.4,5.3,0.2,5.7,0.3
		c1.9,0.5,15.8,3.5,18.3,4.3c2.4,0.8,8,2.5,7.9,3.3C467.2,48.3,462.1,50.2,461.2,50.4z M470.9,62.5c-0.1,0.9-0.4,0.9-0.7,0.9
		c-0.5,0-1.2-0.4-1.8-1.2c-0.8-1-2.7-3.4-3.2-4.2c-0.5-0.8-0.9-1.8-0.1-2.1c0.8-0.3,3,0.6,4.4,1.6c1.4,1,1.4,2.4,1.4,3.6
		C470.9,61.5,470.9,62,470.9,62.5z M475.2,27.9c-1.3,0.1-1.2-1.7-0.1-1.7c0.4,0,0.8,0.2,0.8,0.7C476,27.5,475.7,27.9,475.2,27.9z
		 M485.6,28.4c-0.4,0.1-1-0.2-1-0.2s-0.4-0.3-0.6,0c-0.2,0.3-0.3,1.5-0.7,1.9c-0.4,0.5-0.7,0.9-1.2,1.4c-0.5,0.5-1,0.5-0.9-0.9
		c0.1-1.4,0-2.4,0.7-3.1c0.7-0.7,1.3-0.9,1.7-1.4c0.4-0.5,0.4-0.8,1.1-0.4c0.7,0.4,0.3,0.7,1,0.7c0.7,0,0.8,0.6,0.8,1.1
		C486.4,28,486,28.3,485.6,28.4z M490.1,26.6c-0.3,0.6-0.2,1.1-0.8,2.1c-0.9,1.4-1.6,1.1-1.5,0c0.1-0.6-0.7-1.6-0.3-2.1
		c0.4-0.5,1.4-1.4,2-1.4C490,25.2,490.4,26,490.1,26.6z M501.2,66.5c-0.9,0.6-3.5,2.9-4.4,3.4c-0.9,0.6-1.8,0.7-3.1,0.2
		c-1.3-0.5-1.2-1.8-1.2-1.8s0-1.9,0-2.9c0-1,0.5-0.9,0.8-1.1c0.3-0.3-0.1-1.9,0.2-2.3c0.3-0.5,0.8,0,1.6,0c0.7,0,0.7-0.8,1.5-0.9
		c0.8-0.1,1.6-0.2,3.4-0.1c1.8,0.1,2.4,0.6,3.5,1.1c1.1,0.5,1.1,1.6,1.1,1.6C504.6,64.8,502.1,65.8,501.2,66.5z M495.5,49.2
		c0.3,0,0.6,0.2,0.7,0.6c0.1,0.5-0.2,0.8-0.6,0.9C494.5,50.8,494.6,49.2,495.5,49.2z M498.6,52.8c-0.9,0.1-0.8-1.3-0.1-1.3
		c0.3,0,0.5,0.2,0.6,0.5C499.2,52.5,498.9,52.8,498.6,52.8z M500.2,54.1c0.1,0.4-0.1,0.8-0.5,1.4c-0.4,0.5-0.1,1.2-0.5,1.6
		c-0.2,0.2-0.4,0.2-0.6,0.1c-0.6-0.3-0.6-1.1-0.2-1.6c0.3-0.4,0-0.7,0.4-1.4C499.1,53.4,500,53.7,500.2,54.1z M507.7,51.7
		c-1.1,0.1-1-1.5-0.1-1.5c0.3,0,0.6,0.2,0.7,0.6C508.3,51.3,508.1,51.6,507.7,51.7z M511.2,46.9c-1.1,0.1-1-1.5-0.1-1.5
		c0.3,0,0.6,0.2,0.7,0.6C511.8,46.5,511.6,46.8,511.2,46.9z M511.2,42.6c-0.6,0.2-0.7-0.5-0.7-0.9c0-0.4,0-0.8,0-0.8l-2.4,0
		c0,0,0.2,1.2-0.2,1.4c-0.4,0.3-0.9,0.1-1.2-0.4c-0.3-0.5-0.4-1-0.4-1h-1.7c0,0,0,0.9-0.2,1.3c-0.2,0.4-0.5,0.5-0.7-0.1
		c-0.2-0.6,0-1.2,0-1.2s-3.1,0-4.8,0c-1.8,0-3.6-1.4-4.7-2.1c-1.1-0.8-1.8-2-1.8-2.7c0-0.7-0.1-2.1,0-4.2c0.1-2.1,2.2-1.2,4.3-0.3
		c2.1,1,6.9,3.5,10.2,5.3c3.3,1.8,4.6,4,4.6,4C512,41.7,511.7,42.4,511.2,42.6z M531.1,11.1c0.3,0,0.6,0.2,0.7,0.6
		c0.1,0.5-0.2,0.8-0.6,0.8C530.1,12.6,530.2,11.1,531.1,11.1z M531.1,13.7c0.3,0,0.6,0.2,0.7,0.6c0.1,0.5-0.2,0.8-0.6,0.8
		C530,15.2,530.1,13.7,531.1,13.7z M525.3,9.8c0.3,0,0.5,0.2,0.6,0.6c0,0.5-0.2,0.8-0.5,0.8C524.5,11.3,524.6,9.8,525.3,9.8z
		 M521.2,36c0.2-0.5,1.2-0.5,1.5,0c0.3,0.4,0.1,1,0.3,1.4c0,0,0.5-0.1,0.7,0.4c0.2,0.3,0.2,1.1-0.1,1.5c-0.2,0.2-0.8,0.1-0.8-0.3
		c-0.1-0.5,0-1.2,0-1.2c0.1-0.4-1.1-0.2-1.4-0.5C521,36.9,521,36.5,521.2,36z M515.9,65.4c-0.3,0.4-0.9-0.6-1.9-1.3
		c-0.9-0.7-0.8-0.7-0.8-1.5c0-0.8,0.3-1.5,1.1-1.6c0.9-0.1,1.5,1.3,1.5,1.8C515.9,63.4,515.9,65.4,515.9,65.4z M518.9,83.8
		c-1.1,0.1-1-1.5-0.1-1.5c0.3,0,0.6,0.2,0.7,0.6C519.6,83.4,519.3,83.7,518.9,83.8z M521.5,44.9c-0.6,0-0.6-1.2-1.5-1.2
		c-1,0-1.5-0.4-2-0.8c-0.6-0.5-0.8-1.3-0.5-1.8c0.4-0.6,1.1-0.7,1.9-0.2c0.8,0.5,0.5,1.6,1.3,1.8c0.9,0.2,1.2,0.2,1.4,0.9
		C522.3,44.4,521.9,44.9,521.5,44.9z M523.3,58.6c-1.1,0.2-1-2.3-0.1-2.3c0.3,0,0.6,0.3,0.7,1C524,58,523.7,58.5,523.3,58.6z
		 M523.8,34c0-0.9,0.5-0.4,0.6-1.1c0.1-0.7,0.4-0.7,0.5-0.7c0.3,0,0.5,0.5,0.6,1.4c0,1.3,0.3,2-0.5,2c-0.3,0-0.5-0.3-0.6-0.8
		C524.3,34.7,523.8,34.9,523.8,34z M524.9,64.1c0.3,0,0.6,0.2,0.7,0.6c0.1,0.5-0.2,0.9-0.6,0.9C523.9,65.7,524,64.1,524.9,64.1z
		 M525,70.3c-1.1,0.1-1-1.8-0.1-1.8c0.3,0,0.6,0.2,0.7,0.7C525.7,69.9,525.4,70.3,525,70.3z M525.4,28.5c0-0.5,0.4-0.5,0.8-0.9
		c0.4-0.4,0.7-0.6,1.4-0.6c0.7,0,0.9,0.4,1.1,0.8c0.2,0.4,0,0.9-0.3,1.1c-0.3,0.2-0.8,0.2-1.1,0.5C527,29.9,525.3,29.9,525.4,28.5z
		 M528.9,73.9c0.3,0,0.6,0.2,0.7,0.6c0.1,0.5-0.2,0.9-0.6,0.9C527.9,75.6,528,74,528.9,73.9z M528,43.4c-1,0.1-0.9-1.3-0.1-1.3
		c0.3,0,0.5,0.2,0.6,0.5C528.6,43.1,528.3,43.4,528,43.4z M527.6,51c0.3,0,0.6,0.2,0.7,0.6c0.1,0.5-0.2,0.9-0.6,0.9
		C526.6,52.6,526.7,51,527.6,51z M529.7,96.9c0,0.8-0.9,0.8-0.9,0.8c-0.8,0.1-1.1-1.1-1.3-1.9c-0.1-0.8-0.1-2.2,0.7-2.7
		c0.8-0.5,1.5,0.3,1.5,1.1c0,0.8-0.5,0.7-0.6,1.4C529.1,96.3,529.7,96,529.7,96.9z M530.7,41.8c0.3,0,0.6,0.2,0.7,0.6
		c0.1,0.6-0.2,0.9-0.6,0.9C529.6,43.5,529.7,41.9,530.7,41.8z M530.9,52.5c-1.1,0.1-1-1.5-0.1-1.5c0.3,0,0.6,0.2,0.7,0.6
		C531.6,52.2,531.3,52.5,530.9,52.5z M533.1,27.6c-0.3,0.7-0.6,0.7-0.6,1.9s-0.6,0.9-0.8,2c-0.4,1.4-1.9,0.7-1.9,0.2
		c0-0.5-0.1-1.5,0.4-1.9c0.5-0.3,0.5-0.6,0.4-1.3c-0.1-0.7-0.4-0.5-0.8-1.1c-0.5-0.6-0.9-0.8-1.2-1.3c-0.3-0.5-0.1-0.9,0.2-1.4
		c0.3-0.4,0.3-0.8,0.2-1.2c-0.1-0.5-0.8-0.7-0.8-1.1c0-0.4,0.3-0.7,0.9-0.7c0.9,0,0.5,1.3,1.1,1.7c0.7,0.4,1.2-0.1,1.4,0.4
		c0.2,0.7-0.3,0.4-0.6,1c-0.3,0.6-0.1,1.1,0.5,1.6c0.5,0.5,0.7-0.2,1.3-0.2C533.2,26.2,533.4,26.9,533.1,27.6z M533.7,11.1
		c0.3,0,0.6,0.2,0.7,0.6c0.1,0.5-0.2,0.8-0.6,0.8C532.7,12.6,532.8,11.1,533.7,11.1z M534.7,25.3c-1.1,0.1-1-1.8-0.1-1.8
		c0.3,0,0.6,0.2,0.7,0.8C535.3,24.9,535,25.3,534.7,25.3z M566.7,140.1c0,1-0.1,5.4-0.1,5.9c0,6.1-2.7,9.2-8.2,9.4
		c-1.1,0-2.1-0.5-2.7-1.4c-0.4-0.6-0.7-1.2-1-1.9c-0.1-0.4-0.2-0.8-0.2-1.1c0,0-0.2-11.8-0.2-12.9c0-2.4,0.3-4.5,0.8-6.5
		c0.2-0.6,0.6-1.1,1.1-1.5c0.7-0.5,1.5-0.8,2.3-0.9c0.3-0.1,0.6-0.1,0.9,0C564.3,130.1,566.7,133.7,566.7,140.1z M547.5,39.9
		c3.4-1.1,6.5-1.6,9.1-2.6c2.6-1,4.2-1.5,6.4-1.5c1.9,0,2.9,0.4,3.2,0.9v1.2c-0.7,1.8-3.5,4.3-4.5,4.5c-3.1,0.9-7.6,4.1-9.4,4.5
		c-2.1,0.5-2.8,1.5-7.3,1.6c-4.5,0-6.9-0.8-7.4-2.3C536.2,42.3,544.9,40.7,547.5,39.9z M566.2,47v3c-0.5,3.4-3.1,4.7-6.8,3.4
		c-1.7-0.6-6.3-1.6-6.2-3.1c0.1-1.4,2.5-2.9,4.2-4.2c2.6-2.1,5.6-4.1,8.3-1C565.9,45.5,566.1,46.3,566.2,47z M549.4,79.1
		c-1.5,0.4-4.4,1.6-5.8,1.8c-1.3,0.2-2.7,0.5-4.2-0.1c-1.5-0.6-1.8-1.5-1.9-2.4c0-0.9-0.7-4.2,0.6-4.2c4.6,0.1,10.7,1.2,14.7,2.5
		C554.8,77.7,551,78.7,549.4,79.1z M565,71.5c-0.9,1.2-3.3,2.9-4.7,3.1c-1.4,0.2-6.4,0.6-10-0.1c-3.6-0.8-9.8-1.6-11.4-1.8
		c-1.6-0.2-1.3-2.9-1.3-4.5c0-1.6-0.1-9.3,0.4-10.8c0.5-1.5,2.3-2.9,4.7-3.8c2.4-0.9,4.8-0.6,8-0.6c3.2,0,7,1.2,9.7,1.9
		c2.7,0.7,4.7,3.7,5.3,4.4c0.4,0.5,0.5,2.1,0.6,3l0,6.6C566.1,69.5,565.7,70.6,565,71.5z M568.4,29.2c0.4,0,0.7,0.2,0.8,0.8
		c0.1,0.7-0.3,1-0.7,1.1C567.2,31.2,567.3,29.2,568.4,29.2z M568.5,89.1c-1.4,0.1-1.3-1.8-0.1-1.8c0.4,0,0.8,0.2,0.9,0.7
		C569.4,88.7,569,89,568.5,89.1z M569.7,65.2c0.3,0,0.9,0,0.9,0.6c0.1,0.7,1.2,1,0.4,1.8c-0.5,0.6-1.3-0.1-1.6-0.3
		C568.3,66.4,569,65.2,569.7,65.2z M571.5,80.7c-1.2,0.1-1.1-1.5-0.1-1.5c0.4,0,0.7,0.2,0.8,0.6C572.3,80.4,572,80.7,571.5,80.7z
		 M571.5,33.2c-1.5,0.2-1.4-2.1-0.1-2.1c0.4,0,0.9,0.3,0.9,0.9C572.4,32.8,572,33.2,571.5,33.2z M575.4,71.5
		c-1.2,0.1-1.1-1.5-0.1-1.5c0.3,0,0.7,0.2,0.7,0.6C576.1,71.2,575.8,71.5,575.4,71.5z M608.2,19.3c2.9-1.6,5.7-3.3,7-3.5
		c0.9-0.1,1.7,0.1,2.2,0.3v2.7c-0.5,0.2-2.7,1.1-5.1,1.7c-2.7,0.7-6.1,1.4-7,1.4S605.4,21,608.2,19.3z M585.7,15.7
		c0.3,0,0.6,0.2,0.6,0.8c0,0.7-0.2,1-0.6,1.1C584.8,17.7,584.8,15.7,585.7,15.7z M578.9,71.6c-1.2,0.1-1.1-1.5-0.1-1.5
		c0.3,0,0.7,0.2,0.7,0.6C579.6,71.2,579.3,71.5,578.9,71.6z M582,17.5c-1.5,0.1-1.3-1.8-0.1-1.8c0.4,0,0.8,0.2,0.9,0.8
		C582.8,17.1,582.5,17.5,582,17.5z M584.5,18.3c0.4,0,0.8,0.2,0.9,0.8c0.1,0.7-0.3,1-0.8,1.1C583.1,20.2,583.3,18.3,584.5,18.3z
		 M585.9,53.4c-1.2,0.1-1.1-1.5-0.1-1.5c0.4,0,0.7,0.2,0.7,0.6C586.6,53.1,586.3,53.4,585.9,53.4z M589,29.6
		c1.6-0.5,2.4-1.3,5.3-2.4c2.9-1.1,9.9-3.4,14.1-4.8c4.2-1.4,8.7-1.4,8.7-1.4l0.2,0l0,34.2l-0.1-0.4c0,0,0.1,1.6-0.8,3.1
		c-0.9,1.4-1.4,2.6-3.1,3.6c-1.7,1-4.2,1.6-6.3,2c-1.1,0.2-2.9,0.6-4.7,0.6c-4.3,0-9.2-0.4-12-2.6c-1.6-1.3-2.3-3.3-2.5-6.2l0-22.1
		C587.9,33.1,587.4,30.1,589,29.6z M617.2,65.6c-0.1,3.3-2.7,2.5-4.8,2c-1.5-0.3-3.2-1-3.8-1.4c-0.6-0.4-0.3-0.8,1.5-1.8
		c1.8-1,3.6-1.3,4.8-1C616.2,63.5,617.2,63.9,617.2,65.6z M596.4,66.1c-0.5,1.1-8.4,2.8-8.4-1.5c0-1.1,1-1.3,2.5-1.1
		c1.4,0.2,2.6,0.6,3.7,1C595.3,64.9,596.8,65.2,596.4,66.1z M591.9,90.4c-0.7,0-3.3,0.2-3.3,0.2c-0.7,0.1-0.8-0.8-0.8-1.8
		c0-1,0.3-1.1,0.9-1c0.6,0.1,2,1,2.7,1.5C592.1,89.8,592.6,90.3,591.9,90.4z M594.5,87.9c-2.7-0.2-4.2-0.5-5.9-2.4
		c-1-1.2-0.8-4.2-0.8-7s0.3-3.7,0.7-4.8c0.4-1,0.6-1.4,1.6-1.3c1,0.1,3.8,2.1,7.4,5.5c3.6,3.4,8,9,8,9c0.8,0.8-1.2,1.3-4.3,1.4
		C598.1,88.4,596,88,594.5,87.9z M607.3,91.8c-2.1-0.5-3.4-1.2-3.7-1.5c-0.2-0.4-0.3-0.7,0.6-1c0.8-0.4,2.4-0.6,3.8-0.2
		c1.3,0.4,3.5,1.5,4.7,2.3C616,93.5,607.5,91.8,607.3,91.8z M617.2,83.6c-0.4,2.1-1.9,2.4-3.6,2.4c-1.8,0-3.8-0.5-5.2-1.3
		c-3-1.7-6.2-4.2-8.6-6.6c-3.2-3.1-6.5-7.4-6.7-8.5c-0.2-1.1,0.7-1.2,3-1.8c1.2-0.4,2.7-0.9,4.7-0.9c4.2,0,9.4,1.1,11.8,2.2
		c1.3,0.6,2.9,2.3,3.7,3.4c0.7,0.9,1,2.8,1.1,5.6l0,4.3C617.3,82.9,617.3,83.3,617.2,83.6z M644,42.8c4.9-1.1,14.7,1,19.4,3
		c2.5,0.8-0.3,2.4-3.1,3.1c-2.7,0.7-5.9,1.8-10.3,1.5c-4.4-0.3-4.8-2.7-5.3-3.8C644.2,45.4,643.1,42.9,644,42.8z M638.5,49.8
		c0.1-4.9,0-5.3,0.4-6c0.4-0.7,1.1-1.3,2-0.9c0.9,0.4,1.2,1.2,2,2.6c0.8,1.4,0.7,2.3,0.6,3.9c-0.1,1.6-0.6,2.3-1.6,3.5
		c-1,1.2-2.1,1.4-2.5,1.3c-0.5,0-0.8-1.1-0.8-1.8C638.5,51.7,638.5,49.8,638.5,49.8z M636.1,52c0.3,0,0.5,0.2,0.6,0.5
		c0,0.4-0.2,0.7-0.5,0.7C635.2,53.4,635.3,52.1,636.1,52z M636.8,64.4c0,0.4-0.2,0.7-0.5,0.7c-1,0.1-0.9-1.2-0.1-1.2
		C636.5,63.9,636.8,64.1,636.8,64.4z M628.7,55.9c0.3,0,0.5,0.2,0.6,0.5c0,0.4-0.2,0.7-0.5,0.7C627.8,57.2,627.9,55.9,628.7,55.9z
		 M627.9,91.9c0,0.7-0.2,1-0.4,1.1c-0.8,0.1-0.7-1.8-0.1-1.8C627.6,91.1,627.8,91.4,627.9,91.9z M627,10c0.3,0,0.5,0.2,0.6,0.5
		c0,0.4-0.2,0.7-0.5,0.7C626.1,11.2,626.2,10,627,10z M626.1,68.3c0.1,0.4-0.3,0.7-0.7,0.7c-1.4,0.1-1.2-1.2-0.1-1.2
		C625.6,67.8,626,67.9,626.1,68.3z M624.4,12.3c0.4,0,0.7,0.2,0.8,0.7c0.1,0.6-0.3,0.9-0.7,0.9C623.3,14.1,623.4,12.3,624.4,12.3z
		 M621.9,10.1c0.3,0,0.5,0.2,0.6,0.5c0,0.4-0.2,0.7-0.5,0.7C621.1,11.4,621.2,10.1,621.9,10.1z M621.8,43.6c0.4,0,0.7,0.2,0.8,0.7
		c0.1,0.6-0.3,0.9-0.7,0.9C620.6,45.3,620.7,43.6,621.8,43.6z M618.7,15.8c0.2,0,0.4,0.2,0.4,0.7c0,0.6-0.1,0.9-0.3,0.9
		C618.1,17.5,618.2,15.8,618.7,15.8z M620,55.4c0.6,0,1.1,0.2,1.2,0.5c0.1,0.4-0.4,0.7-1,0.7C618.2,56.8,618.4,55.5,620,55.4z
		 M628.5,98.1c-0.4-0.2-0.5-0.8-0.8-0.8c-0.6,0-1.4,0.1-2-0.6c-0.6-0.7-1.8-1.4-2.2-1.9c-0.4-0.5-0.5-1.1-0.7-1.6
		c-0.1-0.5-1.5-0.4-1.8-0.2c-0.4,0.2-0.1,1-0.6,1.3c-0.5,0.3-0.9-0.4-0.9-0.7c-0.1-0.3,0.3-0.3,0.4-0.7c0.1-0.3,0.5-0.6,0.8-0.9
		c0.3-0.3,0.2-0.9,0.2-1.4c0-0.3,0.4-0.4,0.7-0.4c1.5,0.1,0.4,1.1,1.5,1.1c0.8,0,0.2-0.8,0.6-0.9c0.4-0.1,0.6,0.2,0.9,0.5
		c0.3,0.3,0.5,0.3,0.5,0.9c0,0.6-0.1,1.8,0.2,2c0.2,0.2,1.6,0,2.1,0.2c0.5,0.2,0.4,0.7,0.5,1.2c0.1,0.4-0.1,0.5-0.1,0.9
		c0,0.4,0.3,0.5,0.8,0.4c0.5-0.1,0.9,0.2,1,1C629.6,98.3,628.9,98.3,628.5,98.1z M632.5,59.8c0.3,0,0.5,0.2,0.6,0.5
		c0,0.4-0.2,0.7-0.5,0.7C631.6,61.1,631.7,59.8,632.5,59.8z M632.5,63.9c0.3,0,0.5,0.2,0.6,0.5c0,0.4-0.2,0.7-0.5,0.7
		C631.6,65.2,631.7,63.9,632.5,63.9z M632.6,69c-1,0.1-0.9-1.2-0.1-1.2c0.3,0,0.5,0.2,0.6,0.5C633.2,68.7,632.9,69,632.6,69z
		 M632.7,53.2c-1,0.1-0.9-1.2-0.1-1.2c0.3,0,0.5,0.2,0.6,0.5C633.2,53,633,53.2,632.7,53.2z M636.1,67.6c0.3,0,0.5,0.2,0.6,0.5
		c0,0.4-0.2,0.7-0.5,0.7C635.2,68.9,635.3,67.6,636.1,67.6z M636,73.3c-0.4,0.1-0.7-0.5-0.4-1.2s1.2-0.7,1.9-0.7
		c0.7,0,0.7-0.5,0.7-1.2c0-0.7,0-2.4,0.3-2.8c0.3-0.4,1.1,0.4,1.9,1.1c0.8,0.7,3.3,2.7,4.4,3.9c1.1,1.2,2.6,2.2,2.9,2.9
		c1.4,3-7.4-0.2-7.7-0.5c-0.7-0.5-0.7-1.3-0.9-1.8c-0.2-0.6-1.2-0.6-2-0.6C636.2,72.2,636.4,73.2,636,73.3z M647.9,80
		c-1.9,0-4.3,0-5.8,0c-2.6-0.1-2.7-0.4-3.3-1.1c-0.7-0.7-0.6-1.3,0.3-2c0.9-0.7,2-0.4,3.1-0.1c1.1,0.3,4.7,1.1,6.7,1.9
		c0.7,0.3,1.6,0.4,1.6,0.8C650.5,79.9,649.3,79.9,647.9,80z M656.5,79.1c-0.2,1.1-1.4,0.5-3.8-1.8c-1.2-1.2-3.4-2.7-5.7-4.8
		c-2.2-2-6.9-6.1-7.6-7.1c-0.7-1-0.6-1.8-0.7-3.2c-0.1-1.4,0-2.7,0-4.1c0-1.4,0.7-2.5,1.8-2.5c1,0,2.5-0.3,4.1,0.7
		c1.6,1,2.7,2.4,3.7,3.9c1,1.5,1.4,2.3,2.5,4.3c1,2,3.6,8.6,4.8,11C656.4,77.2,656.6,78.5,656.5,79.1z M661.3,78.2
		c-2.1-0.4-4.2-4.1-5.3-5.8c-1.4-2.1-1.6-4-3.1-6.4c-1.4-2.5-3.2-6.4-2.7-9.3c0.5-2.9,4.6-4.3,7.7-5.5s6.3-2,9.4-2.5
		c3.1-0.5,10.3-0.2,12.4,0.1c2.1,0.3,1.9,4.7,1.9,4.7v18.4c-0.1,2.4-2,4-3.7,5c-0.8,0.5-5.7,1-8.3,1.3
		C665.5,78.6,663,78.5,661.3,78.2z M681.6,80.3c-0.3,0.7-1.3,1.5-2.8,2.3c-1.5,0.8-2.6,1.2-4.8,2c-2.1,0.7-5.4,2.1-6.5,2.8
		c-1.1,0.7-3,1.4-3.8,1.2c-0.8-0.2-0.9-1.1-0.9-1.9c-0.1-0.7-0.1-3.7,0.1-4.6c0.2-0.9,1.4-1.7,3.1-1.9c1.7-0.2,7-1,9.4-1.1
		c1.7-0.1,3.7-0.1,4.9-0.1C681.2,78.9,682.2,79,681.6,80.3z M760.4,134.6v12.9l-0.4,3.3c-0.1,0.8-0.4,1.5-0.8,2.1
		c-0.1,0.1-0.1,0.2-0.2,0.3c-0.6,0.8-1.5,1.4-2.4,1.6c-0.7,0.2-1.3,0.3-2,0.3c-4.2,0-6.3-4-6.3-12.1c0-2.5,0.2-5.4,0.6-8.7
		c0.3-2.1,1.4-4.1,3.2-5.1c0.4-0.2,0.8-0.4,1.2-0.5C757.5,128.5,759.9,130.5,760.4,134.6z M818.6,97.5c-1.2,0.1-1.1-1.5-0.1-1.5
		c0.3,0,0.7,0.2,0.7,0.6C819.4,97.2,819.1,97.5,818.6,97.5z M825.1,98.4c-0.5,0-0.7-0.1-0.8-0.5c-0.3-0.9-1.7,0.4-1.5-1.6
		c0.1-0.6,0.4-0.6,0.7-0.6c0.4,0,0.7,0.2,0.7,0.6c0,0.3,0.6,0.2,0.7,0.2c0.7,0.1,0.7,0.3,0.7,0.8C825.5,97.7,825.6,98.4,825.1,98.4z
		 M824.8,80.5c1.1-0.1,7.5,1.8,7.5,2.2c0.8,0.3-5.5,0.1-6.2,0.2c-0.7,0-1.4-0.1-1.7-0.6C824.1,81.9,823.7,80.6,824.8,80.5z
		 M817.3,24.8c0-0.5,0.2-2.2,0.5-2.5c0.4-0.3,1.8,0.1,3.1,1c1.4,0.9,0.9,1.4,0.9,1.4c0.2,1-2.7,0.9-3.6,0.8
		C817.3,25.4,817.2,25.2,817.3,24.8z M815.2,8.4c0.3,0,0.6,0.4,0.8,0.6c0.1,0.1,0.5,0.3,0.6,0.5c0.1,0.7-0.5,1.1-1,1.1
		C814.1,10.8,813.9,8.4,815.2,8.4z M811.6,23.3c1.3-1.1,4.2-1.5,4.2-1c0,1-1.5,3.2-3.1,4.3c-1.2,0.8-2.9,1.3-2.9-0.3
		C809.8,25.5,810.3,24.3,811.6,23.3z M810.2,33.4c0.5-0.7,3.2-2.7,4.6-3.8c1.4-1.1,5.9-3.3,6.8-3.3c1,0,1.4-0.2,2,0.8
		c0.6,1,0.9,3.7-0.1,7c-0.5,1.5-1.5,8.6-3.7,8.7c-3.4,0.2-7.2-2.6-10.1-4.2C806.6,37,809.6,34.1,810.2,33.4z M808.6,32.8
		c0.1,0.7-0.3,1.1-0.9,1.2c-1.6,0.1-1.4-2-0.1-2C808.1,31.9,808.6,32.2,808.6,32.8z M806.7,21.6c0.7-0.9,1.4-0.5,1.5,0.6
		c0.1,1-0.6,0.5-0.8,1c-0.2,0.6-0.8,0.5-0.9,0.2C806.1,23,806.3,22.1,806.7,21.6z M797.6,15c-0.1-1.1,1.5-1.2,1.7-0.5
		c0.2,0.7,0.1,1.8,0.2,3c0.1,1.2,1,1.9,1.3,2.3c0.3,0.5,0.2,2.2,0.3,3c0.1,0.7,0.6,0.7,0.8,1.3c0.2,0.6,0.8,0.4,0.9-0.4
		c0.1-0.8,0.8-0.9,0.9-0.2c0,0.7,0.1,2.5,0,3.3c-0.1,0.7-0.7,0.9-1.3,0.5c-0.5-0.3,0.1-2.2-0.7-2.4c-0.3-0.1-0.5,0.4-0.7,0.7
		c-0.2,0.2-0.6,0.1-0.7-0.5c-0.1-0.5-0.6-0.4-0.8-1.1s-0.5-0.9-0.5-1.6c0-0.7,0.4-0.8,0.4-1.4c0-0.6-0.7-0.6-0.8-1.1
		c-0.1-0.6-0.4-0.8-0.8-1.2C797.4,18.1,797.6,16.1,797.6,15z M799.6,30.7c-0.3,0.1-1,0.1-1-0.6c0-0.5-0.8-0.1-0.8-1
		c0-0.5-0.1-0.7,0.6-0.9c0.1,0,0-0.4,0.3-0.7c0.5-0.4,1.4-0.4,1.5,1.2C800.3,29.9,800,30.6,799.6,30.7z M794.7,26.5
		c0.5-0.2,1.1,0,1.2,0.3c0.1,0.3-0.1,0.8,0,1.2c0.1,0.3,0.2,0.2,0.5,0.4c0.3,0.2,0.3,0.8,0.3,0.8c0,0.6-0.2,0.8-0.6,0.9
		c-0.4,0.1-0.8,0-1-0.4c-0.2-0.4,0-1-0.1-1.4c-0.1-0.4-0.6-0.3-0.7-0.7C794.1,27.1,794.2,26.7,794.7,26.5z M801.5,50.5
		c2.1,2.7,5.3,6.9,6,10.4c0.7,3.5-0.1,4.5-0.8,6.5c-0.8,2-2.6,3.9-2.6,3.9c-3.4,2.5-5.9,2-9.3,1.5c-4.3-0.6-10.3-2.3-16.6-3.8
		c-7.6-1.8-15.5-3.4-20.5-5.1c-0.8-0.3-0.8-0.9,0.8-2.4c1.6-1.5,5.5-4.4,7.9-6c2.4-1.6,10.7-7.1,13.1-8.8c4-2.7,8-5.7,11.7-5.6
		C795.4,41.4,799.3,47.7,801.5,50.5z M736.6,68.5c-1.3-0.5-1.6-0.8-1.5-1.8c0,0-0.3-1.9,4.7-2.6c5-0.7,7.8-0.3,8.3,0.8
		c0.5,1.1-1.2,2.5-3.6,3.5C742,69.4,737.9,69.1,736.6,68.5z M738.4,71c-0.1,0.6-0.5,1.2-0.9,1.3c-0.6,0.1-1.2-0.5-1.5-1.5
		c-0.3-1.1,0.3-1,1-0.9C737.7,69.9,738.4,70.5,738.4,71z M740.8,74c1.4-0.9,2.1-1.3,3-1.3c0.9,0,1.5,0.5,1.6,1c0.1,0.6-1,0.7-2.1,2
		c-1,1.2-1.2,4-2,3.1c0,0-1.4-1.5-1.8-2.6C739.2,75.2,739.4,75,740.8,74z M743.7,81.8c0.8-7.4,8.7-5.9,11.3-5.1
		c2.7,0.8,8.6,3.4,13.4,5.1c3.9,1.4,10.2,3.9,12.5,4.8c0.4,0.2,1.7,0.6,1.9,1.3c0.6,2-6.6,2.6-8,2.7c-3.1,0.2-9,0.5-13.2-0.2
		C757.5,89.8,742.9,89.2,743.7,81.8z M746.8,62.8c-1.2-0.1-1.5-0.5-1-1.2c0.5-0.7,2.1-2,6.4-4.6c4.2-2.5,11.1-4.6,11.6-4.6
		c0.6,0.1,0.7,0.4,0.1,1.2c-0.6,0.8-3.3,3.7-5.4,5.5c-1.2,1-2.5,1.9-3.4,2.5C753.4,63,749,63.1,746.8,62.8z M783.9,41.7
		c1.2-0.5,1.8-0.3,0.6,0.7c-1.2,1-5.2,3.1-9.2,5.7c-3.2,2.1-6.7,4.4-8.4,5.5c-3.2,2.1,0.2-1.6,0.6-2c1.9-1.6,4-3.2,7.3-5.2
		C778.1,44.3,782.7,42.2,783.9,41.7z M778.3,39.1c1.8-2.3,8.6-9.9,9.6-10.7c1-0.8,0.9,0.3,0.9,0.3v8.8c0.1,0.8-1.9,1.1-4.8,2.5
		c-2.9,1.4-7.4,3.3-8.1,3.3S776.5,41.5,778.3,39.1z M703.2,43.2c0.2-0.5,0.5-1.3,1-2.3c1.2-2.3,3-3.5,5.5-4.4
		c2.5-0.9,28.2-7,42.4-10.7c14.2-3.6,34.6-6.6,36.4-6.2c1.9,0.3,2.3,1.3,1.9,2.4c-0.4,1.1-3.6,4.9-7.1,9
		c-3.5,4.1-12.2,13.2-14.9,14.6c-1.5,0.8-9.7,4.9-18,8.2c-6.8,2.7-11.5,4.7-16.6,4.6c-6.4,0-14.9-2-20.2-3.3
		c-5.3-1.3-7.4-2.4-8.6-3.5c-0.7-0.6-1.3-2.3-1.8-3.7L703.2,43.2z M703.2,54.9c0.8-0.1,2,0,3.6,0.1c3.8,0.5,8.2,1.8,11.9,2.5
		c3.7,0.8,9.6,2.5,11.1,3.3c1.5,0.8,0.7,1-0.3,1.4c-0.9,0.3-4,1.2-7.9,0.3c-3.8-0.9-10.9-3.8-14.7-5.3c-1.9-0.7-3-1.4-3.7-1.8
		L703.2,54.9z M703.2,57.7c0.8,0.2,2,0.6,3.3,1c2.4,0.8,8.7,3.6,10.5,4.4c1.8,0.8,1.8,1.6,1.5,2.3c-0.3,0.7-3.8,2.3-6.7,3.8
		c-2.9,1.5-4.8,1.9-6.2,1.7c-0.8-0.1-1.8-1.5-2.4-2.7L703.2,57.7z M699,12.3c0.3,0,0.6,0.2,0.6,0.6c0,0.5-0.2,0.8-0.6,0.9
		C698,13.9,698.1,12.3,699,12.3z M685.6,72.5c-1.2,0.1-1.1-1.5-0.1-1.5c0.3,0,0.7,0.2,0.7,0.6C686.3,72.2,686,72.5,685.6,72.5z
		 M690.4,94.9c-1.7,0.2-1.5-2.1-0.1-2.1c0.5,0,0.9,0.3,1,0.9C691.4,94.4,691,94.8,690.4,94.9z M691.4,21.7c-1,0.1-0.9-1.5-0.1-1.6
		c0.3,0,0.6,0.2,0.6,0.6C692,21.4,691.8,21.7,691.4,21.7z M698,93.6c-0.1,1.3-1,1.2-1,1.2c-0.5,0-1.3-0.1-1.4-0.5
		c-0.1-0.4-0.2-0.9,0.3-1.2c0.5-0.3,0.6-0.4,0.5-1.1c-0.1-0.7-0.9-0.5-0.9-1.4c0-0.9,0.5-1.2,1.1-1.3c0.7-0.1,1.4,0.4,1.4,1.1
		C698,91.1,698.1,92.2,698,93.6z M696.8,72.5c-1.2,0.1-1.1-1.5-0.1-1.5c0.3,0,0.7,0.2,0.7,0.6C697.5,72.1,697.2,72.4,696.8,72.5z
		 M697.4,86.4c0,0.4-0.2,0.6-0.5,0.7c-0.9,0.1-0.8-1.1-0.1-1.1C697.1,85.9,697.3,86.1,697.4,86.4z M699.9,25.7
		c-0.1,0.4-0.4,0.5-0.8,0.2c-0.4-0.3-0.3-0.4-0.9-0.5c-0.6-0.1-0.9,0-1-0.5c-0.2-0.5,0.1-1.3,0.1-1.9c0-0.5-0.7-0.3-0.9,0.1
		c-0.2,0.4-0.8,1-1,1.6c-0.3,0.6,0,0.9,0.2,1.2c0.2,0.4,0.2,1.3,0.1,2.2c-0.1,0.9-0.9,1.1-1.3,0.1c-0.2-0.4-0.5-0.9-0.6-1.2
		c-0.2-0.7-0.6-0.7-0.6-1.6c0-0.9,0.4-1.5,1-2c0.6-0.5,0.5-1.8,0.5-2.4c0-0.6,0.2-0.7,0.7-0.9c0.5-0.2,0.4-1.1,0.7-1.7
		c0.3-0.6,1.2-0.1,1.2,0.3c0,0.3,0,1.3-0.3,1.6c-0.3,0.3,0.1,1.1,0.2,1.8c0.1,0.7,1.1,1.4,1.9,1.5c0.7,0,0.5,0.4,0.7,0.7
		c0.2,0.3,0.8,0.1,0.8,0.5C700.6,25.2,700,25.3,699.9,25.7z M701.2,30.2c0.3,0,0.7,0.2,0.7,0.6c0.1,0.5-0.2,0.8-0.6,0.9
		C700.1,31.8,700.2,30.2,701.2,30.2z M703.2,79.4l0-3.3c0.9-0.9,2.1-2.1,3.3-2.7c2.1-1.2,7.9-3.4,10.7-4.6c2.8-1.1,7.7-2.6,9-2.5
		c1.3,0.1,1.8,0.6,0.5,1.4c-1.3,0.8-4,2.9-6.4,4c-2.5,1.2-12.1,5.6-14.1,6.8C705,79.2,704,79.3,703.2,79.4z M724.9,80.1h-16.6
		c-0.1-0.7,1.1-1.4,2.8-2.6c1.9-1.3,5.9-2.6,9-4.2c3.2-1.6,9.9-4.7,11.6-4.4c1.7,0.3,2.4,1.4,3.3,2.4c0.9,1,1.2,1.8,0.6,2.6
		c-0.6,0.8-2.5,2-5.4,4.2C728.7,79.3,726.6,79.8,724.9,80.1z M736.7,82.1c-5.6,1.4-7.6,0.6-8-1c-0.1-0.5,6.6-5.2,8.1-5.2
		c0.8,0,1.9,0.7,2.6,1.9c0.7,1.2,1,1.5,1,2.1C740.4,80.5,739.5,81.4,736.7,82.1z M760.4,93c-0.2,0.5-5.7,0.3-9.4,0.1
		c-4.2-0.2-4.7-0.7-6.9-1.7c-2.3-1-3.3-2.4-3.1-2.9c0.2-0.5,1.4-0.5,4.2-0.3c0.7,0.1,4.5,0.8,8.4,1.9
		C757.1,91.1,760.7,92.3,760.4,93z M774.7,96.2c-2-0.4-13.7-1-14-1.6c-0.3-0.6,0.7-1.2,2.8-1.2c2.1,0,7.2,0.6,9.8,1.1
		c2.6,0.5,8.6,1.9,8.6,1.9C783.7,97.3,776.7,96.6,774.7,96.2z M788.2,95.7c-1.8,0.2-4-0.3-6.6-0.8c-2.5-0.5-6.2-1.3-6.4-2
		c-0.2-0.7,1.6-1.2,4-1.8c2.5-0.6,8.5-0.8,9.8-0.4C792.2,91.9,792.1,95.3,788.2,95.7z M798.6,81.6c-0.9,1.8-3.9,4.4-3.9,4.4
		c-2.3,1.6-4.5,1.2-8.2,0.5c-5.1-1.1-11.7-3.3-14.7-4.7c-4.2-1.8-17.5-7.4-18.8-8.2c-1.3-0.8-2.7-1.8-2.6-2.5
		c0.1-0.7,1.3-2.2,2.4-3.1c2.5-2.1,10.9-0.4,13.8,0c5.3,0.9,29.3,6.1,31.4,7.3C800,76.4,799.5,79.8,798.6,81.6z M804.1,95
		c-1,0.1-0.9-1.9-0.1-1.9c0.3,0,0.6,0.2,0.6,0.8C804.7,94.6,804.4,95,804.1,95z M810.6,84c-0.3,0.5-1.1,0.7-1.5,0.2
		c-0.4-0.6-0.1-1.1-0.7-1.2c-0.6-0.1-0.5,0.8-0.5,1.5c0,0.7,0.3,1.3,0.3,1.9c0,0.6-0.3,1.1-0.3,1.1c-1,0.8-1.3-0.4-1.2-1.2
		c0.1-0.8,0.4-0.7,0.1-1.3c-0.2-0.6-0.7-0.5-0.6-1.4c0-0.9,0.4-1.4,1.1-1.4c0.7-0.1,0.4-0.5,0.9-0.7c0.5-0.2,0.6,0.3,0.8,0.6
		c0.3,0.3,0.5,0,1.2,0.4C810.9,82.6,810.9,83.5,810.6,84z M810.1,74c-1,0.2-0.9-2.4-0.1-2.4c0.3,0,0.6,0.3,0.6,1
		C810.7,73.5,810.4,74,810.1,74z M810.7,77.7c0,0.7-0.2,1.1-0.6,1.1c-1,0.1-0.9-1.9-0.1-1.9C810.4,76.9,810.7,77.1,810.7,77.7z
		 M805.3,53.5c-0.9-1.6-5.5-8.2-6.6-9.8c-1.1-1.6-2.1-1.8-1.9-2.7c0.2-1,2-1.6,4.7-1.4c2.7,0.1,7.4,1.4,10.1,2.5
		c2.7,1,6.1,2.1,6.6,4.2c0.5,2-1,3.6-2.1,5.7c-1.2,2.1-3.5,6.5-3.5,6.5C810,61.1,806.2,55.1,805.3,53.5z"/>
	<path class="st0" d="M750.2,87.2c1.4,0,2.6-0.5,3.5-1.4c0.9-0.9,1.5-2.1,1.5-3.5c0-1.3-0.6-2.6-1.5-3.5c-0.9-0.9-2.1-1.4-3.5-1.4
		c-1.4,0-2.6,0.5-3.5,1.4c-0.9,0.9-1.5,2.1-1.5,3.5c0,1.3,0.6,2.6,1.5,3.5C747.6,86.7,748.8,87.2,750.2,87.2z M747.1,79.3
		c0.8-0.8,1.9-1.3,3.1-1.3c1.2,0,2.3,0.5,3.1,1.3c0.8,0.8,1.3,1.8,1.3,3c0,1.2-0.5,2.2-1.3,3c-0.8,0.8-1.9,1.2-3.1,1.2
		c-1.2,0-2.3-0.5-3.1-1.2c-0.8-0.8-1.3-1.8-1.3-3C745.8,81.2,746.3,80.1,747.1,79.3z"/>
	<path class="st0" d="M749.2,82.7h1.4l0.9,2.3h1.1l-1-2.5c0.7-0.3,1-0.8,1-1.5c0-0.5-0.2-0.9-0.5-1.2c-0.3-0.3-0.8-0.5-1.5-0.5h-2.5
		v5.7h1V82.7z M749.2,80.2h1.4c0.3,0,0.6,0.1,0.7,0.2c0.2,0.2,0.3,0.4,0.3,0.6c0,0.3-0.1,0.5-0.3,0.6c-0.2,0.2-0.5,0.2-0.8,0.2h-1.3
		V80.2z"/>
</g>
</svg>
